{
.appVersion = "1357";
DisplayStrings = (
abcdefghijklmnopqrstuvwxyz,
ABCDEFGHIJKLMNOPQRSTUVWXYZ,
"HH/Placeholder HO/Placeholder OOFAF/space GAG\012A/Placeholder A/space B/Placeholder B/space C/Placeholder C/space D/Placeholder D/space E/Placeholder E/space F/Placeholder F/space G/Placeholder G/space H/Placeholder H/space I/Placeholder I/space/space J/Placeholder J/space K/Placeholder K/space L/Placeholder L/space M/Placeholder M/space N/Placeholder N/space O/Placeholder O/space P/Placeholder P/space Q/Placeholder Q/space R/Placeholder R/space S/Placeholder S/space T/Placeholder T/space U/Placeholder U/space V/Placeholder V/space W/Placeholder W/space X/Placeholder X/space Y/Placeholder Y/space Z/Placeholder Z/space HH/Placeholder HO/Placeholder OO\012HTVFDYCGOOMALYAVROYONMJMVWATHBOCDEFGHIJKOLMHNOPOQRSOTUVWOXOYZ\012\012AWARD/space AVATAR/space YOU/space AFAIK/space ALL/space TALL/space TOMATO/space PAIN/space AUSTRAL/space OVOIDE/space OXO/space OYO/space AMAYA/space TIT/space FOLD/space AVANZAR/space Peto/space Fosforo/space Pato/space Pito/space Feo/space Tuvo/space Tiene/space TaraTermo/space Tomate/space Yuno/space Yin/space Yale/space You/space Yeyo/space Fio/space Falaz/space Wonder/space Volcan/space Wals/space Well/space/space Winston/space Wulc/space/space Viene/space Variar/space Velocidad/space Kellogs/space Kunst/space Kale/space \012LORD/space PJROJO/space WYN/space Brush/space Ban/space Bon/space Beale/space Lio/space Volcan/space Viernes/space nnenoeoo/space nnrnoroo",
"HH0H1HH2HH3H\012HH4HH5HH6HH\012HH7H8HH9HH/zero.lf \0120/Placeholder 0/space 1/Placeholder 1/space 2/Placeholder 2/space 3/Placeholder 3/space 4/Placeholder 4/space 5/Placeholder 5/space 6/Placeholder 6/space 7/Placeholder 7/space 8/Placeholder 8/space 9/Placeholder 9\0120123475077¹47989/nbspace \012/one.lf/two.lf/three.lf/four.lf/five.lf/six.lf/seven.lf/eight.lf/nine.lf \012nn/Placeholder no/Placeholder oo\012",

glyphs = (
{
glyphname = .notdef;
lastChange = "2021-11-18 14:42:31 +0000";
layers = (
{
background = {
paths = (
{
closed = 1;
nodes = (
"489 0 LINE",
"498 8 LINE",
"498 621 LINE",
"489 630 LINE",
"68 630 LINE",
"60 620 LINE",
"60 9 LINE",
"68 0 LINE"
);
},
{
closed = 1;
nodes = (
"164 150 LINE",
"254 316 LINE",
"164 479 LINE",
"183 514 LINE",
"273 350 LINE",
"364 514 LINE",
"383 479 LINE",
"293 314 LINE",
"383 150 LINE",
"364 116 LINE",
"273 279 LINE",
"183 116 LINE"
);
},
{
closed = 1;
nodes = (
"77 613 LINE",
"481 613 LINE",
"481 16 LINE",
"77 16 LINE"
);
},
{
closed = 1;
nodes = (
"447 49 LINE",
"447 577 LINE",
"112 577 LINE",
"112 49 LINE"
);
}
);
};
layerId = "01BDBA83-373F-4081-A4FB-32E4C1670F2F";
paths = (
{
closed = 1;
nodes = (
"489 0 LINE",
"498 8 LINE",
"498 621 LINE",
"489 630 LINE",
"68 630 LINE",
"60 620 LINE",
"60 9 LINE",
"68 0 LINE"
);
},
{
closed = 1;
nodes = (
"164 150 LINE",
"254 316 LINE",
"164 479 LINE",
"183 514 LINE",
"273 350 LINE",
"364 514 LINE",
"383 479 LINE",
"293 314 LINE",
"383 150 LINE",
"364 116 LINE",
"273 279 LINE",
"183 116 LINE"
);
},
{
closed = 1;
nodes = (
"77 16 LINE",
"77 613 LINE",
"481 613 LINE",
"481 16 LINE"
);
},
{
closed = 1;
nodes = (
"112 49 LINE",
"447 49 LINE",
"447 577 LINE",
"112 577 LINE"
);
}
);
width = 558;
}
);
note = .notdef;
},
{
glyphname = A;
lastChange = "2021-11-19 01:29:12 +0000";
layers = (
{
anchors = (
{
name = bottom;
position = "{220, -60}";
},
{
name = ogonek;
position = "{497, -47}";
},
{
name = top;
position = "{565, 508}";
}
);
layerId = "01BDBA83-373F-4081-A4FB-32E4C1670F2F";
paths = (
{
closed = 1;
nodes = (
"-11 -104 OFFCURVE",
"134 0 OFFCURVE",
"213 75 CURVE",
"212 76 LINE",
"235 94 LINE",
"237 94 LINE",
"247 104 LINE",
"246 104 LINE",
"256 112 LINE",
"274 112 LINE",
"279 115 LINE",
"283 106 LINE",
"294 105 LINE SMOOTH",
"302 104 OFFCURVE",
"308 110 OFFCURVE",
"314 113 CURVE SMOOTH",
"324 119 OFFCURVE",
"381 130 OFFCURVE",
"382 139 CURVE",
"416 138 LINE",
"420 125 LINE",
"418 117 LINE",
"412 109 LINE",
"412 101 OFFCURVE",
"409 93 OFFCURVE",
"405 85 CURVE",
"397 53 OFFCURVE",
"389 21 OFFCURVE",
"382 -12 CURVE",
"385 -18 LINE",
"385 -24 OFFCURVE",
"382 -31 OFFCURVE",
"376 -34 CURVE",
"381 -57 LINE",
"387 -60 OFFCURVE",
"394 -63 OFFCURVE",
"401 -65 CURVE",
"409 -62 OFFCURVE",
"416 -66 OFFCURVE",
"422 -68 CURVE",
"435 -65 OFFCURVE",
"447 -65 OFFCURVE",
"461 -68 CURVE",
"467 -60 LINE",
"467 -23 OFFCURVE",
"465 13 OFFCURVE",
"472 50 CURVE",
"460 45 LINE",
"459 44 LINE",
"459 49 LINE SMOOTH",
"459 199 OFFCURVE",
"604 134 OFFCURVE",
"624 183 CURVE",
"621 185 LINE",
"617 183 LINE",
"577 179 OFFCURVE",
"537 170 OFFCURVE",
"497 170 CURVE SMOOTH",
"483 170 LINE",
"483 175 LINE SMOOTH",
"483 194 OFFCURVE",
"517 289 OFFCURVE",
"529 306 CURVE",
"534 305 LINE",
"541 309 LINE",
"544 322 LINE",
"531 329 LINE",
"535 340 LINE",
"545 346 LINE SMOOTH",
"551 349 OFFCURVE",
"553 355 OFFCURVE",
"553 361 CURVE",
"559 358 LINE",
"567 368 LINE",
"574 362 LINE",
"580 364 OFFCURVE",
"592 367 OFFCURVE",
"594 374 CURVE",
"582 374 LINE SMOOTH",
"573 374 OFFCURVE",
"564 373 OFFCURVE",
"556 375 CURVE",
"559 383 OFFCURVE",
"564 391 OFFCURVE",
"571 394 CURVE",
"580 393 OFFCURVE",
"587 390 OFFCURVE",
"593 385 CURVE",
"598 390 LINE",
"604 383 LINE",
"609 396 OFFCURVE",
"614 409 OFFCURVE",
"618 423 CURVE",
"609 437 LINE",
"586 448 OFFCURVE",
"561 453 OFFCURVE",
"537 464 CURVE",
"521 463 OFFCURVE",
"513 410 OFFCURVE",
"510 397 CURVE",
"504 397 OFFCURVE",
"487 334 OFFCURVE",
"481 322 CURVE",
"481 318 LINE",
"466 281 OFFCURVE",
"453 243 OFFCURVE",
"445 204 CURVE",
"436 194 LINE",
"437 183 LINE",
"421 157 LINE",
"377 155 OFFCURVE",
"333 150 OFFCURVE",
"290 147 CURVE",
"290 148 LINE",
"298 153 LINE",
"301 153 LINE",
"306 162 OFFCURVE",
"320 185 OFFCURVE",
"331 185 CURVE SMOOTH",
"332 185 LINE",
"372 232 OFFCURVE",
"418 275 OFFCURVE",
"449 329 CURVE SMOOTH",
"458 346 OFFCURVE",
"463 364 OFFCURVE",
"474 379 CURVE",
"474 377 LINE",
"494 420 OFFCURVE",
"511 446 OFFCURVE",
"509 496 CURVE SMOOTH",
"508 521 LINE SMOOTH",
"508 522 OFFCURVE",
"505 523 OFFCURVE",
"503 523 CURVE SMOOTH",
"491 523 OFFCURVE",
"461 499 OFFCURVE",
"461 487 CURVE",
"466 480 OFFCURVE",
"470 467 OFFCURVE",
"470 458 CURVE SMOOTH",
"470 455 OFFCURVE",
"466 446 OFFCURVE",
"465 444 CURVE",
"465 445 LINE",
"454 418 OFFCURVE",
"451 385 OFFCURVE",
"434 360 CURVE",
"433 361 LINE",
"431 358 LINE",
"413 306 OFFCURVE",
"295 191 OFFCURVE",
"252 148 CURVE",
"238 148 OFFCURVE",
"223 148 OFFCURVE",
"213 139 CURVE",
"204 142 LINE",
"194 139 LINE",
"178 139 OFFCURVE",
"162 139 OFFCURVE",
"146 141 CURVE",
"144 147 LINE",
"130 147 OFFCURVE",
"109 122 OFFCURVE",
"109 109 CURVE SMOOTH",
"109 92 OFFCURVE",
"130 85 OFFCURVE",
"144 85 CURVE SMOOTH",
"156 85 OFFCURVE",
"163 101 OFFCURVE",
"170 108 CURVE",
"189 110 OFFCURVE",
"206 117 OFFCURVE",
"224 121 CURVE",
"188 85 OFFCURVE",
"26 -58 OFFCURVE",
"-15 -59 CURVE",
"-21 -56 LINE",
"-16 -47 LINE",
"-3 -40 OFFCURVE",
"13 -23 OFFCURVE",
"23 -12 CURVE",
"21 -12 LINE",
"-14 -28 OFFCURVE",
"-49 -40 OFFCURVE",
"-85 -49 CURVE",
"-91 -54 LINE",
"-99 -55 LINE",
"-109 -64 LINE",
"-111 -64 LINE",
"-123 -56 LINE",
"-134 -93 LINE",
"-128 -104 OFFCURVE",
"-130 -121 OFFCURVE",
"-117 -128 CURVE"
);
},
{
closed = 1;
nodes = (
"43 -5 LINE",
"44 -4 LINE",
"43 0 LINE",
"40 1 LINE",
"38 -5 LINE"
);
},
{
closed = 1;
nodes = (
"520 313 LINE",
"530 320 LINE",
"531 317 LINE",
"526 310 LINE"
);
},
{
closed = 1;
nodes = (
"571 321 LINE",
"568 331 LINE",
"561 321 LINE",
"565 320 LINE"
);
},
{
closed = 1;
nodes = (
"574 407 LINE",
"576 409 LINE",
"578 409 LINE",
"577 406 LINE"
);
}
);
width = 543;
}
);
note = A;
unicode = 0041;
},
{
glyphname = AE;
lastChange = "2021-11-19 02:35:35 +0000";
layers = (
{
anchors = (
{
name = bottom;
position = "{450, 0}";
},
{
name = top;
position = "{724, 480}";
}
);
background = {
hints = (
{
horizontal = 1;
place = "{-51, 18}";
type = Stem;
},
{
horizontal = 1;
place = "{-31, 45}";
type = Stem;
},
{
horizontal = 1;
place = "{457, 64}";
type = Stem;
},
{
horizontal = 1;
place = "{532, 18}";
type = Stem;
},
{
place = "{-16, 61}";
type = Stem;
},
{
place = "{422, 104}";
type = Stem;
},
{
place = "{1114, 29}";
type = Stem;
}
);
paths = (
{
closed = 1;
nodes = (
"1085 313 LINE",
"1075 317 LINE",
"1072 313 LINE",
"1076 310 LINE"
);
},
{
closed = 1;
nodes = (
"639 411 LINE",
"634 422 LINE",
"627 411 LINE",
"633 410 LINE"
);
},
{
closed = 1;
nodes = (
"1148 463 OFFCURVE",
"1138 466 OFFCURVE",
"1138 474 CURVE SMOOTH",
"1138 510 OFFCURVE",
"1088 521 OFFCURVE",
"1060 521 CURVE SMOOTH",
"1035 521 OFFCURVE",
"962 510 OFFCURVE",
"942 497 CURVE",
"918 501 OFFCURVE",
"737 427 OFFCURVE",
"732 409 CURVE",
"725 413 LINE",
"715 401 OFFCURVE",
"694 378 OFFCURVE",
"678 378 CURVE SMOOTH",
"675 378 OFFCURVE",
"670 380 OFFCURVE",
"668 381 CURVE",
"643 370 OFFCURVE",
"577 313 OFFCURVE",
"553 293 CURVE",
"554 309 OFFCURVE",
"567 325 OFFCURVE",
"575 338 CURVE",
"575 355 OFFCURVE",
"583 361 OFFCURVE",
"591 374 CURVE",
"597 373 LINE",
"605 377 LINE",
"608 392 LINE",
"603 394 OFFCURVE",
"598 397 OFFCURVE",
"594 400 CURVE",
"598 412 LINE",
"609 419 LINE",
"617 420 OFFCURVE",
"617 429 OFFCURVE",
"617 436 CURVE",
"625 432 LINE",
"634 443 LINE",
"642 436 LINE",
"647 444 OFFCURVE",
"652 451 OFFCURVE",
"655 459 CURVE",
"652 462 LINE",
"643 461 OFFCURVE",
"638 449 OFFCURVE",
"627 449 CURVE SMOOTH",
"625 449 OFFCURVE",
"624 450 OFFCURVE",
"622 451 CURVE",
"625 458 OFFCURVE",
"629 472 OFFCURVE",
"639 472 CURVE SMOOTH",
"647 472 OFFCURVE",
"656 466 OFFCURVE",
"662 462 CURVE",
"669 467 LINE",
"675 460 LINE",
"681 474 OFFCURVE",
"686 489 OFFCURVE",
"691 504 CURVE",
"688 509 OFFCURVE",
"685 515 OFFCURVE",
"680 520 CURVE",
"654 532 OFFCURVE",
"626 537 OFFCURVE",
"601 550 CURVE",
"589 533 OFFCURVE",
"578 514 OFFCURVE",
"564 498 CURVE",
"569 491 LINE",
"574 494 LINE",
"577 491 LINE",
"571 482 LINE",
"571 475 LINE",
"564 476 LINE",
"559 472 LINE",
"484 456 OFFCURVE",
"368 391 OFFCURVE",
"300 351 CURVE",
"293 354 LINE",
"283 354 OFFCURVE",
"275 344 OFFCURVE",
"269 337 CURVE",
"252 337 OFFCURVE",
"239 320 OFFCURVE",
"224 314 CURVE",
"215 305 LINE",
"209 306 LINE",
"200 298 OFFCURVE",
"190 291 OFFCURVE",
"180 284 CURVE",
"183 279 LINE",
"176 274 LINE",
"173 274 LINE",
"167 267 OFFCURVE",
"158 263 OFFCURVE",
"149 261 CURVE",
"127 238 OFFCURVE",
"103 217 OFFCURVE",
"79 196 CURVE",
"72 196 OFFCURVE",
"65 192 OFFCURVE",
"65 184 CURVE",
"57 178 OFFCURVE",
"49 174 OFFCURVE",
"45 164 CURVE",
"7 126 OFFCURVE",
"-16 87 OFFCURVE",
"-16 32 CURVE SMOOTH",
"-16 -2 OFFCURVE",
"8 -51 OFFCURVE",
"48 -51 CURVE SMOOTH",
"67 -51 OFFCURVE",
"71 -32 OFFCURVE",
"77 -33 CURVE",
"82 -28 LINE",
"93 -23 LINE",
"96 -17 OFFCURVE",
"100 -11 OFFCURVE",
"103 -4 CURVE",
"98 0 LINE",
"92 -5 OFFCURVE",
"85 -10 OFFCURVE",
"78 -14 CURVE",
"75 -13 LINE",
"57 -18 LINE",
"51 -15 OFFCURVE",
"48 -11 OFFCURVE",
"45 -5 CURVE",
"45 53 OFFCURVE",
"92 113 OFFCURVE",
"131 153 CURVE",
"146 147 LINE",
"167 147 OFFCURVE",
"187 142 OFFCURVE",
"208 135 CURVE",
"227 136 OFFCURVE",
"244 144 OFFCURVE",
"256 157 CURVE",
"283 160 OFFCURVE",
"301 160 OFFCURVE",
"320 183 CURVE",
"322 176 OFFCURVE",
"326 170 OFFCURVE",
"333 170 CURVE SMOOTH",
"335 170 LINE",
"338 177 OFFCURVE",
"343 184 OFFCURVE",
"349 188 CURVE",
"391 184 OFFCURVE",
"401 222 OFFCURVE",
"422 222 CURVE SMOOTH",
"432 222 OFFCURVE",
"435 208 OFFCURVE",
"443 208 CURVE SMOOTH",
"453 208 OFFCURVE",
"481 220 OFFCURVE",
"493 223 CURVE",
"496 222 LINE",
"485 202 OFFCURVE",
"475 180 OFFCURVE",
"465 158 CURVE",
"462 155 LINE",
"462 146 OFFCURVE",
"459 137 OFFCURVE",
"454 130 CURVE",
"445 94 OFFCURVE",
"436 58 OFFCURVE",
"428 21 CURVE",
"432 14 LINE",
"432 7 OFFCURVE",
"428 0 OFFCURVE",
"422 -4 CURVE",
"427 -29 LINE",
"434 -33 OFFCURVE",
"442 -35 OFFCURVE",
"450 -38 CURVE",
"460 -35 OFFCURVE",
"467 -43 OFFCURVE",
"476 -43 CURVE SMOOTH",
"483 -43 OFFCURVE",
"490 -38 OFFCURVE",
"498 -38 CURVE SMOOTH",
"504 -38 OFFCURVE",
"509 -39 OFFCURVE",
"516 -41 CURVE",
"523 -32 LINE",
"511 -10 LINE",
"510 0 LINE SMOOTH",
"510 4 OFFCURVE",
"511 10 OFFCURVE",
"512 14 CURVE",
"520 7 OFFCURVE",
"529 3 OFFCURVE",
"539 0 CURVE",
"544 4 LINE",
"555 -5 LINE",
"562 -5 OFFCURVE",
"563 5 OFFCURVE",
"571 5 CURVE SMOOTH",
"580 5 OFFCURVE",
"571 -20 OFFCURVE",
"590 -20 CURVE SMOOTH",
"610 -20 OFFCURVE",
"613 -14 OFFCURVE",
"629 -31 CURVE",
"644 -31 LINE SMOOTH",
"657 -31 OFFCURVE",
"670 -31 OFFCURVE",
"683 -29 CURVE",
"686 -24 OFFCURVE",
"689 -21 OFFCURVE",
"695 -19 CURVE",
"704 -23 LINE",
"724 -20 LINE",
"715 -13 LINE",
"723 -7 LINE",
"730 -10 OFFCURVE",
"736 -14 OFFCURVE",
"741 -19 CURVE",
"747 -11 OFFCURVE",
"754 -4 OFFCURVE",
"762 3 CURVE",
"760 10 LINE",
"774 14 LINE",
"776 8 LINE",
"781 14 OFFCURVE",
"788 18 OFFCURVE",
"796 21 CURVE",
"806 16 LINE",
"805 10 LINE",
"814 13 LINE",
"789 4 LINE",
"815 13 OFFCURVE",
"841 22 OFFCURVE",
"867 33 CURVE",
"849 26 OFFCURVE",
"832 19 OFFCURVE",
"814 13 CURVE",
"922 56 LINE",
"931 52 LINE",
"968 70 LINE",
"977 80 OFFCURVE",
"1029 98 OFFCURVE",
"1029 106 CURVE",
"1069 126 OFFCURVE",
"1103 157 OFFCURVE",
"1138 186 CURVE",
"1132 189 LINE",
"1042 148 OFFCURVE",
"952 97 OFFCURVE",
"855 76 CURVE",
"855 78 LINE",
"852 82 LINE",
"796 45 OFFCURVE",
"740 49 OFFCURVE",
"678 31 CURVE SMOOTH",
"658 26 OFFCURVE",
"641 14 OFFCURVE",
"619 14 CURVE SMOOTH",
"580 14 OFFCURVE",
"530 33 OFFCURVE",
"526 77 CURVE",
"533 93 LINE",
"530 96 LINE",
"523 90 LINE",
"520 94 LINE",
"525 100 OFFCURVE",
"528 106 OFFCURVE",
"531 113 CURVE",
"526 121 OFFCURVE",
"523 130 OFFCURVE",
"523 139 CURVE",
"526 146 OFFCURVE",
"532 151 OFFCURVE",
"540 154 CURVE",
"537 160 OFFCURVE",
"534 166 OFFCURVE",
"528 169 CURVE",
"530 175 LINE",
"538 174 LINE",
"538 172 LINE",
"541 166 LINE",
"548 170 LINE",
"550 176 LINE",
"547 181 OFFCURVE",
"544 186 OFFCURVE",
"539 189 CURVE",
"541 194 LINE",
"534 202 LINE",
"535 224 LINE",
"544 224 OFFCURVE",
"551 223 OFFCURVE",
"559 222 CURVE",
"563 225 LINE",
"570 235 LINE",
"577 234 OFFCURVE",
"583 228 OFFCURVE",
"587 221 CURVE",
"602 249 OFFCURVE",
"595 248 OFFCURVE",
"629 248 CURVE SMOOTH",
"645 248 OFFCURVE",
"647 233 OFFCURVE",
"653 233 CURVE SMOOTH",
"660 233 OFFCURVE",
"667 235 OFFCURVE",
"671 240 CURVE",
"670 246 LINE",
"674 250 LINE",
"682 246 LINE",
"684 263 OFFCURVE",
"703 251 OFFCURVE",
"709 263 CURVE",
"709 266 LINE",
"714 269 LINE",
"714 262 OFFCURVE",
"714 249 OFFCURVE",
"705 247 CURVE",
"697 248 LINE",
"697 245 LINE",
"710 238 LINE",
"716 238 OFFCURVE",
"722 241 OFFCURVE",
"724 247 CURVE",
"715 250 LINE",
"720 255 OFFCURVE",
"725 258 OFFCURVE",
"732 261 CURVE",
"742 253 LINE",
"752 254 OFFCURVE",
"759 263 OFFCURVE",
"772 263 CURVE",
"785 270 LINE",
"792 268 LINE",
"806 272 OFFCURVE",
"820 277 OFFCURVE",
"832 286 CURVE",
"860 283 LINE",
"865 285 LINE",
"863 292 LINE",
"875 297 LINE",
"894 297 OFFCURVE",
"911 292 OFFCURVE",
"930 292 CURVE SMOOTH",
"949 292 OFFCURVE",
"963 305 OFFCURVE",
"982 305 CURVE SMOOTH",
"994 305 OFFCURVE",
"1003 300 OFFCURVE",
"1015 300 CURVE SMOOTH",
"1025 300 OFFCURVE",
"1036 302 OFFCURVE",
"1044 308 CURVE",
"1051 308 OFFCURVE",
"1058 309 OFFCURVE",
"1065 313 CURVE",
"1055 319 LINE",
"922 319 LINE SMOOTH",
"849 320 OFFCURVE",
"769 320 OFFCURVE",
"698 303 CURVE SMOOTH",
"686 301 OFFCURVE",
"674 293 OFFCURVE",
"661 293 CURVE SMOOTH",
"658 293 OFFCURVE",
"648 297 OFFCURVE",
"644 298 CURVE",
"644 299 LINE",
"695 342 OFFCURVE",
"752 377 OFFCURVE",
"814 403 CURVE SMOOTH",
"838 414 OFFCURVE",
"864 418 OFFCURVE",
"886 435 CURVE",
"897 428 LINE",
"935 439 OFFCURVE",
"971 459 OFFCURVE",
"1012 459 CURVE SMOOTH",
"1028 459 OFFCURVE",
"1045 457 OFFCURVE",
"1061 457 CURVE",
"1069 453 LINE",
"1094 450 OFFCURVE",
"1114 436 OFFCURVE",
"1114 409 CURVE SMOOTH",
"1114 401 OFFCURVE",
"1112 395 OFFCURVE",
"1106 391 CURVE",
"1112 384 LINE",
"1120 387 OFFCURVE",
"1129 391 OFFCURVE",
"1136 396 CURVE",
"1139 405 OFFCURVE",
"1143 414 OFFCURVE",
"1143 423 CURVE SMOOTH",
"1143 430 OFFCURVE",
"1139 437 OFFCURVE",
"1133 442 CURVE",
"1137 449 OFFCURVE",
"1148 444 OFFCURVE",
"1148 454 CURVE SMOOTH"
);
},
{
closed = 1;
nodes = (
"805 -2 LINE",
"796 3 LINE",
"792 3 LINE",
"785 -5 LINE",
"795 -12 LINE"
);
},
{
closed = 1;
nodes = (
"573 207 LINE",
"565 214 LINE",
"562 210 OFFCURVE",
"557 206 OFFCURVE",
"552 203 CURVE",
"557 199 LINE",
"564 207 LINE"
);
},
{
closed = 1;
nodes = (
"764 -19 LINE",
"761 -16 LINE",
"758 -17 LINE"
);
},
{
closed = 1;
nodes = (
"453 155 LINE",
"450 156 LINE",
"448 152 LINE",
"451 151 LINE"
);
},
{
closed = 1;
nodes = (
"442 93 LINE",
"439 94 LINE",
"437 90 LINE",
"440 89 LINE"
);
},
{
closed = 1;
nodes = (
"1113 480 LINE",
"1110 476 LINE",
"1094 479 LINE",
"1089 482 LINE",
"1105 486 LINE"
);
},
{
closed = 1;
nodes = (
"1063 480 LINE",
"1051 481 LINE",
"1051 483 LINE",
"1057 483 LINE",
"1063 481 LINE"
);
},
{
closed = 1;
nodes = (
"1047 483 LINE",
"1043 481 LINE",
"1024 476 LINE",
"1025 472 LINE",
"1020 469 LINE",
"1012 469 OFFCURVE",
"1004 473 OFFCURVE",
"1004 481 CURVE",
"1015 481 OFFCURVE",
"1026 480 OFFCURVE",
"1036 485 CURVE"
);
},
{
closed = 1;
nodes = (
"933 303 LINE",
"927 297 LINE",
"920 301 LINE"
);
},
{
closed = 1;
nodes = (
"810 417 LINE",
"806 411 OFFCURVE",
"801 408 OFFCURVE",
"795 408 CURVE SMOOTH",
"789 409 LINE",
"787 411 LINE",
"795 419 LINE"
);
},
{
closed = 1;
nodes = (
"779 402 LINE",
"767 396 LINE",
"763 399 LINE",
"771 406 LINE"
);
},
{
closed = 1;
nodes = (
"744 383 LINE",
"735 381 LINE",
"736 384 LINE",
"742 386 LINE"
);
},
{
closed = 1;
nodes = (
"728 369 LINE",
"724 367 LINE",
"722 367 LINE",
"720 368 LINE",
"723 372 LINE"
);
},
{
closed = 1;
nodes = (
"711 364 LINE",
"703 357 OFFCURVE",
"693 354 OFFCURVE",
"683 353 CURVE",
"683 355 LINE",
"688 364 LINE",
"706 364 LINE"
);
},
{
closed = 1;
nodes = (
"755 271 LINE",
"747 271 LINE",
"743 272 LINE",
"749 276 LINE"
);
},
{
closed = 1;
nodes = (
"674 345 LINE",
"668 337 OFFCURVE",
"661 329 OFFCURVE",
"654 322 CURVE",
"643 318 LINE",
"633 320 LINE",
"643 328 LINE",
"650 326 LINE",
"652 328 LINE",
"647 333 LINE",
"655 338 LINE",
"656 349 LINE",
"661 348 OFFCURVE",
"668 348 OFFCURVE",
"673 346 CURVE"
);
},
{
closed = 1;
nodes = (
"594 386 LINE",
"588 378 LINE",
"581 382 LINE",
"593 391 LINE"
);
},
{
closed = 1;
nodes = (
"635 332 LINE",
"616 328 LINE",
"624 336 LINE"
);
},
{
closed = 1;
nodes = (
"567 454 LINE",
"556 445 LINE",
"559 438 LINE",
"551 430 OFFCURVE",
"548 418 OFFCURVE",
"547 407 CURVE",
"539 406 OFFCURVE",
"538 398 OFFCURVE",
"538 391 CURVE SMOOTH",
"538 387 LINE",
"520 344 LINE",
"520 342 LINE",
"523 335 LINE",
"523 325 OFFCURVE",
"508 322 OFFCURVE",
"508 310 CURVE SMOOTH",
"508 276 OFFCURVE",
"515 287 OFFCURVE",
"496 256 CURVE",
"452 254 OFFCURVE",
"308 237 OFFCURVE",
"278 211 CURVE",
"260 215 OFFCURVE",
"247 208 OFFCURVE",
"231 201 CURVE",
"213 201 OFFCURVE",
"195 202 OFFCURVE",
"177 203 CURVE",
"184 211 OFFCURVE",
"188 218 OFFCURVE",
"191 227 CURVE",
"195 231 OFFCURVE",
"200 235 OFFCURVE",
"205 238 CURVE",
"223 238 OFFCURVE",
"228 256 OFFCURVE",
"237 267 CURVE SMOOTH",
"275 313 OFFCURVE",
"491 428 OFFCURVE",
"555 463 CURVE"
);
},
{
closed = 1;
nodes = (
"514 108 LINE",
"506 107 LINE",
"508 113 LINE"
);
},
{
closed = 1;
nodes = (
"502 100 LINE",
"495 102 LINE",
"498 109 LINE"
);
},
{
closed = 1;
nodes = (
"801 414 LINE",
"797 416 LINE",
"796 415 LINE",
"799 412 LINE"
);
}
);
};
layerId = "01BDBA83-373F-4081-A4FB-32E4C1670F2F";
paths = (
{
closed = 1;
nodes = (
"-11 -104 OFFCURVE",
"134 0 OFFCURVE",
"213 75 CURVE",
"212 76 LINE",
"235 94 LINE",
"237 94 LINE",
"247 104 LINE",
"246 104 LINE",
"256 112 LINE",
"274 112 LINE",
"279 115 LINE",
"283 106 LINE",
"294 105 LINE SMOOTH",
"302 104 OFFCURVE",
"308 110 OFFCURVE",
"314 113 CURVE SMOOTH",
"324 119 OFFCURVE",
"381 130 OFFCURVE",
"382 139 CURVE",
"416 138 LINE",
"420 125 LINE",
"418 117 LINE",
"412 109 LINE",
"412 101 OFFCURVE",
"409 93 OFFCURVE",
"405 85 CURVE",
"397 53 OFFCURVE",
"389 21 OFFCURVE",
"382 -12 CURVE",
"385 -18 LINE",
"385 -24 OFFCURVE",
"382 -31 OFFCURVE",
"376 -34 CURVE",
"381 -57 LINE",
"387 -60 OFFCURVE",
"394 -63 OFFCURVE",
"401 -65 CURVE",
"409 -62 OFFCURVE",
"416 -66 OFFCURVE",
"422 -68 CURVE",
"435 -65 OFFCURVE",
"447 -65 OFFCURVE",
"461 -68 CURVE",
"467 -60 LINE",
"467 -23 OFFCURVE",
"465 13 OFFCURVE",
"472 50 CURVE",
"460 45 LINE",
"459 44 LINE",
"468 94 LINE",
"485 141 LINE",
"483 175 LINE SMOOTH",
"482 194 OFFCURVE",
"517 289 OFFCURVE",
"529 306 CURVE",
"534 305 LINE",
"541 309 LINE",
"544 322 LINE",
"531 329 LINE",
"535 340 LINE",
"545 346 LINE SMOOTH",
"551 349 OFFCURVE",
"553 355 OFFCURVE",
"553 361 CURVE",
"559 358 LINE",
"567 368 LINE",
"574 362 LINE",
"580 364 OFFCURVE",
"592 367 OFFCURVE",
"594 374 CURVE",
"582 374 LINE SMOOTH",
"573 374 OFFCURVE",
"564 373 OFFCURVE",
"556 375 CURVE",
"559 383 OFFCURVE",
"564 391 OFFCURVE",
"571 394 CURVE",
"580 393 OFFCURVE",
"587 390 OFFCURVE",
"593 385 CURVE",
"598 390 LINE",
"604 383 LINE",
"609 396 OFFCURVE",
"614 409 OFFCURVE",
"618 423 CURVE",
"609 437 LINE",
"586 448 OFFCURVE",
"561 453 OFFCURVE",
"537 464 CURVE",
"521 463 OFFCURVE",
"513 410 OFFCURVE",
"510 397 CURVE",
"504 397 OFFCURVE",
"487 334 OFFCURVE",
"481 322 CURVE",
"481 318 LINE",
"466 281 OFFCURVE",
"453 243 OFFCURVE",
"445 204 CURVE",
"436 194 LINE",
"437 183 LINE",
"421 157 LINE",
"377 155 OFFCURVE",
"333 150 OFFCURVE",
"290 147 CURVE",
"290 148 LINE",
"298 153 LINE",
"301 153 LINE",
"306 162 OFFCURVE",
"320 185 OFFCURVE",
"331 185 CURVE SMOOTH",
"332 185 LINE",
"372 232 OFFCURVE",
"418 275 OFFCURVE",
"449 329 CURVE SMOOTH",
"458 346 OFFCURVE",
"463 364 OFFCURVE",
"474 379 CURVE",
"474 377 LINE",
"494 420 OFFCURVE",
"511 446 OFFCURVE",
"509 496 CURVE SMOOTH",
"508 521 LINE SMOOTH",
"508 522 OFFCURVE",
"505 523 OFFCURVE",
"503 523 CURVE SMOOTH",
"491 523 OFFCURVE",
"461 499 OFFCURVE",
"461 487 CURVE",
"466 480 OFFCURVE",
"470 467 OFFCURVE",
"470 458 CURVE SMOOTH",
"470 455 OFFCURVE",
"466 446 OFFCURVE",
"465 444 CURVE",
"465 445 LINE",
"454 418 OFFCURVE",
"451 385 OFFCURVE",
"434 360 CURVE",
"433 361 LINE",
"431 358 LINE",
"413 306 OFFCURVE",
"295 191 OFFCURVE",
"252 148 CURVE",
"238 148 OFFCURVE",
"223 148 OFFCURVE",
"213 139 CURVE",
"204 142 LINE",
"194 139 LINE",
"178 139 OFFCURVE",
"162 139 OFFCURVE",
"146 141 CURVE",
"144 147 LINE",
"130 147 OFFCURVE",
"109 122 OFFCURVE",
"109 109 CURVE SMOOTH",
"109 92 OFFCURVE",
"130 85 OFFCURVE",
"144 85 CURVE SMOOTH",
"156 85 OFFCURVE",
"163 101 OFFCURVE",
"170 108 CURVE",
"189 110 OFFCURVE",
"206 117 OFFCURVE",
"224 121 CURVE",
"188 85 OFFCURVE",
"26 -58 OFFCURVE",
"-15 -59 CURVE",
"-21 -56 LINE",
"-16 -47 LINE",
"-3 -40 OFFCURVE",
"13 -23 OFFCURVE",
"23 -12 CURVE",
"21 -12 LINE",
"-14 -28 OFFCURVE",
"-49 -40 OFFCURVE",
"-85 -49 CURVE",
"-91 -54 LINE",
"-99 -55 LINE",
"-109 -64 LINE",
"-111 -64 LINE",
"-123 -56 LINE",
"-134 -93 LINE",
"-128 -104 OFFCURVE",
"-130 -121 OFFCURVE",
"-117 -128 CURVE"
);
},
{
closed = 1;
nodes = (
"43 -5 LINE",
"44 -4 LINE",
"43 0 LINE",
"40 1 LINE",
"38 -5 LINE"
);
},
{
closed = 1;
nodes = (
"520 313 LINE",
"530 320 LINE",
"531 317 LINE",
"526 310 LINE"
);
},
{
closed = 1;
nodes = (
"561 321 LINE",
"568 331 LINE",
"571 321 LINE",
"565 320 LINE"
);
},
{
closed = 1;
nodes = (
"871 76 LINE",
"876 82 LINE",
"880 81 LINE",
"880 82 LINE",
"898 102 LINE",
"888 102 LINE",
"883 97 OFFCURVE",
"876 94 OFFCURVE",
"868 93 CURVE",
"872 91 LINE",
"864 94 OFFCURVE",
"859 87 OFFCURVE",
"859 79 CURVE",
"864 75 LINE"
);
},
{
closed = 1;
nodes = (
"631 -32 LINE",
"630 -29 LINE",
"701 -32 OFFCURVE",
"796 16 OFFCURVE",
"847 64 CURVE",
"846 66 LINE",
"851 76 LINE",
"857 73 LINE",
"850 86 LINE",
"837 76 LINE",
"823 73 LINE",
"823 69 LINE",
"820 66 LINE",
"815 69 LINE",
"808 69 OFFCURVE",
"801 68 OFFCURVE",
"796 65 CURVE",
"796 63 LINE",
"786 58 OFFCURVE",
"774 54 OFFCURVE",
"761 54 CURVE",
"712 35 OFFCURVE",
"659 21 OFFCURVE",
"606 21 CURVE SMOOTH",
"557 21 OFFCURVE",
"513 37 OFFCURVE",
"513 93 CURVE SMOOTH",
"513 116 OFFCURVE",
"520 139 OFFCURVE",
"528 160 CURVE",
"534 159 LINE",
"542 170 LINE",
"553 158 LINE",
"553 166 OFFCURVE",
"557 178 OFFCURVE",
"566 178 CURVE",
"579 173 LINE",
"582 173 LINE SMOOTH",
"624 173 OFFCURVE",
"658 204 OFFCURVE",
"700 204 CURVE SMOOTH",
"706 204 LINE",
"711 197 LINE",
"724 205 LINE",
"741 201 LINE",
"744 203 LINE",
"743 209 LINE",
"751 213 LINE",
"764 212 OFFCURVE",
"776 207 OFFCURVE",
"788 207 CURVE SMOOTH",
"801 207 OFFCURVE",
"810 217 OFFCURVE",
"823 217 CURVE SMOOTH",
"832 217 OFFCURVE",
"841 211 OFFCURVE",
"851 211 CURVE SMOOTH",
"856 211 OFFCURVE",
"862 214 OFFCURVE",
"867 217 CURVE",
"880 221 LINE",
"874 226 LINE",
"843 228 OFFCURVE",
"814 229 OFFCURVE",
"783 229 CURVE SMOOTH",
"733 229 OFFCURVE",
"685 221 OFFCURVE",
"636 221 CURVE SMOOTH",
"610 221 OFFCURVE",
"584 223 OFFCURVE",
"558 222 CURVE",
"613 308 OFFCURVE",
"813 429 OFFCURVE",
"914 429 CURVE SMOOTH",
"927 429 OFFCURVE",
"942 427 OFFCURVE",
"950 418 CURVE",
"951 412 OFFCURVE",
"953 406 OFFCURVE",
"953 400 CURVE SMOOTH",
"953 397 OFFCURVE",
"949 388 OFFCURVE",
"949 384 CURVE",
"939 373 LINE",
"937 346 OFFCURVE",
"920 320 OFFCURVE",
"918 295 CURVE",
"922 288 LINE",
"918 263 LINE",
"918 262 LINE",
"947 264 OFFCURVE",
"966 297 OFFCURVE",
"985 315 CURVE",
"1003 315 OFFCURVE",
"1000 343 OFFCURVE",
"1006 354 CURVE",
"1005 359 LINE",
"1009 361 LINE",
"1018 357 LINE",
"1020 360 LINE",
"1018 365 LINE",
"1020 369 LINE",
"1011 385 LINE",
"1012 387 LINE",
"1042 375 OFFCURVE",
"1019 416 OFFCURVE",
"1040 422 CURVE",
"1049 418 LINE",
"1072 427 LINE",
"1076 445 LINE",
"1071 458 OFFCURVE",
"980 484 OFFCURVE",
"964 484 CURVE",
"959 481 LINE",
"965 472 OFFCURVE",
"965 462 OFFCURVE",
"965 451 CURVE SMOOTH",
"965 443 OFFCURVE",
"964 429 OFFCURVE",
"952 429 CURVE SMOOTH",
"923 429 OFFCURVE",
"896 445 OFFCURVE",
"867 445 CURVE SMOOTH",
"851 445 OFFCURVE",
"837 438 OFFCURVE",
"823 433 CURVE",
"798 435 OFFCURVE",
"774 428 OFFCURVE",
"750 422 CURVE",
"742 415 LINE",
"709 409 OFFCURVE",
"683 380 OFFCURVE",
"651 372 CURVE",
"641 376 LINE",
"635 365 OFFCURVE",
"625 355 OFFCURVE",
"612 355 CURVE",
"608 358 LINE",
"600 353 LINE",
"598 344 OFFCURVE",
"590 334 OFFCURVE",
"580 334 CURVE SMOOTH",
"544 334 OFFCURVE",
"566 305 OFFCURVE",
"547 305 CURVE SMOOTH",
"523 305 OFFCURVE",
"481 247 OFFCURVE",
"466 229 CURVE",
"446 229 OFFCURVE",
"436 171 OFFCURVE",
"436 156 CURVE SMOOTH",
"436 82 OFFCURVE",
"497 18 OFFCURVE",
"559 -13 CURVE",
"570 -12 OFFCURVE",
"580 -17 OFFCURVE",
"585 -28 CURVE",
"598 -24 LINE",
"607 -28 LINE",
"616 -29 LINE",
"626 -36 LINE"
);
},
{
closed = 1;
nodes = (
"574 407 LINE",
"576 409 LINE",
"578 409 LINE",
"577 406 LINE"
);
},
{
closed = 1;
nodes = (
"911 108 OFFCURVE",
"916 112 OFFCURVE",
"920 117 CURVE",
"913 116 OFFCURVE",
"907 114 OFFCURVE",
"902 111 CURVE",
"902 109 LINE",
"906 105 LINE"
);
},
{
closed = 1;
nodes = (
"895 220 LINE",
"887 224 LINE",
"886 220 LINE",
"888 219 LINE"
);
}
);
width = 899;
}
);
note = AE;
unicode = 00C6;
},
{
glyphname = B;
lastChange = "2021-11-19 01:29:12 +0000";
layers = (
{
layerId = "01BDBA83-373F-4081-A4FB-32E4C1670F2F";
paths = (
{
closed = 1;
nodes = (
"327 -44 OFFCURVE",
"329 -35 OFFCURVE",
"336 -29 CURVE",
"336 8 OFFCURVE",
"384 40 OFFCURVE",
"415 51 CURVE",
"418 45 LINE",
"445 49 OFFCURVE",
"471 52 OFFCURVE",
"496 67 CURVE",
"498 66 LINE",
"520 88 LINE",
"523 99 OFFCURVE",
"533 107 OFFCURVE",
"533 118 CURVE SMOOTH",
"533 170 OFFCURVE",
"514 176 OFFCURVE",
"473 199 CURVE",
"474 204 LINE",
"484 205 LINE",
"492 202 LINE",
"503 207 LINE",
"510 207 LINE",
"510 205 LINE",
"538 208 OFFCURVE",
"544 202 OFFCURVE",
"568 220 CURVE",
"568 214 LINE",
"608 226 LINE",
"612 222 LINE",
"614 222 LINE",
"614 227 LINE",
"627 226 LINE",
"692 243 OFFCURVE",
"715 249 OFFCURVE",
"724 326 CURVE",
"717 335 OFFCURVE",
"715 346 OFFCURVE",
"713 356 CURVE",
"699 369 OFFCURVE",
"651 415 OFFCURVE",
"634 415 CURVE",
"630 414 LINE",
"587 427 LINE",
"588 427 LINE SMOOTH",
"570 426 OFFCURVE",
"490 437 OFFCURVE",
"483 454 CURVE",
"466 454 OFFCURVE",
"452 466 OFFCURVE",
"435 466 CURVE SMOOTH",
"418 466 OFFCURVE",
"413 446 OFFCURVE",
"403 436 CURVE",
"394 436 OFFCURVE",
"385 435 OFFCURVE",
"376 435 CURVE",
"367 431 LINE",
"366 430 LINE",
"339 431 LINE",
"338 428 LINE",
"330 425 LINE",
"315 425 LINE",
"314 426 LINE",
"312 427 LINE",
"314 425 LINE",
"309 427 LINE",
"306 422 LINE",
"301 421 LINE",
"301 422 OFFCURVE",
"297 424 OFFCURVE",
"297 422 CURVE",
"299 421 LINE",
"293 422 LINE",
"293 421 LINE",
"278 416 LINE",
"278 418 LINE",
"266 413 OFFCURVE",
"254 410 OFFCURVE",
"241 407 CURVE",
"241 409 LINE",
"230 406 OFFCURVE",
"220 400 OFFCURVE",
"210 400 CURVE SMOOTH",
"206 400 OFFCURVE",
"201 401 OFFCURVE",
"198 402 CURVE",
"198 404 LINE",
"129 371 OFFCURVE",
"53 345 OFFCURVE",
"3 283 CURVE",
"3 267 OFFCURVE",
"16 256 OFFCURVE",
"22 242 CURVE",
"55 225 LINE",
"54 243 LINE",
"55 245 LINE",
"67 247 LINE",
"70 254 LINE",
"77 256 LINE",
"100 281 OFFCURVE",
"123 304 OFFCURVE",
"152 324 CURVE",
"153 326 LINE",
"139 321 LINE",
"129 321 OFFCURVE",
"118 321 OFFCURVE",
"109 316 CURVE",
"102 319 LINE",
"105 356 OFFCURVE",
"332 399 OFFCURVE",
"366 400 CURVE",
"366 397 LINE",
"328 348 OFFCURVE",
"288 300 OFFCURVE",
"261 244 CURVE SMOOTH",
"255 231 OFFCURVE",
"252 217 OFFCURVE",
"241 207 CURVE",
"241 180 OFFCURVE",
"206 142 OFFCURVE",
"211 116 CURVE",
"208 110 LINE",
"208 109 LINE",
"213 112 LINE",
"220 112 LINE",
"220 109 LINE",
"211 92 LINE",
"218 82 LINE",
"208 55 LINE",
"208 46 OFFCURVE",
"212 37 OFFCURVE",
"217 30 CURVE",
"217 24 LINE",
"220 22 LINE",
"224 4 OFFCURVE",
"240 -27 OFFCURVE",
"256 -37 CURVE",
"279 -40 LINE",
"281 -38 LINE",
"281 -37 LINE",
"274 -28 LINE",
"273 -28 LINE",
"267 -14 LINE",
"267 17 OFFCURVE",
"276 131 OFFCURVE",
"297 150 CURVE",
"298 158 OFFCURVE",
"301 166 OFFCURVE",
"303 173 CURVE",
"309 175 LINE",
"310 183 LINE",
"314 186 OFFCURVE",
"320 192 OFFCURVE",
"327 192 CURVE SMOOTH",
"329 192 OFFCURVE",
"336 188 OFFCURVE",
"338 188 CURVE",
"339 186 LINE",
"338 186 LINE",
"347 174 LINE",
"349 176 LINE",
"354 174 LINE",
"354 173 LINE",
"355 173 LINE",
"354 177 LINE",
"364 175 LINE",
"367 176 LINE",
"366 170 LINE",
"375 170 OFFCURVE",
"385 174 OFFCURVE",
"394 171 CURVE",
"395 170 LINE",
"395 171 LINE",
"398 175 LINE",
"402 171 LINE",
"407 170 LINE",
"407 175 LINE",
"409 175 LINE",
"419 171 LINE",
"427 171 OFFCURVE",
"434 172 OFFCURVE",
"441 174 CURVE",
"441 175 LINE",
"440 176 LINE",
"444 176 LINE",
"444 174 LINE",
"448 167 LINE",
"460 163 OFFCURVE",
"484 158 OFFCURVE",
"484 143 CURVE SMOOTH",
"484 104 OFFCURVE",
"316 51 OFFCURVE",
"316 -25 CURVE SMOOTH",
"316 -34 OFFCURVE",
"319 -43 OFFCURVE",
"323 -50 CURVE",
"327 -52 LINE"
);
},
{
closed = 1;
nodes = (
"175 328 LINE",
"176 329 LINE",
"175 333 LINE",
"173 335 LINE",
"170 328 LINE"
);
},
{
closed = 1;
nodes = (
"328 213 LINE",
"329 214 LINE",
"327 219 LINE",
"328 226 LINE",
"341 242 OFFCURVE",
"348 276 OFFCURVE",
"367 284 CURVE",
"367 294 LINE",
"382 327 OFFCURVE",
"435 387 OFFCURVE",
"462 411 CURVE",
"476 409 OFFCURVE",
"490 409 OFFCURVE",
"505 409 CURVE SMOOTH",
"517 409 LINE",
"526 403 LINE",
"537 403 OFFCURVE",
"543 407 OFFCURVE",
"553 402 CURVE",
"556 402 LINE",
"556 403 LINE",
"585 401 OFFCURVE",
"609 381 OFFCURVE",
"635 372 CURVE",
"634 373 LINE",
"650 371 OFFCURVE",
"657 354 OFFCURVE",
"663 342 CURVE",
"662 324 LINE",
"630 292 LINE",
"632 291 LINE",
"613 282 OFFCURVE",
"594 274 OFFCURVE",
"574 268 CURVE",
"572 266 LINE",
"557 262 OFFCURVE",
"539 260 OFFCURVE",
"525 253 CURVE",
"510 253 OFFCURVE",
"496 250 OFFCURVE",
"483 244 CURVE",
"466 244 OFFCURVE",
"446 238 OFFCURVE",
"428 236 CURVE",
"425 232 LINE",
"421 232 LINE",
"421 231 LINE",
"394 225 LINE",
"393 222 LINE",
"377 217 OFFCURVE",
"350 206 OFFCURVE",
"334 206 CURVE"
);
}
);
width = 608;
}
);
note = B;
unicode = 0042;
},
{
glyphname = C;
lastChange = "2021-11-19 01:29:12 +0000";
layers = (
{
anchors = (
{
name = bottom;
position = "{157, -17}";
},
{
name = top;
position = "{513, 480}";
}
);
layerId = "01BDBA83-373F-4081-A4FB-32E4C1670F2F";
paths = (
{
closed = 1;
nodes = (
"208 -32 LINE",
"207 -29 LINE",
"278 -32 OFFCURVE",
"373 16 OFFCURVE",
"424 64 CURVE",
"423 66 LINE",
"428 76 LINE",
"434 73 LINE",
"427 86 LINE",
"414 76 LINE",
"400 73 LINE",
"400 69 LINE",
"397 66 LINE",
"392 69 LINE",
"373 65 LINE",
"373 63 LINE",
"363 58 OFFCURVE",
"351 54 OFFCURVE",
"338 54 CURVE",
"289 35 OFFCURVE",
"236 21 OFFCURVE",
"183 21 CURVE SMOOTH",
"134 21 OFFCURVE",
"90 37 OFFCURVE",
"90 93 CURVE SMOOTH",
"90 250 OFFCURVE",
"346 429 OFFCURVE",
"491 429 CURVE SMOOTH",
"504 429 OFFCURVE",
"519 427 OFFCURVE",
"527 418 CURVE",
"528 412 OFFCURVE",
"530 406 OFFCURVE",
"530 400 CURVE SMOOTH",
"530 397 OFFCURVE",
"526 388 OFFCURVE",
"526 384 CURVE",
"516 373 LINE",
"513 345 OFFCURVE",
"506 322 OFFCURVE",
"495 295 CURVE",
"499 288 LINE",
"495 263 LINE",
"495 262 LINE",
"524 264 OFFCURVE",
"543 297 OFFCURVE",
"562 315 CURVE",
"580 315 OFFCURVE",
"578 343 OFFCURVE",
"583 354 CURVE",
"582 359 LINE",
"586 361 LINE",
"595 357 LINE",
"597 360 LINE",
"595 365 LINE",
"597 369 LINE",
"588 385 LINE",
"589 387 LINE",
"619 374 OFFCURVE",
"596 416 OFFCURVE",
"617 422 CURVE",
"626 418 LINE",
"649 427 LINE",
"653 445 LINE",
"647 457 OFFCURVE",
"557 484 OFFCURVE",
"541 484 CURVE",
"536 481 LINE",
"542 472 OFFCURVE",
"542 462 OFFCURVE",
"542 451 CURVE SMOOTH",
"542 443 OFFCURVE",
"541 429 OFFCURVE",
"529 429 CURVE SMOOTH",
"500 429 OFFCURVE",
"473 445 OFFCURVE",
"444 445 CURVE SMOOTH",
"428 445 OFFCURVE",
"414 438 OFFCURVE",
"400 433 CURVE",
"375 435 OFFCURVE",
"351 428 OFFCURVE",
"327 422 CURVE",
"319 415 LINE",
"285 409 OFFCURVE",
"261 381 OFFCURVE",
"228 372 CURVE",
"218 376 LINE",
"212 365 OFFCURVE",
"202 355 OFFCURVE",
"189 355 CURVE",
"185 358 LINE",
"177 353 LINE",
"175 344 OFFCURVE",
"167 334 OFFCURVE",
"157 334 CURVE SMOOTH",
"121 334 OFFCURVE",
"143 305 OFFCURVE",
"124 305 CURVE SMOOTH",
"100 305 OFFCURVE",
"58 247 OFFCURVE",
"43 229 CURVE",
"22 229 OFFCURVE",
"13 171 OFFCURVE",
"13 156 CURVE SMOOTH",
"13 83 OFFCURVE",
"74 18 OFFCURVE",
"136 -13 CURVE",
"147 -12 OFFCURVE",
"157 -17 OFFCURVE",
"162 -28 CURVE",
"175 -24 LINE",
"184 -28 LINE",
"193 -29 LINE",
"203 -36 LINE"
);
},
{
closed = 1;
nodes = (
"448 76 LINE",
"453 82 LINE",
"457 81 LINE",
"457 82 LINE",
"475 102 LINE",
"465 102 LINE",
"460 97 OFFCURVE",
"453 94 OFFCURVE",
"445 93 CURVE",
"449 91 LINE",
"441 94 OFFCURVE",
"436 87 OFFCURVE",
"436 79 CURVE",
"441 75 LINE"
);
},
{
closed = 1;
nodes = (
"488 108 OFFCURVE",
"493 112 OFFCURVE",
"497 117 CURVE",
"490 116 OFFCURVE",
"484 114 OFFCURVE",
"479 111 CURVE",
"479 109 LINE",
"483 105 LINE"
);
},
{
closed = 1;
nodes = (
"490 251 LINE",
"484 256 LINE",
"481 240 LINE"
);
}
);
width = 463;
}
);
note = C;
unicode = 0043;
},
{
glyphname = D;
lastChange = "2021-11-19 01:29:12 +0000";
layers = (
{
layerId = "01BDBA83-373F-4081-A4FB-32E4C1670F2F";
paths = (
{
closed = 1;
nodes = (
"253 -66 LINE",
"253 -65 LINE",
"247 -56 LINE",
"246 -56 LINE",
"239 -41 LINE",
"240 -16 LINE",
"248 -20 LINE",
"276 -20 OFFCURVE",
"300 -4 OFFCURVE",
"327 -1 CURVE",
"332 3 OFFCURVE",
"338 5 OFFCURVE",
"345 8 CURVE",
"356 3 LINE",
"360 4 LINE",
"360 13 LINE",
"363 17 OFFCURVE",
"369 20 OFFCURVE",
"373 21 CURVE",
"373 25 LINE",
"382 21 LINE",
"395 31 LINE",
"401 28 LINE",
"393 24 OFFCURVE",
"386 20 OFFCURVE",
"378 14 CURVE",
"384 13 LINE",
"395 17 LINE",
"411 13 LINE",
"414 13 LINE",
"414 14 LINE",
"408 20 LINE",
"401 20 LINE",
"400 21 LINE",
"417 29 LINE",
"422 25 LINE",
"433 33 LINE",
"445 27 LINE",
"446 27 LINE",
"457 39 LINE",
"462 38 OFFCURVE",
"466 30 OFFCURVE",
"468 27 CURVE",
"473 36 LINE",
"480 31 LINE",
"490 38 OFFCURVE",
"500 44 OFFCURVE",
"511 50 CURVE",
"513 50 LINE",
"513 43 OFFCURVE",
"530 57 OFFCURVE",
"531 58 CURVE",
"530 66 LINE",
"535 71 LINE",
"542 70 OFFCURVE",
"563 67 OFFCURVE",
"563 78 CURVE",
"562 84 LINE",
"564 87 LINE",
"573 78 LINE",
"587 100 OFFCURVE",
"604 101 OFFCURVE",
"619 118 CURVE",
"642 128 OFFCURVE",
"663 158 OFFCURVE",
"684 164 CURVE",
"706 184 OFFCURVE",
"728 210 OFFCURVE",
"737 240 CURVE",
"729 249 LINE",
"729 251 LINE",
"734 255 LINE",
"740 253 LINE",
"743 269 OFFCURVE",
"746 286 OFFCURVE",
"746 303 CURVE SMOOTH",
"746 380 OFFCURVE",
"597 452 OFFCURVE",
"531 452 CURVE",
"520 447 LINE",
"515 452 OFFCURVE",
"508 457 OFFCURVE",
"499 457 CURVE SMOOTH",
"493 456 LINE",
"490 452 OFFCURVE",
"485 448 OFFCURVE",
"480 446 CURVE",
"470 448 LINE",
"480 455 OFFCURVE",
"495 466 OFFCURVE",
"495 481 CURVE",
"485 506 OFFCURVE",
"466 503 OFFCURVE",
"442 503 CURVE SMOOTH",
"426 503 OFFCURVE",
"392 463 OFFCURVE",
"382 451 CURVE",
"328 445 OFFCURVE",
"274 432 OFFCURVE",
"222 417 CURVE",
"204 400 OFFCURVE",
"107 372 OFFCURVE",
"74 351 CURVE",
"85 371 LINE",
"75 363 OFFCURVE",
"52 345 OFFCURVE",
"52 330 CURVE SMOOTH",
"52 320 OFFCURVE",
"81 283 OFFCURVE",
"92 283 CURVE SMOOTH",
"103 283 OFFCURVE",
"114 284 OFFCURVE",
"121 294 CURVE",
"152 298 OFFCURVE",
"177 325 OFFCURVE",
"208 327 CURVE",
"204 334 OFFCURVE",
"199 341 OFFCURVE",
"193 345 CURVE",
"199 347 LINE",
"197 354 LINE",
"206 360 LINE",
"210 351 LINE",
"214 357 OFFCURVE",
"216 364 OFFCURVE",
"216 372 CURVE",
"215 376 LINE",
"209 371 LINE",
"205 373 LINE",
"189 362 LINE",
"186 367 LINE",
"186 383 OFFCURVE",
"302 403 OFFCURVE",
"322 416 CURVE",
"337 416 OFFCURVE",
"348 421 OFFCURVE",
"362 425 CURVE",
"326 380 OFFCURVE",
"293 332 OFFCURVE",
"268 282 CURVE SMOOTH",
"256 259 OFFCURVE",
"229 193 OFFCURVE",
"213 179 CURVE",
"213 153 OFFCURVE",
"178 113 OFFCURVE",
"184 88 CURVE",
"180 82 LINE",
"180 81 LINE",
"185 85 LINE",
"193 84 LINE",
"193 81 LINE",
"184 64 LINE",
"191 54 LINE",
"180 27 LINE",
"180 18 OFFCURVE",
"184 9 OFFCURVE",
"189 2 CURVE",
"189 -5 LINE",
"157 -12 OFFCURVE",
"97 -21 OFFCURVE",
"66 -14 CURVE",
"61 -16 LINE",
"45 -16 OFFCURVE",
"14 -5 OFFCURVE",
"14 14 CURVE SMOOTH",
"14 35 OFFCURVE",
"40 49 OFFCURVE",
"55 58 CURVE",
"57 60 LINE",
"29 56 OFFCURVE",
"-3 36 OFFCURVE",
"-3 4 CURVE SMOOTH",
"-3 -31 OFFCURVE",
"41 -45 OFFCURVE",
"71 -45 CURVE SMOOTH",
"80 -45 OFFCURVE",
"87 -41 OFFCURVE",
"96 -41 CURVE SMOOTH",
"112 -41 OFFCURVE",
"128 -46 OFFCURVE",
"143 -46 CURVE SMOOTH",
"174 -46 OFFCURVE",
"159 -23 OFFCURVE",
"193 -20 CURVE SMOOTH",
"198 -20 LINE",
"204 -36 OFFCURVE",
"212 -55 OFFCURVE",
"228 -65 CURVE",
"252 -68 LINE"
);
},
{
closed = 1;
nodes = (
"409 37 LINE",
"414 40 OFFCURVE",
"418 43 OFFCURVE",
"424 45 CURVE",
"428 43 LINE",
"424 39 OFFCURVE",
"418 35 OFFCURVE",
"413 33 CURVE"
);
},
{
closed = 1;
nodes = (
"244 32 OFFCURVE",
"256 108 OFFCURVE",
"270 123 CURVE",
"274 153 OFFCURVE",
"327 247 OFFCURVE",
"327 264 CURVE",
"331 261 LINE",
"333 269 LINE",
"352 301 LINE",
"349 304 LINE",
"351 312 LINE",
"364 329 OFFCURVE",
"370 361 OFFCURVE",
"390 371 CURVE",
"390 381 LINE",
"398 388 LINE",
"432 387 OFFCURVE",
"428 413 OFFCURVE",
"448 433 CURVE",
"528 432 OFFCURVE",
"707 418 OFFCURVE",
"707 306 CURVE SMOOTH",
"707 224 OFFCURVE",
"576 182 OFFCURVE",
"567 160 CURVE",
"573 158 LINE",
"574 156 LINE",
"562 147 LINE",
"557 151 LINE",
"554 147 LINE",
"555 143 LINE",
"550 142 LINE",
"545 143 LINE",
"448 90 OFFCURVE",
"347 42 OFFCURVE",
"241 10 CURVE"
);
}
);
width = 643;
}
);
note = D;
unicode = 0044;
},
{
glyphname = Eth;
lastChange = "2021-11-19 01:29:12 +0000";
layers = (
{
layerId = "01BDBA83-373F-4081-A4FB-32E4C1670F2F";
paths = (
{
closed = 1;
nodes = (
"28 -49 OFFCURVE",
"39 -41 OFFCURVE",
"51 -41 CURVE SMOOTH",
"130 -41 OFFCURVE",
"203 -10 OFFCURVE",
"274 21 CURVE",
"263 26 LINE",
"282 37 LINE",
"283 31 LINE",
"282 25 LINE",
"290 25 OFFCURVE",
"299 24 OFFCURVE",
"307 22 CURVE",
"324 40 LINE",
"352 40 LINE",
"352 49 OFFCURVE",
"390 64 OFFCURVE",
"398 68 CURVE SMOOTH",
"443 92 OFFCURVE",
"484 123 OFFCURVE",
"520 159 CURVE",
"519 166 LINE",
"512 163 OFFCURVE",
"507 158 OFFCURVE",
"500 154 CURVE",
"499 157 LINE",
"502 171 OFFCURVE",
"526 174 OFFCURVE",
"537 176 CURVE",
"530 188 LINE",
"552 205 LINE",
"553 202 LINE",
"547 191 LINE",
"564 202 OFFCURVE",
"581 213 OFFCURVE",
"598 226 CURVE",
"606 246 OFFCURVE",
"647 275 OFFCURVE",
"664 290 CURVE",
"674 315 OFFCURVE",
"706 362 OFFCURVE",
"706 386 CURVE SMOOTH",
"706 403 OFFCURVE",
"704 419 OFFCURVE",
"701 436 CURVE",
"690 437 OFFCURVE",
"688 445 OFFCURVE",
"688 454 CURVE",
"677 463 OFFCURVE",
"656 473 OFFCURVE",
"653 488 CURVE",
"594 512 LINE",
"558 512 OFFCURVE",
"524 524 OFFCURVE",
"488 526 CURVE",
"479 515 LINE",
"480 502 LINE",
"495 503 OFFCURVE",
"511 506 OFFCURVE",
"524 515 CURVE",
"522 501 LINE",
"537 500 LINE SMOOTH",
"544 500 OFFCURVE",
"552 503 OFFCURVE",
"558 508 CURVE",
"561 493 LINE",
"571 499 LINE",
"574 492 OFFCURVE",
"580 486 OFFCURVE",
"588 486 CURVE",
"601 492 LINE",
"612 480 LINE",
"621 490 LINE",
"615 464 OFFCURVE",
"642 461 OFFCURVE",
"659 453 CURVE",
"659 445 OFFCURVE",
"661 439 OFFCURVE",
"667 435 CURVE",
"668 427 OFFCURVE",
"669 418 OFFCURVE",
"669 410 CURVE",
"661 391 OFFCURVE",
"654 371 OFFCURVE",
"652 349 CURVE",
"644 332 OFFCURVE",
"622 335 OFFCURVE",
"618 310 CURVE",
"629 320 LINE",
"625 300 OFFCURVE",
"619 282 OFFCURVE",
"595 282 CURVE",
"580 260 LINE",
"569 264 LINE",
"562 249 OFFCURVE",
"532 234 OFFCURVE",
"517 233 CURVE",
"512 215 LINE",
"517 221 OFFCURVE",
"525 227 OFFCURVE",
"532 230 CURVE",
"535 223 LINE",
"501 191 LINE",
"493 191 OFFCURVE",
"485 189 OFFCURVE",
"478 185 CURVE",
"481 183 LINE",
"477 176 OFFCURVE",
"471 172 OFFCURVE",
"464 169 CURVE",
"461 175 LINE",
"450 171 OFFCURVE",
"440 166 OFFCURVE",
"431 160 CURVE",
"423 165 LINE",
"424 161 LINE",
"423 157 LINE",
"433 158 OFFCURVE",
"443 162 OFFCURVE",
"453 166 CURVE",
"453 164 LINE",
"444 151 LINE",
"445 150 LINE",
"449 152 LINE",
"441 145 OFFCURVE",
"432 139 OFFCURVE",
"423 135 CURVE",
"414 138 LINE",
"408 134 OFFCURVE",
"403 129 OFFCURVE",
"400 122 CURVE",
"373 112 OFFCURVE",
"348 97 OFFCURVE",
"322 85 CURVE",
"318 76 LINE",
"307 77 OFFCURVE",
"297 80 OFFCURVE",
"288 85 CURVE",
"295 73 LINE",
"292 73 LINE",
"284 68 OFFCURVE",
"276 64 OFFCURVE",
"268 58 CURVE",
"252 71 LINE",
"247 66 LINE",
"257 58 LINE",
"242 49 OFFCURVE",
"226 43 OFFCURVE",
"209 44 CURVE SMOOTH",
"184 45 LINE",
"198 38 LINE",
"192 34 OFFCURVE",
"185 30 OFFCURVE",
"181 24 CURVE",
"178 32 OFFCURVE",
"173 40 OFFCURVE",
"166 46 CURVE",
"170 35 OFFCURVE",
"153 27 OFFCURVE",
"147 22 CURVE",
"143 27 LINE",
"147 34 LINE",
"146 38 LINE",
"150 46 LINE",
"133 31 LINE",
"131 36 LINE",
"134 44 LINE",
"108 36 LINE",
"112 62 LINE",
"129 73 OFFCURVE",
"134 100 OFFCURVE",
"139 118 CURVE",
"151 133 OFFCURVE",
"162 149 OFFCURVE",
"171 166 CURVE",
"177 163 LINE",
"178 166 OFFCURVE",
"179 171 OFFCURVE",
"179 175 CURVE SMOOTH",
"178 180 LINE",
"218 200 OFFCURVE",
"185 248 OFFCURVE",
"272 248 CURVE SMOOTH",
"279 248 OFFCURVE",
"285 247 OFFCURVE",
"292 247 CURVE",
"299 254 OFFCURVE",
"308 260 OFFCURVE",
"319 260 CURVE SMOOTH",
"321 260 OFFCURVE",
"326 259 OFFCURVE",
"328 258 CURVE",
"342 272 OFFCURVE",
"358 283 OFFCURVE",
"377 287 CURVE",
"387 297 OFFCURVE",
"399 304 OFFCURVE",
"411 309 CURVE",
"402 319 LINE",
"395 319 OFFCURVE",
"388 320 OFFCURVE",
"381 320 CURVE SMOOTH",
"350 320 OFFCURVE",
"320 310 OFFCURVE",
"290 310 CURVE SMOOTH",
"279 310 LINE",
"283 327 LINE",
"288 329 OFFCURVE",
"293 331 OFFCURVE",
"299 332 CURVE",
"304 351 OFFCURVE",
"313 369 OFFCURVE",
"324 386 CURVE",
"319 400 OFFCURVE",
"343 412 OFFCURVE",
"355 413 CURVE",
"375 432 LINE",
"367 442 LINE",
"368 444 LINE",
"384 447 LINE",
"386 463 OFFCURVE",
"408 486 OFFCURVE",
"417 499 CURVE",
"420 490 LINE",
"426 497 OFFCURVE",
"433 503 OFFCURVE",
"443 503 CURVE SMOOTH",
"450 502 LINE",
"454 508 LINE",
"460 505 LINE",
"471 508 LINE",
"472 513 OFFCURVE",
"472 519 OFFCURVE",
"474 525 CURVE",
"455 535 LINE",
"455 543 OFFCURVE",
"449 546 OFFCURVE",
"445 553 CURVE",
"376 562 LINE",
"371 561 OFFCURVE",
"365 558 OFFCURVE",
"361 555 CURVE",
"366 552 OFFCURVE",
"371 546 OFFCURVE",
"373 540 CURVE",
"369 539 LINE",
"365 541 LINE",
"356 539 OFFCURVE",
"349 532 OFFCURVE",
"343 526 CURVE",
"286 526 OFFCURVE",
"229 522 OFFCURVE",
"175 501 CURVE",
"173 501 LINE",
"162 488 OFFCURVE",
"157 472 OFFCURVE",
"157 454 CURVE SMOOTH",
"157 447 OFFCURVE",
"159 440 OFFCURVE",
"161 434 CURVE",
"174 440 OFFCURVE",
"186 445 OFFCURVE",
"200 450 CURVE",
"207 456 OFFCURVE",
"214 463 OFFCURVE",
"221 468 CURVE",
"234 468 OFFCURVE",
"240 475 OFFCURVE",
"247 485 CURVE",
"258 487 OFFCURVE",
"270 491 OFFCURVE",
"280 499 CURVE",
"283 494 LINE",
"300 499 LINE",
"304 504 OFFCURVE",
"310 507 OFFCURVE",
"316 507 CURVE SMOOTH",
"324 507 OFFCURVE",
"331 501 OFFCURVE",
"337 496 CURVE",
"331 486 OFFCURVE",
"326 476 OFFCURVE",
"319 468 CURVE",
"326 471 LINE",
"330 469 LINE",
"326 462 OFFCURVE",
"321 454 OFFCURVE",
"318 445 CURVE",
"312 446 LINE",
"302 444 OFFCURVE",
"301 432 OFFCURVE",
"300 424 CURVE",
"286 417 LINE",
"288 406 OFFCURVE",
"286 394 OFFCURVE",
"278 386 CURVE",
"263 381 LINE",
"269 360 OFFCURVE",
"260 354 OFFCURVE",
"247 340 CURVE",
"246 323 OFFCURVE",
"231 311 OFFCURVE",
"218 303 CURVE",
"196 303 OFFCURVE",
"175 298 OFFCURVE",
"154 292 CURVE",
"153 296 LINE",
"130 294 OFFCURVE",
"105 292 OFFCURVE",
"82 293 CURVE",
"81 286 OFFCURVE",
"81 278 OFFCURVE",
"81 271 CURVE SMOOTH",
"81 257 OFFCURVE",
"80 222 OFFCURVE",
"101 222 CURVE SMOOTH",
"103 222 LINE",
"119 232 OFFCURVE",
"138 243 OFFCURVE",
"157 243 CURVE",
"169 238 LINE",
"163 232 OFFCURVE",
"157 225 OFFCURVE",
"152 217 CURVE",
"163 211 LINE",
"146 188 OFFCURVE",
"129 164 OFFCURVE",
"125 135 CURVE",
"119 132 OFFCURVE",
"114 127 OFFCURVE",
"111 121 CURVE",
"114 112 LINE",
"112 100 LINE",
"121 110 LINE",
"126 105 LINE",
"113 90 OFFCURVE",
"98 77 OFFCURVE",
"82 66 CURVE",
"81 56 OFFCURVE",
"78 47 OFFCURVE",
"76 38 CURVE",
"80 35 LINE",
"74 28 OFFCURVE",
"67 22 OFFCURVE",
"59 15 CURVE",
"52 21 OFFCURVE",
"43 22 OFFCURVE",
"34 22 CURVE SMOOTH",
"11 22 OFFCURVE",
"-15 13 OFFCURVE",
"-38 24 CURVE",
"-51 14 LINE",
"-54 18 LINE",
"-68 -12 LINE",
"-42 -16 OFFCURVE",
"-39 -49 OFFCURVE",
"15 -49 CURVE SMOOTH"
);
},
{
closed = 1;
nodes = (
"412 105 LINE",
"420 109 LINE",
"421 104 LINE",
"411 101 LINE"
);
},
{
closed = 1;
nodes = (
"487 164 LINE",
"491 168 OFFCURVE",
"497 170 OFFCURVE",
"502 173 CURVE",
"503 170 LINE",
"490 163 LINE"
);
},
{
closed = 1;
nodes = (
"546 227 OFFCURVE",
"543 228 OFFCURVE",
"539 229 CURVE",
"542 238 OFFCURVE",
"552 242 OFFCURVE",
"560 246 CURVE",
"560 238 LINE SMOOTH",
"560 235 OFFCURVE",
"558 231 OFFCURVE",
"557 228 CURVE",
"550 227 LINE SMOOTH"
);
},
{
closed = 1;
nodes = (
"624 281 LINE",
"634 292 LINE",
"644 292 LINE",
"634 277 LINE"
);
},
{
closed = 1;
nodes = (
"637 313 LINE",
"647 305 LINE",
"631 295 LINE"
);
},
{
closed = 1;
nodes = (
"670 387 OFFCURVE",
"674 392 OFFCURVE",
"680 393 CURVE",
"679 388 LINE",
"667 382 LINE"
);
}
);
width = 690;
}
);
note = Eth;
unicode = 00D0;
},
{
glyphname = E;
lastChange = "2021-11-19 01:29:12 +0000";
layers = (
{
anchors = (
{
name = bottom;
position = "{147, -12}";
},
{
name = ogonek;
position = "{427, 37}";
},
{
name = top;
position = "{490, 480}";
},
{
name = topleft;
position = "{20, 480}";
}
);
layerId = "01BDBA83-373F-4081-A4FB-32E4C1670F2F";
paths = (
{
closed = 1;
nodes = (
"208 -32 LINE",
"207 -29 LINE",
"278 -32 OFFCURVE",
"373 16 OFFCURVE",
"424 64 CURVE",
"423 66 LINE",
"428 76 LINE",
"434 73 LINE",
"427 86 LINE",
"414 76 LINE",
"400 73 LINE",
"400 69 LINE",
"397 66 LINE",
"392 69 LINE",
"385 69 OFFCURVE",
"378 68 OFFCURVE",
"373 65 CURVE",
"373 63 LINE",
"363 58 OFFCURVE",
"351 54 OFFCURVE",
"338 54 CURVE",
"289 35 OFFCURVE",
"236 21 OFFCURVE",
"183 21 CURVE SMOOTH",
"134 21 OFFCURVE",
"90 37 OFFCURVE",
"90 93 CURVE SMOOTH",
"90 116 OFFCURVE",
"97 139 OFFCURVE",
"105 160 CURVE",
"111 159 LINE",
"119 170 LINE",
"130 158 LINE",
"130 166 OFFCURVE",
"134 178 OFFCURVE",
"143 178 CURVE",
"156 173 LINE",
"159 173 LINE SMOOTH",
"201 173 OFFCURVE",
"235 204 OFFCURVE",
"277 204 CURVE SMOOTH",
"283 204 LINE",
"288 197 LINE",
"301 205 LINE",
"318 201 LINE",
"321 203 LINE",
"320 209 LINE",
"328 213 LINE",
"341 212 OFFCURVE",
"353 207 OFFCURVE",
"365 207 CURVE SMOOTH",
"378 207 OFFCURVE",
"387 217 OFFCURVE",
"400 217 CURVE SMOOTH",
"409 217 OFFCURVE",
"418 211 OFFCURVE",
"428 211 CURVE SMOOTH",
"433 211 OFFCURVE",
"439 214 OFFCURVE",
"444 217 CURVE",
"457 221 LINE",
"451 226 LINE",
"420 228 OFFCURVE",
"391 229 OFFCURVE",
"360 229 CURVE SMOOTH",
"310 229 OFFCURVE",
"262 221 OFFCURVE",
"213 221 CURVE SMOOTH",
"187 221 OFFCURVE",
"161 223 OFFCURVE",
"135 222 CURVE",
"190 308 OFFCURVE",
"390 429 OFFCURVE",
"491 429 CURVE SMOOTH",
"504 429 OFFCURVE",
"519 427 OFFCURVE",
"527 418 CURVE",
"528 412 OFFCURVE",
"530 406 OFFCURVE",
"530 400 CURVE SMOOTH",
"530 397 OFFCURVE",
"526 388 OFFCURVE",
"526 384 CURVE",
"516 373 LINE",
"514 346 OFFCURVE",
"497 320 OFFCURVE",
"495 295 CURVE",
"499 288 LINE",
"495 263 LINE",
"495 262 LINE",
"524 264 OFFCURVE",
"543 297 OFFCURVE",
"562 315 CURVE",
"580 315 OFFCURVE",
"577 343 OFFCURVE",
"583 354 CURVE",
"582 359 LINE",
"586 361 LINE",
"595 357 LINE",
"597 360 LINE",
"595 365 LINE",
"597 369 LINE",
"588 385 LINE",
"589 387 LINE",
"619 375 OFFCURVE",
"596 416 OFFCURVE",
"617 422 CURVE",
"626 418 LINE",
"649 427 LINE",
"653 445 LINE",
"648 458 OFFCURVE",
"557 484 OFFCURVE",
"541 484 CURVE",
"536 481 LINE",
"542 472 OFFCURVE",
"542 462 OFFCURVE",
"542 451 CURVE SMOOTH",
"542 443 OFFCURVE",
"541 429 OFFCURVE",
"529 429 CURVE SMOOTH",
"500 429 OFFCURVE",
"473 445 OFFCURVE",
"444 445 CURVE SMOOTH",
"428 445 OFFCURVE",
"414 438 OFFCURVE",
"400 433 CURVE",
"375 435 OFFCURVE",
"351 428 OFFCURVE",
"327 422 CURVE",
"319 415 LINE",
"286 409 OFFCURVE",
"260 380 OFFCURVE",
"228 372 CURVE",
"218 376 LINE",
"212 365 OFFCURVE",
"202 355 OFFCURVE",
"189 355 CURVE",
"185 358 LINE",
"177 353 LINE",
"175 344 OFFCURVE",
"167 334 OFFCURVE",
"157 334 CURVE SMOOTH",
"121 334 OFFCURVE",
"143 305 OFFCURVE",
"124 305 CURVE SMOOTH",
"100 305 OFFCURVE",
"58 247 OFFCURVE",
"43 229 CURVE",
"23 229 OFFCURVE",
"13 171 OFFCURVE",
"13 156 CURVE SMOOTH",
"13 82 OFFCURVE",
"74 18 OFFCURVE",
"136 -13 CURVE",
"147 -12 OFFCURVE",
"157 -17 OFFCURVE",
"162 -28 CURVE",
"175 -24 LINE",
"184 -28 LINE",
"193 -29 LINE",
"203 -36 LINE"
);
},
{
closed = 1;
nodes = (
"448 76 LINE",
"453 82 LINE",
"457 81 LINE",
"457 82 LINE",
"475 102 LINE",
"465 102 LINE",
"460 97 OFFCURVE",
"453 94 OFFCURVE",
"445 93 CURVE",
"449 91 LINE",
"441 94 OFFCURVE",
"436 87 OFFCURVE",
"436 79 CURVE",
"441 75 LINE"
);
},
{
closed = 1;
nodes = (
"488 108 OFFCURVE",
"493 112 OFFCURVE",
"497 117 CURVE",
"490 116 OFFCURVE",
"484 114 OFFCURVE",
"479 111 CURVE",
"479 109 LINE",
"483 105 LINE"
);
},
{
closed = 1;
nodes = (
"472 220 LINE",
"464 224 LINE",
"463 220 LINE",
"465 219 LINE"
);
}
);
width = 476;
}
);
note = E;
unicode = 0045;
},
{
glyphname = F;
lastChange = "2021-11-19 01:29:12 +0000";
layers = (
{
layerId = "01BDBA83-373F-4081-A4FB-32E4C1670F2F";
paths = (
{
closed = 1;
nodes = (
"102 -63 OFFCURVE",
"126 -55 OFFCURVE",
"142 -35 CURVE",
"161 -27 OFFCURVE",
"192 7 OFFCURVE",
"204 24 CURVE",
"211 28 LINE",
"206 32 LINE",
"211 41 LINE",
"219 47 OFFCURVE",
"235 56 OFFCURVE",
"238 66 CURVE",
"242 66 LINE",
"241 77 LINE",
"254 88 OFFCURVE",
"265 100 OFFCURVE",
"279 108 CURVE",
"280 118 OFFCURVE",
"283 129 OFFCURVE",
"294 130 CURVE",
"299 128 LINE",
"299 141 LINE",
"312 158 OFFCURVE",
"373 166 OFFCURVE",
"373 175 CURVE",
"408 175 OFFCURVE",
"604 193 OFFCURVE",
"615 220 CURVE",
"613 222 LINE",
"608 220 LINE",
"543 213 OFFCURVE",
"478 204 OFFCURVE",
"412 193 CURVE SMOOTH",
"388 190 OFFCURVE",
"362 195 OFFCURVE",
"337 188 CURVE",
"334 194 LINE",
"332 194 LINE",
"333 205 OFFCURVE",
"360 241 OFFCURVE",
"368 250 CURVE",
"367 252 LINE",
"382 260 OFFCURVE",
"380 271 OFFCURVE",
"391 276 CURVE",
"401 277 OFFCURVE",
"407 289 OFFCURVE",
"418 289 CURVE",
"424 293 OFFCURVE",
"429 299 OFFCURVE",
"433 305 CURVE",
"431 308 LINE",
"427 307 LINE",
"423 301 LINE",
"417 305 LINE",
"417 317 OFFCURVE",
"422 323 OFFCURVE",
"434 324 CURVE",
"445 337 OFFCURVE",
"454 354 OFFCURVE",
"455 372 CURVE",
"456 373 LINE",
"468 365 LINE",
"475 366 OFFCURVE",
"479 384 OFFCURVE",
"480 390 CURVE",
"476 398 LINE",
"495 399 OFFCURVE",
"512 405 OFFCURVE",
"531 405 CURVE SMOOTH",
"549 405 OFFCURVE",
"568 405 OFFCURVE",
"586 400 CURVE",
"587 397 LINE",
"614 384 LINE",
"616 368 LINE",
"603 346 OFFCURVE",
"586 328 OFFCURVE",
"561 320 CURVE",
"558 317 LINE",
"561 315 LINE",
"571 316 OFFCURVE",
"581 322 OFFCURVE",
"589 329 CURVE",
"589 328 LINE",
"585 319 LINE",
"586 318 LINE",
"620 333 LINE",
"628 328 LINE",
"656 330 OFFCURVE",
"661 335 OFFCURVE",
"670 361 CURVE",
"666 372 LINE",
"673 377 LINE",
"670 385 LINE",
"664 387 OFFCURVE",
"660 392 OFFCURVE",
"658 398 CURVE",
"661 402 LINE",
"625 424 OFFCURVE",
"583 427 OFFCURVE",
"543 427 CURVE SMOOTH",
"520 427 OFFCURVE",
"498 427 OFFCURVE",
"475 424 CURVE",
"479 458 OFFCURVE",
"422 460 OFFCURVE",
"400 460 CURVE SMOOTH",
"397 460 OFFCURVE",
"393 458 OFFCURVE",
"391 457 CURVE",
"391 448 OFFCURVE",
"388 438 OFFCURVE",
"383 430 CURVE",
"388 429 LINE",
"382 428 OFFCURVE",
"375 427 OFFCURVE",
"370 423 CURVE",
"292 436 OFFCURVE",
"137 379 OFFCURVE",
"76 328 CURVE",
"76 322 LINE",
"60 305 OFFCURVE",
"29 271 OFFCURVE",
"29 247 CURVE SMOOTH",
"29 245 OFFCURVE",
"31 238 OFFCURVE",
"32 236 CURVE",
"40 239 LINE",
"48 232 LINE",
"57 234 OFFCURVE",
"67 238 OFFCURVE",
"74 245 CURVE",
"71 248 LINE",
"53 246 LINE",
"43 252 LINE",
"87 308 OFFCURVE",
"155 355 OFFCURVE",
"226 367 CURVE",
"229 370 LINE",
"233 369 LINE",
"249 377 OFFCURVE",
"267 385 OFFCURVE",
"286 383 CURVE SMOOTH",
"298 382 LINE",
"311 388 OFFCURVE",
"327 389 OFFCURVE",
"342 389 CURVE SMOOTH",
"377 389 LINE",
"362 345 OFFCURVE",
"343 302 OFFCURVE",
"331 257 CURVE",
"324 251 LINE",
"316 229 OFFCURVE",
"303 209 OFFCURVE",
"292 187 CURVE",
"274 184 OFFCURVE",
"227 196 OFFCURVE",
"214 186 CURVE",
"205 191 LINE",
"196 186 LINE",
"182 186 OFFCURVE",
"168 184 OFFCURVE",
"154 184 CURVE SMOOTH",
"138 184 LINE",
"136 190 LINE",
"121 190 OFFCURVE",
"101 159 OFFCURVE",
"101 146 CURVE SMOOTH",
"101 129 OFFCURVE",
"121 121 OFFCURVE",
"136 121 CURVE SMOOTH",
"152 121 OFFCURVE",
"167 127 OFFCURVE",
"179 137 CURVE",
"208 140 OFFCURVE",
"237 148 OFFCURVE",
"265 148 CURVE",
"266 146 LINE",
"265 145 LINE",
"263 137 OFFCURVE",
"261 120 OFFCURVE",
"250 120 CURVE",
"239 103 OFFCURVE",
"224 76 OFFCURVE",
"205 67 CURVE",
"205 59 LINE",
"201 55 OFFCURVE",
"195 50 OFFCURVE",
"189 48 CURVE",
"183 40 LINE",
"182 40 LINE",
"182 33 LINE",
"157 3 OFFCURVE",
"118 -21 OFFCURVE",
"76 -21 CURVE SMOOTH",
"39 -21 OFFCURVE",
"2 -2 OFFCURVE",
"2 41 CURVE SMOOTH",
"2 47 OFFCURVE",
"3 52 OFFCURVE",
"2 58 CURVE",
"-10 48 OFFCURVE",
"-13 31 OFFCURVE",
"-13 17 CURVE SMOOTH",
"-13 -32 OFFCURVE",
"39 -55 OFFCURVE",
"77 -69 CURVE"
);
},
{
closed = 1;
nodes = (
"90 251 LINE",
"91 252 LINE",
"90 256 LINE",
"87 257 LINE",
"85 251 LINE"
);
},
{
closed = 1;
nodes = (
"385 278 LINE",
"387 284 LINE",
"390 283 LINE",
"389 278 LINE",
"386 277 LINE"
);
},
{
closed = 1;
nodes = (
"378 297 LINE",
"382 300 LINE",
"383 295 LINE"
);
},
{
closed = 1;
nodes = (
"381 311 LINE",
"384 315 OFFCURVE",
"388 319 OFFCURVE",
"392 320 CURVE",
"393 316 LINE",
"392 311 LINE"
);
},
{
closed = 1;
nodes = (
"403 316 LINE",
"405 319 LINE",
"407 319 LINE",
"409 317 LINE",
"406 313 LINE"
);
}
);
width = 508;
}
);
note = F;
unicode = 0046;
},
{
glyphname = G;
lastChange = "2021-11-19 01:29:12 +0000";
layers = (
{
anchors = (
{
name = bottom;
position = "{189, -24}";
},
{
name = top;
position = "{473, 455}";
}
);
layerId = "01BDBA83-373F-4081-A4FB-32E4C1670F2F";
paths = (
{
closed = 1;
nodes = (
"208 -32 LINE",
"207 -29 LINE",
"278 -32 OFFCURVE",
"373 16 OFFCURVE",
"424 64 CURVE",
"423 66 LINE",
"428 76 LINE",
"434 73 LINE",
"427 86 LINE",
"414 76 LINE",
"400 73 LINE",
"400 69 LINE",
"397 66 LINE",
"392 69 LINE",
"373 65 LINE",
"373 63 LINE",
"363 58 OFFCURVE",
"351 54 OFFCURVE",
"338 54 CURVE",
"289 35 OFFCURVE",
"236 21 OFFCURVE",
"183 21 CURVE SMOOTH",
"134 21 OFFCURVE",
"90 37 OFFCURVE",
"90 93 CURVE SMOOTH",
"90 251 OFFCURVE",
"340 423 OFFCURVE",
"486 423 CURVE SMOOTH",
"517 423 OFFCURVE",
"526 405 OFFCURVE",
"553 401 CURVE",
"547 373 OFFCURVE",
"536 346 OFFCURVE",
"526 319 CURVE",
"530 314 LINE",
"526 294 LINE",
"526 293 LINE",
"549 295 OFFCURVE",
"564 320 OFFCURVE",
"579 335 CURVE",
"594 336 OFFCURVE",
"593 361 OFFCURVE",
"598 372 CURVE",
"605 368 LINE",
"607 370 LINE",
"605 374 LINE",
"606 378 LINE",
"599 391 LINE",
"600 391 LINE",
"608 389 LINE",
"616 391 OFFCURVE",
"610 414 OFFCURVE",
"623 419 CURVE",
"629 417 LINE",
"647 423 LINE",
"651 437 LINE",
"643 452 OFFCURVE",
"580 463 OFFCURVE",
"563 470 CURVE",
"565 466 LINE",
"561 455 LINE",
"562 449 OFFCURVE",
"568 436 OFFCURVE",
"557 436 CURVE SMOOTH",
"519 436 OFFCURVE",
"481 445 OFFCURVE",
"444 445 CURVE SMOOTH",
"428 445 OFFCURVE",
"414 438 OFFCURVE",
"400 433 CURVE",
"375 435 OFFCURVE",
"351 428 OFFCURVE",
"327 422 CURVE",
"319 415 LINE",
"285 409 OFFCURVE",
"261 381 OFFCURVE",
"228 372 CURVE",
"218 376 LINE",
"212 365 OFFCURVE",
"202 355 OFFCURVE",
"189 355 CURVE",
"185 358 LINE",
"177 353 LINE",
"175 344 OFFCURVE",
"167 334 OFFCURVE",
"157 334 CURVE SMOOTH",
"121 334 OFFCURVE",
"143 305 OFFCURVE",
"124 305 CURVE SMOOTH",
"100 305 OFFCURVE",
"58 247 OFFCURVE",
"43 229 CURVE",
"22 229 OFFCURVE",
"13 171 OFFCURVE",
"13 156 CURVE SMOOTH",
"13 83 OFFCURVE",
"74 18 OFFCURVE",
"136 -13 CURVE",
"147 -12 OFFCURVE",
"157 -17 OFFCURVE",
"162 -28 CURVE",
"175 -24 LINE",
"184 -28 LINE",
"193 -29 LINE",
"203 -36 LINE"
);
},
{
closed = 1;
nodes = (
"429 12 LINE",
"430 13 LINE",
"429 17 LINE",
"427 18 LINE",
"424 12 LINE"
);
},
{
closed = 1;
nodes = (
"427 -84 OFFCURVE",
"519 77 OFFCURVE",
"578 179 CURVE",
"584 177 LINE",
"590 181 OFFCURVE",
"590 190 OFFCURVE",
"593 196 CURVE",
"614 194 OFFCURVE",
"634 189 OFFCURVE",
"652 179 CURVE",
"654 180 LINE",
"654 183 LINE",
"639 197 OFFCURVE",
"618 204 OFFCURVE",
"598 210 CURVE",
"601 223 LINE",
"616 249 LINE",
"615 256 OFFCURVE",
"604 257 OFFCURVE",
"598 257 CURVE SMOOTH",
"565 257 OFFCURVE",
"566 240 OFFCURVE",
"557 215 CURVE",
"530 222 OFFCURVE",
"502 225 OFFCURVE",
"473 225 CURVE SMOOTH",
"413 225 OFFCURVE",
"351 223 OFFCURVE",
"292 211 CURVE",
"290 205 LINE",
"283 208 LINE",
"256 199 OFFCURVE",
"202 183 OFFCURVE",
"195 150 CURVE",
"197 144 LINE",
"200 143 LINE",
"203 144 LINE",
"200 120 OFFCURVE",
"201 98 OFFCURVE",
"217 77 CURVE",
"224 74 OFFCURVE",
"232 71 OFFCURVE",
"240 71 CURVE",
"248 79 LINE",
"229 82 LINE",
"223 86 LINE",
"222 89 LINE",
"233 99 OFFCURVE",
"292 163 OFFCURVE",
"301 166 CURVE SMOOTH",
"315 170 OFFCURVE",
"329 167 OFFCURVE",
"338 182 CURVE",
"352 189 OFFCURVE",
"446 209 OFFCURVE",
"463 209 CURVE SMOOTH",
"492 209 OFFCURVE",
"520 198 OFFCURVE",
"550 195 CURVE",
"537 163 OFFCURVE",
"528 128 OFFCURVE",
"509 98 CURVE SMOOTH",
"496 76 OFFCURVE",
"411 -52 OFFCURVE",
"394 -53 CURVE",
"391 -50 LINE",
"394 -41 LINE",
"405 -30 OFFCURVE",
"413 -13 OFFCURVE",
"419 2 CURVE",
"418 2 LINE",
"395 -21 OFFCURVE",
"371 -40 OFFCURVE",
"345 -58 CURVE",
"341 -64 LINE",
"336 -67 LINE",
"329 -77 LINE",
"328 -78 LINE",
"318 -72 LINE",
"316 -86 OFFCURVE",
"318 -99 OFFCURVE",
"313 -112 CURVE",
"319 -122 OFFCURVE",
"319 -137 OFFCURVE",
"329 -143 CURVE"
);
},
{
closed = 1;
nodes = (
"448 76 LINE",
"453 82 LINE",
"457 81 LINE",
"457 82 LINE",
"475 102 LINE",
"465 102 LINE",
"460 97 OFFCURVE",
"453 94 OFFCURVE",
"445 93 CURVE",
"449 91 LINE",
"441 94 OFFCURVE",
"436 87 OFFCURVE",
"436 79 CURVE",
"441 75 LINE"
);
},
{
closed = 1;
nodes = (
"488 108 OFFCURVE",
"493 112 OFFCURVE",
"497 117 CURVE",
"490 116 OFFCURVE",
"484 114 OFFCURVE",
"479 111 CURVE",
"479 109 LINE",
"483 105 LINE"
);
},
{
closed = 1;
nodes = (
"523 285 LINE",
"518 289 LINE",
"515 276 LINE"
);
}
);
width = 556;
}
);
note = G;
unicode = 0047;
},
{
glyphname = H;
lastChange = "2021-11-19 01:29:12 +0000";
layers = (
{
anchors = (
{
name = bottom;
position = "{292, 0}";
},
{
name = center;
position = "{292, 240}";
},
{
name = top;
position = "{558, 540}";
},
{
name = topleft;
position = "{20, 480}";
}
);
layerId = "01BDBA83-373F-4081-A4FB-32E4C1670F2F";
paths = (
{
closed = 1;
nodes = (
"-87 -211 OFFCURVE",
"0 -198 OFFCURVE",
"10 -180 CURVE",
"57 -151 LINE",
"55 -150 LINE",
"54 -151 LINE SMOOTH",
"40 -165 OFFCURVE",
"89 -131 OFFCURVE",
"105 -118 CURVE SMOOTH",
"157 -80 OFFCURVE",
"190 -23 OFFCURVE",
"230 24 CURVE",
"230 26 LINE",
"234 37 LINE",
"234 39 LINE",
"256 61 LINE",
"255 64 LINE",
"291 124 LINE",
"292 123 LINE",
"299 135 LINE",
"299 137 LINE",
"312 162 LINE",
"313 161 LINE",
"318 166 LINE",
"316 166 LINE",
"323 183 OFFCURVE",
"334 196 OFFCURVE",
"343 211 CURVE",
"368 214 OFFCURVE",
"393 215 OFFCURVE",
"418 215 CURVE",
"424 218 LINE",
"440 216 LINE",
"441 220 LINE",
"472 217 OFFCURVE",
"502 217 OFFCURVE",
"532 218 CURVE",
"529 213 LINE",
"515 154 OFFCURVE",
"506 93 OFFCURVE",
"506 31 CURVE SMOOTH",
"506 26 LINE",
"509 24 LINE",
"512 10 OFFCURVE",
"515 -14 OFFCURVE",
"527 -23 CURVE",
"552 -25 LINE",
"553 -24 LINE",
"553 -23 LINE",
"546 -14 LINE",
"545 -14 LINE",
"540 0 LINE",
"540 23 OFFCURVE",
"555 170 OFFCURVE",
"566 182 CURVE",
"570 194 OFFCURVE",
"574 207 OFFCURVE",
"579 219 CURVE",
"608 220 OFFCURVE",
"638 218 OFFCURVE",
"667 226 CURVE",
"664 234 OFFCURVE",
"598 239 OFFCURVE",
"588 240 CURVE",
"590 247 OFFCURVE",
"602 272 OFFCURVE",
"601 278 CURVE",
"606 275 LINE",
"607 283 LINE",
"626 314 LINE",
"624 319 LINE",
"625 326 LINE",
"643 348 OFFCURVE",
"665 401 OFFCURVE",
"690 412 CURVE",
"690 422 LINE",
"693 421 OFFCURVE",
"703 418 OFFCURVE",
"706 418 CURVE SMOOTH",
"715 418 LINE",
"715 410 LINE",
"739 438 OFFCURVE",
"771 488 OFFCURVE",
"788 520 CURVE",
"790 510 LINE",
"795 512 LINE",
"796 518 OFFCURVE",
"799 525 OFFCURVE",
"799 532 CURVE SMOOTH",
"799 553 OFFCURVE",
"745 565 OFFCURVE",
"729 565 CURVE SMOOTH",
"720 565 OFFCURVE",
"711 553 OFFCURVE",
"710 545 CURVE",
"690 529 OFFCURVE",
"681 505 OFFCURVE",
"664 486 CURVE SMOOTH",
"605 423 OFFCURVE",
"571 324 OFFCURVE",
"543 243 CURVE",
"481 245 OFFCURVE",
"421 244 OFFCURVE",
"361 247 CURVE",
"388 315 OFFCURVE",
"417 389 OFFCURVE",
"417 463 CURVE SMOOTH",
"417 482 OFFCURVE",
"415 501 OFFCURVE",
"411 519 CURVE",
"395 530 OFFCURVE",
"375 526 OFFCURVE",
"358 529 CURVE",
"317 511 LINE",
"334 500 LINE",
"334 499 LINE",
"328 487 LINE",
"330 480 LINE",
"327 472 LINE",
"329 453 OFFCURVE",
"336 433 OFFCURVE",
"336 413 CURVE SMOOTH",
"336 397 OFFCURVE",
"332 380 OFFCURVE",
"329 364 CURVE",
"331 361 LINE",
"337 376 LINE",
"346 385 OFFCURVE",
"355 394 OFFCURVE",
"357 407 CURVE",
"358 390 LINE SMOOTH",
"361 339 OFFCURVE",
"337 291 OFFCURVE",
"319 245 CURVE",
"313 245 LINE",
"293 247 LINE",
"279 241 OFFCURVE",
"264 240 OFFCURVE",
"249 240 CURVE SMOOTH",
"232 240 OFFCURVE",
"215 242 OFFCURVE",
"198 242 CURVE",
"193 238 LINE",
"194 235 LINE",
"126 224 OFFCURVE",
"47 213 OFFCURVE",
"47 125 CURVE SMOOTH",
"47 117 OFFCURVE",
"49 105 OFFCURVE",
"58 101 CURVE",
"65 102 OFFCURVE",
"69 129 OFFCURVE",
"76 136 CURVE",
"100 166 OFFCURVE",
"197 193 OFFCURVE",
"236 193 CURVE SMOOTH",
"250 193 OFFCURVE",
"258 210 OFFCURVE",
"272 210 CURVE SMOOTH",
"302 209 LINE",
"251 119 OFFCURVE",
"130 -94 OFFCURVE",
"27 -126 CURVE",
"28 -115 OFFCURVE",
"30 -90 OFFCURVE",
"14 -90 CURVE SMOOTH",
"11 -90 OFFCURVE",
"-17 -102 OFFCURVE",
"-22 -104 CURVE",
"-20 -104 LINE",
"-27 -111 OFFCURVE",
"-37 -112 OFFCURVE",
"-46 -112 CURVE SMOOTH",
"-55 -112 OFFCURVE",
"-63 -111 OFFCURVE",
"-71 -110 CURVE",
"-83 -115 LINE",
"-98 -135 OFFCURVE",
"-113 -177 OFFCURVE",
"-113 -203 CURVE",
"-109 -214 LINE"
);
}
);
width = 584;
}
);
note = H;
unicode = 0048;
},
{
glyphname = Hbar;
lastChange = "2021-11-19 01:29:12 +0000";
layers = (
{
layerId = "01BDBA83-373F-4081-A4FB-32E4C1670F2F";
paths = (
{
closed = 1;
nodes = (
"321.881 344 LINE",
"331.717 352 LINE",
"333.903 351 LINE",
"342.647 352 LINE",
"353.577 363 LINE",
"380.901 364 OFFCURVE",
"408.226 366 OFFCURVE",
"434.457 366 CURVE",
"446.48 371 OFFCURVE",
"554.685 386 OFFCURVE",
"569.987 386 CURVE SMOOTH",
"589.661 386 OFFCURVE",
"619.171 382 OFFCURVE",
"637.752 375 CURVE",
"653.053 382 LINE",
"681.471 382 LINE",
"682.564 387 LINE",
"689.122 389 OFFCURVE",
"696.773 392 OFFCURVE",
"702.238 396 CURVE",
"713.167 384 LINE",
"718.632 387 OFFCURVE",
"725.19 390 OFFCURVE",
"728.469 394 CURVE",
"735.027 392 LINE",
"770.002 400 LINE",
"767.816 404 LINE",
"753.608 400 LINE",
"751.422 405 LINE",
"745.957 403 LINE",
"710.981 404 LINE",
"706.609 407 LINE",
"688.029 408 OFFCURVE",
"669.448 406 OFFCURVE",
"653.053 411 CURVE",
"643.217 410 OFFCURVE",
"632.287 409 OFFCURVE",
"624.636 403 CURVE",
"610.427 409 LINE",
"596.218 407 OFFCURVE",
"580.917 402 OFFCURVE",
"566.708 402 CURVE SMOOTH",
"554.685 402 OFFCURVE",
"544.848 408 OFFCURVE",
"532.826 408 CURVE SMOOTH",
"510.966 408 OFFCURVE",
"447.573 400 OFFCURVE",
"431.179 408 CURVE",
"416.97 407 LINE",
"412.598 397 LINE",
"406.04 408 LINE",
"363.414 406 OFFCURVE",
"319.695 403 OFFCURVE",
"275.975 404 CURVE",
"274.882 370 LINE",
"277.068 362 OFFCURVE",
"280.347 354 OFFCURVE",
"284.719 346 CURVE",
"308.765 341 LINE"
);
},
{
closed = 1;
nodes = (
"-87 -211 OFFCURVE",
"0 -198 OFFCURVE",
"10 -180 CURVE",
"57 -151 LINE",
"55 -150 LINE",
"54 -151 LINE SMOOTH",
"68 -137 OFFCURVE",
"89 -131 OFFCURVE",
"105 -118 CURVE SMOOTH",
"157 -80 OFFCURVE",
"190 -23 OFFCURVE",
"230 24 CURVE",
"230 26 LINE",
"234 37 LINE",
"234 39 LINE",
"256 61 LINE",
"255 64 LINE",
"291 124 LINE",
"292 123 LINE",
"299 135 LINE",
"299 137 LINE",
"312 162 LINE",
"313 161 LINE",
"318 166 LINE",
"316 166 LINE",
"323 183 OFFCURVE",
"334 196 OFFCURVE",
"343 211 CURVE",
"368 214 OFFCURVE",
"393 215 OFFCURVE",
"418 215 CURVE",
"424 218 LINE",
"440 216 LINE",
"441 220 LINE",
"472 217 OFFCURVE",
"502 217 OFFCURVE",
"532 218 CURVE",
"529 213 LINE",
"515 154 OFFCURVE",
"506 93 OFFCURVE",
"506 31 CURVE SMOOTH",
"506 26 LINE",
"509 24 LINE",
"512 10 OFFCURVE",
"515 -14 OFFCURVE",
"527 -23 CURVE",
"552 -25 LINE",
"553 -24 LINE",
"553 -23 LINE",
"546 -14 LINE",
"545 -14 LINE",
"540 0 LINE",
"540 23 OFFCURVE",
"555 170 OFFCURVE",
"566 182 CURVE",
"570 194 OFFCURVE",
"574 207 OFFCURVE",
"579 219 CURVE",
"608 220 OFFCURVE",
"638 218 OFFCURVE",
"667 226 CURVE",
"664 234 OFFCURVE",
"598 239 OFFCURVE",
"588 240 CURVE",
"590 247 OFFCURVE",
"602 272 OFFCURVE",
"601 278 CURVE",
"606 275 LINE",
"607 283 LINE",
"626 314 LINE",
"624 319 LINE",
"625 326 LINE",
"643 348 OFFCURVE",
"665 401 OFFCURVE",
"690 412 CURVE",
"690 422 LINE",
"693 421 OFFCURVE",
"703 418 OFFCURVE",
"706 418 CURVE SMOOTH",
"715 418 LINE",
"715 410 LINE",
"739 438 OFFCURVE",
"771 488 OFFCURVE",
"788 520 CURVE",
"790 510 LINE",
"795 512 LINE",
"796 518 OFFCURVE",
"799 525 OFFCURVE",
"799 532 CURVE SMOOTH",
"799 553 OFFCURVE",
"745 565 OFFCURVE",
"729 565 CURVE SMOOTH",
"720 565 OFFCURVE",
"711 553 OFFCURVE",
"710 545 CURVE",
"690 529 OFFCURVE",
"681 505 OFFCURVE",
"664 486 CURVE SMOOTH",
"605 423 OFFCURVE",
"571 324 OFFCURVE",
"543 243 CURVE",
"481 245 OFFCURVE",
"421 244 OFFCURVE",
"361 247 CURVE",
"388 315 OFFCURVE",
"417 389 OFFCURVE",
"417 463 CURVE SMOOTH",
"417 482 OFFCURVE",
"415 501 OFFCURVE",
"411 519 CURVE",
"395 530 OFFCURVE",
"375 526 OFFCURVE",
"358 529 CURVE",
"317 511 LINE",
"334 500 LINE",
"334 499 LINE",
"328 487 LINE",
"330 480 LINE",
"327 472 LINE",
"329 453 OFFCURVE",
"336 433 OFFCURVE",
"336 413 CURVE SMOOTH",
"336 397 OFFCURVE",
"332 380 OFFCURVE",
"329 364 CURVE",
"331 361 LINE",
"337 376 LINE",
"346 385 OFFCURVE",
"355 394 OFFCURVE",
"357 407 CURVE",
"358 390 LINE SMOOTH",
"361 339 OFFCURVE",
"337 291 OFFCURVE",
"319 245 CURVE",
"313 245 LINE",
"293 247 LINE",
"279 241 OFFCURVE",
"264 240 OFFCURVE",
"249 240 CURVE SMOOTH",
"232 240 OFFCURVE",
"215 242 OFFCURVE",
"198 242 CURVE",
"193 238 LINE",
"194 235 LINE",
"126 224 OFFCURVE",
"47 213 OFFCURVE",
"47 125 CURVE SMOOTH",
"47 117 OFFCURVE",
"49 105 OFFCURVE",
"58 101 CURVE",
"65 102 OFFCURVE",
"69 129 OFFCURVE",
"76 136 CURVE",
"100 166 OFFCURVE",
"197 193 OFFCURVE",
"236 193 CURVE SMOOTH",
"250 193 OFFCURVE",
"258 210 OFFCURVE",
"272 210 CURVE SMOOTH",
"302 209 LINE",
"251 119 OFFCURVE",
"130 -94 OFFCURVE",
"27 -126 CURVE",
"28 -115 OFFCURVE",
"30 -90 OFFCURVE",
"14 -90 CURVE SMOOTH",
"11 -90 OFFCURVE",
"-17 -102 OFFCURVE",
"-22 -104 CURVE",
"-20 -104 LINE",
"-27 -111 OFFCURVE",
"-37 -112 OFFCURVE",
"-46 -112 CURVE SMOOTH",
"-55 -112 OFFCURVE",
"-63 -111 OFFCURVE",
"-71 -110 CURVE",
"-83 -115 LINE",
"-98 -135 OFFCURVE",
"-113 -177 OFFCURVE",
"-113 -203 CURVE",
"-109 -214 LINE"
);
}
);
width = 584;
}
);
unicode = 0126;
},
{
glyphname = I;
lastChange = "2021-11-19 01:29:12 +0000";
layers = (
{
anchors = (
{
name = bottom;
position = "{-7, -61}";
},
{
name = ogonek;
position = "{67, -60}";
},
{
name = top;
position = "{369, 467}";
},
{
name = topleft;
position = "{20, 480}";
}
);
layerId = "01BDBA83-373F-4081-A4FB-32E4C1670F2F";
paths = (
{
closed = 1;
nodes = (
"62 -69 OFFCURVE",
"123 -28 OFFCURVE",
"148 8 CURVE",
"148 9 LINE",
"158 18 LINE",
"156 21 LINE",
"155 26 LINE",
"160 35 LINE",
"164 31 LINE",
"184 58 OFFCURVE",
"203 85 OFFCURVE",
"232 104 CURVE",
"229 114 OFFCURVE",
"239 122 OFFCURVE",
"247 127 CURVE",
"253 123 LINE",
"249 140 OFFCURVE",
"255 143 OFFCURVE",
"267 153 CURVE",
"271 151 LINE",
"277 157 OFFCURVE",
"285 166 OFFCURVE",
"286 176 CURVE",
"282 175 LINE",
"292 184 LINE",
"285 190 LINE",
"288 196 OFFCURVE",
"291 202 OFFCURVE",
"293 209 CURVE",
"298 209 LINE",
"298 211 LINE",
"289 212 LINE",
"292 220 LINE",
"291 230 LINE",
"303 238 LINE",
"303 246 LINE",
"310 255 OFFCURVE",
"319 264 OFFCURVE",
"328 272 CURVE",
"338 267 OFFCURVE",
"345 284 OFFCURVE",
"356 285 CURVE",
"362 293 OFFCURVE",
"366 316 OFFCURVE",
"378 317 CURVE",
"400 342 OFFCURVE",
"407 427 OFFCURVE",
"428 456 CURVE",
"427 465 OFFCURVE",
"406 466 OFFCURVE",
"399 466 CURVE SMOOTH",
"387 466 OFFCURVE",
"319 460 OFFCURVE",
"319 450 CURVE SMOOTH",
"319 449 LINE",
"274 444 OFFCURVE",
"232 422 OFFCURVE",
"190 406 CURVE",
"195 400 LINE",
"195 399 LINE",
"155 393 OFFCURVE",
"103 355 OFFCURVE",
"103 311 CURVE SMOOTH",
"103 271 OFFCURVE",
"140 253 OFFCURVE",
"175 253 CURVE",
"181 255 LINE",
"188 265 LINE",
"187 267 LINE",
"166 262 OFFCURVE",
"142 261 OFFCURVE",
"139 290 CURVE",
"143 292 LINE",
"142 307 OFFCURVE",
"143 326 OFFCURVE",
"159 331 CURVE",
"167 339 OFFCURVE",
"175 348 OFFCURVE",
"184 356 CURVE",
"177 361 LINE",
"195 374 OFFCURVE",
"283 418 OFFCURVE",
"303 420 CURVE",
"302 414 OFFCURVE",
"301 402 OFFCURVE",
"307 399 CURVE",
"304 360 OFFCURVE",
"288 325 OFFCURVE",
"274 289 CURVE",
"274 287 LINE",
"265 269 OFFCURVE",
"215 143 OFFCURVE",
"215 130 CURVE",
"196 112 LINE",
"196 109 LINE",
"157 49 OFFCURVE",
"85 -29 OFFCURVE",
"8 -29 CURVE SMOOTH",
"-29 -29 OFFCURVE",
"-66 -12 OFFCURVE",
"-66 30 CURVE SMOOTH",
"-66 38 OFFCURVE",
"-64 46 OFFCURVE",
"-62 55 CURVE",
"-65 58 LINE",
"-74 47 OFFCURVE",
"-77 31 OFFCURVE",
"-77 16 CURVE SMOOTH",
"-77 -32 OFFCURVE",
"-29 -69 OFFCURVE",
"17 -69 CURVE SMOOTH"
);
},
{
closed = 1;
nodes = (
"130 283 OFFCURVE",
"129 289 OFFCURVE",
"128 294 CURVE",
"130 294 LINE",
"135 281 LINE"
);
},
{
closed = 1;
nodes = (
"203 406 LINE",
"220 414 LINE",
"222 411 LINE",
"228 413 OFFCURVE",
"233 416 OFFCURVE",
"238 419 CURVE",
"238 418 LINE",
"229 410 OFFCURVE",
"219 406 OFFCURVE",
"208 401 CURVE"
);
}
);
width = 307;
}
);
note = I;
unicode = 0049;
},
{
glyphname = J;
lastChange = "2021-11-19 01:29:12 +0000";
layers = (
{
anchors = (
{
name = bottom;
position = "{124, 0}";
},
{
name = top;
position = "{333, 507}";
}
);
layerId = "01BDBA83-373F-4081-A4FB-32E4C1670F2F";
paths = (
{
closed = 1;
nodes = (
"-131 -216 OFFCURVE",
"-118 -215 OFFCURVE",
"-105 -212 CURVE",
"-113 -203 LINE",
"-108 -200 LINE",
"-99 -202 LINE",
"-91 -198 LINE",
"-87 -200 LINE",
"-90 -204 LINE",
"-85 -207 LINE",
"-60 -204 OFFCURVE",
"-23 -195 OFFCURVE",
"-8 -174 CURVE",
"13 -162 OFFCURVE",
"118 -70 OFFCURVE",
"118 -50 CURVE",
"125 -41 OFFCURVE",
"134 -32 OFFCURVE",
"145 -26 CURVE",
"152 -13 OFFCURVE",
"171 43 OFFCURVE",
"181 48 CURVE",
"185 63 OFFCURVE",
"205 79 OFFCURVE",
"214 93 CURVE SMOOTH",
"273 181 OFFCURVE",
"343 306 OFFCURVE",
"362 409 CURVE",
"383 410 LINE SMOOTH",
"415 412 OFFCURVE",
"449 405 OFFCURVE",
"472 381 CURVE",
"472 383 OFFCURVE",
"474 387 OFFCURVE",
"474 391 CURVE SMOOTH",
"474 422 OFFCURVE",
"379 432 OFFCURVE",
"355 434 CURVE",
"373 442 LINE",
"378 460 OFFCURVE",
"382 478 OFFCURVE",
"383 497 CURVE",
"369 508 OFFCURVE",
"349 503 OFFCURVE",
"333 507 CURVE",
"320 498 OFFCURVE",
"301 494 OFFCURVE",
"286 489 CURVE",
"301 478 LINE",
"301 476 LINE",
"291 464 LINE",
"292 457 LINE",
"286 450 LINE",
"284 429 LINE",
"282 426 LINE",
"228 420 OFFCURVE",
"174 411 OFFCURVE",
"121 396 CURVE",
"125 389 LINE",
"124 388 LINE",
"119 391 LINE",
"97 382 LINE",
"97 373 OFFCURVE",
"87 368 OFFCURVE",
"80 364 CURVE",
"80 376 LINE",
"70 374 OFFCURVE",
"65 364 OFFCURVE",
"56 360 CURVE",
"11 314 OFFCURVE",
"35 328 OFFCURVE",
"14 300 CURVE",
"15 265 OFFCURVE",
"38 242 OFFCURVE",
"73 242 CURVE",
"76 243 LINE",
"85 254 LINE",
"85 256 LINE",
"69 254 OFFCURVE",
"45 251 OFFCURVE",
"45 274 CURVE SMOOTH",
"45 283 LINE",
"49 285 LINE",
"51 301 OFFCURVE",
"57 319 OFFCURVE",
"75 323 CURVE",
"103 346 LINE",
"98 352 LINE",
"153 384 OFFCURVE",
"218 398 OFFCURVE",
"282 401 CURVE",
"277 381 OFFCURVE",
"268 361 OFFCURVE",
"260 341 CURVE",
"260 338 LINE",
"271 354 LINE",
"270 276 OFFCURVE",
"121 -14 OFFCURVE",
"65 -71 CURVE SMOOTH",
"7 -129 OFFCURVE",
"-56 -167 OFFCURVE",
"-139 -167 CURVE SMOOTH",
"-191 -167 OFFCURVE",
"-239 -124 OFFCURVE",
"-239 -71 CURVE SMOOTH",
"-239 -65 OFFCURVE",
"-239 -59 OFFCURVE",
"-235 -54 CURVE",
"-238 -53 LINE",
"-248 -53 OFFCURVE",
"-252 -65 OFFCURVE",
"-252 -73 CURVE SMOOTH",
"-252 -144 OFFCURVE",
"-226 -216 OFFCURVE",
"-144 -216 CURVE SMOOTH"
);
},
{
closed = 1;
nodes = (
"34 277 OFFCURVE",
"34 283 OFFCURVE",
"35 288 CURVE",
"38 288 LINE",
"39 274 LINE"
);
},
{
closed = 1;
nodes = (
"134 394 LINE",
"152 400 LINE",
"153 399 LINE",
"158 400 OFFCURVE",
"165 402 OFFCURVE",
"170 405 CURVE",
"170 403 LINE",
"160 398 OFFCURVE",
"148 393 OFFCURVE",
"137 390 CURVE"
);
}
);
width = 247;
}
);
note = J;
unicode = 004A;
},
{
glyphname = K;
lastChange = "2021-11-19 01:29:12 +0000";
layers = (
{
anchors = (
{
name = bottom;
position = "{121, 0}";
},
{
name = top;
position = "{259, 480}";
}
);
layerId = "01BDBA83-373F-4081-A4FB-32E4C1670F2F";
paths = (
{
closed = 1;
nodes = (
"-69 -30 OFFCURVE",
"-41 -9 OFFCURVE",
"-13 4 CURVE",
"-14 9 LINE",
"-5 29 OFFCURVE",
"21 26 OFFCURVE",
"37 36 CURVE",
"40 44 OFFCURVE",
"69 62 OFFCURVE",
"76 73 CURVE",
"90 76 OFFCURVE",
"111 109 OFFCURVE",
"126 118 CURVE",
"135 132 OFFCURVE",
"143 148 OFFCURVE",
"153 162 CURVE",
"166 149 LINE",
"153 133 OFFCURVE",
"140 117 OFFCURVE",
"129 100 CURVE",
"135 98 LINE",
"147 113 OFFCURVE",
"161 126 OFFCURVE",
"175 138 CURVE",
"202 99 OFFCURVE",
"234 65 OFFCURVE",
"268 31 CURVE",
"274 16 OFFCURVE",
"292 8 OFFCURVE",
"308 6 CURVE",
"310 14 LINE",
"315 10 LINE",
"317 4 LINE",
"323 -5 LINE",
"335 1 LINE",
"342 -5 OFFCURVE",
"351 -14 OFFCURVE",
"362 -14 CURVE SMOOTH",
"364 -14 OFFCURVE",
"368 -13 OFFCURVE",
"371 -12 CURVE",
"378 -17 LINE",
"382 -18 LINE",
"393 -18 OFFCURVE",
"404 -13 OFFCURVE",
"415 -13 CURVE SMOOTH",
"421 -13 OFFCURVE",
"427 -15 OFFCURVE",
"430 -21 CURVE",
"430 -26 LINE",
"436 -29 LINE",
"450 -29 LINE SMOOTH",
"508 -29 OFFCURVE",
"521 -22 OFFCURVE",
"557 25 CURVE",
"521 14 OFFCURVE",
"492 -7 OFFCURVE",
"453 -7 CURVE SMOOTH",
"445 -7 OFFCURVE",
"436 -6 OFFCURVE",
"427 -4 CURVE",
"418 -5 LINE",
"355 31 OFFCURVE",
"257 122 OFFCURVE",
"223 186 CURVE",
"229 206 OFFCURVE",
"334 292 OFFCURVE",
"356 310 CURVE SMOOTH",
"459 394 OFFCURVE",
"537 429 OFFCURVE",
"663 465 CURVE",
"670 461 LINE",
"686 467 OFFCURVE",
"707 466 OFFCURVE",
"724 460 CURVE",
"715 487 OFFCURVE",
"673 494 OFFCURVE",
"649 494 CURVE SMOOTH",
"498 494 OFFCURVE",
"312 301 OFFCURVE",
"213 198 CURVE",
"206 206 OFFCURVE",
"200 215 OFFCURVE",
"193 224 CURVE",
"202 239 OFFCURVE",
"256 324 OFFCURVE",
"256 331 CURVE SMOOTH",
"256 337 LINE",
"264 344 LINE",
"269 343 LINE",
"274 352 LINE",
"274 355 LINE",
"266 357 LINE",
"273 364 LINE",
"280 362 LINE",
"282 367 LINE",
"281 370 LINE",
"286 373 LINE",
"283 382 LINE",
"292 380 LINE",
"313 397 OFFCURVE",
"328 421 OFFCURVE",
"338 446 CURVE",
"337 459 OFFCURVE",
"273 476 OFFCURVE",
"260 476 CURVE SMOOTH",
"227 476 OFFCURVE",
"202 404 OFFCURVE",
"191 378 CURVE",
"196 376 LINE",
"211 391 LINE",
"215 384 LINE",
"206 355 OFFCURVE",
"200 306 OFFCURVE",
"171 288 CURVE",
"163 296 OFFCURVE",
"136 323 OFFCURVE",
"125 323 CURVE SMOOTH",
"108 323 OFFCURVE",
"73 287 OFFCURVE",
"59 274 CURVE",
"62 254 OFFCURVE",
"79 202 OFFCURVE",
"105 202 CURVE SMOOTH",
"107 202 LINE",
"110 195 LINE",
"115 197 LINE",
"115 192 LINE",
"117 190 LINE",
"121 197 LINE",
"123 197 LINE",
"87 144 OFFCURVE",
"47 94 OFFCURVE",
"10 41 CURVE",
"6 43 LINE",
"-22 11 OFFCURVE",
"-72 -9 OFFCURVE",
"-114 -9 CURVE SMOOTH",
"-127 -9 OFFCURVE",
"-140 -7 OFFCURVE",
"-152 -5 CURVE",
"-137 -14 OFFCURVE",
"-121 -30 OFFCURVE",
"-101 -30 CURVE SMOOTH"
);
}
);
width = 517;
}
);
note = K;
unicode = 004B;
},
{
glyphname = L;
lastChange = "2021-11-19 01:29:12 +0000";
layers = (
{
anchors = (
{
name = bottom;
position = "{328, 0}";
},
{
name = center;
position = "{252, 240}";
},
{
name = top;
position = "{499, 456}";
},
{
name = topright;
position = "{571, 451}";
}
);
layerId = "01BDBA83-373F-4081-A4FB-32E4C1670F2F";
paths = (
{
closed = 1;
nodes = (
"544 -87 OFFCURVE",
"549 -77 OFFCURVE",
"549 -67 CURVE SMOOTH",
"549 -51 OFFCURVE",
"514 -5 OFFCURVE",
"498 -5 CURVE SMOOTH",
"496 -5 OFFCURVE",
"494 -6 OFFCURVE",
"492 -7 CURVE",
"472 -9 OFFCURVE",
"470 11 OFFCURVE",
"454 20 CURVE",
"445 21 LINE",
"440 32 OFFCURVE",
"423 33 OFFCURVE",
"411 34 CURVE",
"408 43 LINE",
"401 42 OFFCURVE",
"391 40 OFFCURVE",
"384 42 CURVE",
"390 47 LINE",
"379 54 OFFCURVE",
"366 58 OFFCURVE",
"354 58 CURVE SMOOTH",
"317 58 OFFCURVE",
"274 65 OFFCURVE",
"236 69 CURVE",
"268 109 OFFCURVE",
"336 220 OFFCURVE",
"370 243 CURVE",
"377 263 LINE",
"388 270 LINE",
"382 278 LINE",
"388 286 OFFCURVE",
"396 295 OFFCURVE",
"407 297 CURVE",
"429 341 OFFCURVE",
"463 357 OFFCURVE",
"478 382 CURVE",
"486 400 LINE",
"546 426 LINE",
"553 426 OFFCURVE",
"559 422 OFFCURVE",
"564 418 CURVE",
"567 425 LINE",
"534 462 OFFCURVE",
"510 440 OFFCURVE",
"478 458 CURVE",
"459 451 OFFCURVE",
"380 395 OFFCURVE",
"379 375 CURVE",
"380 374 LINE",
"374 364 OFFCURVE",
"369 353 OFFCURVE",
"364 342 CURVE",
"371 334 LINE",
"366 327 OFFCURVE",
"360 319 OFFCURVE",
"353 313 CURVE",
"345 300 LINE",
"343 293 LINE",
"337 292 LINE",
"339 287 LINE",
"328 279 LINE",
"332 277 LINE",
"320 273 LINE",
"325 263 LINE",
"313 248 LINE",
"318 242 LINE",
"309 237 LINE",
"280 179 OFFCURVE",
"252 121 OFFCURVE",
"211 71 CURVE",
"143 73 OFFCURVE",
"-10 72 OFFCURVE",
"-10 -31 CURVE SMOOTH",
"-10 -62 OFFCURVE",
"9 -70 OFFCURVE",
"37 -70 CURVE SMOOTH",
"53 -70 OFFCURVE",
"70 -68 OFFCURVE",
"85 -60 CURVE",
"118 -58 OFFCURVE",
"171 -8 OFFCURVE",
"193 17 CURVE",
"238 14 OFFCURVE",
"283 17 OFFCURVE",
"328 17 CURVE SMOOTH",
"377 17 OFFCURVE",
"424 -1 OFFCURVE",
"472 -9 CURVE",
"477 -14 LINE",
"518 -32 OFFCURVE",
"520 -64 OFFCURVE",
"543 -97 CURVE"
);
},
{
closed = 1;
nodes = (
"12 -54 OFFCURVE",
"20 -42 OFFCURVE",
"14 -26 CURVE",
"29 10 OFFCURVE",
"63 3 OFFCURVE",
"69 11 CURVE",
"87 15 OFFCURVE",
"105 22 OFFCURVE",
"124 23 CURVE",
"129 20 OFFCURVE",
"134 19 OFFCURVE",
"139 22 CURVE",
"148 21 OFFCURVE",
"157 20 OFFCURVE",
"166 18 CURVE",
"129 -16 OFFCURVE",
"89 -54 OFFCURVE",
"36 -54 CURVE SMOOTH"
);
},
{
closed = 1;
nodes = (
"393 328 LINE",
"391 330 LINE",
"395 339 LINE",
"398 341 LINE",
"400 337 LINE",
"400 334 LINE",
"394 328 LINE"
);
},
{
closed = 1;
nodes = (
"397 394 LINE",
"405 399 OFFCURVE",
"412 403 OFFCURVE",
"418 409 CURVE",
"426 412 LINE",
"417 403 OFFCURVE",
"407 395 OFFCURVE",
"397 389 CURVE"
);
}
);
width = 504;
}
);
note = L;
unicode = 004C;
},
{
glyphname = Lslash;
lastChange = "2021-11-19 01:29:12 +0000";
layers = (
{
anchors = (
{
name = bottom;
position = "{328, 0}";
},
{
name = center;
position = "{252, 240}";
},
{
name = top;
position = "{499, 456}";
},
{
name = topright;
position = "{571, 451}";
}
);
layerId = "01BDBA83-373F-4081-A4FB-32E4C1670F2F";
paths = (
{
closed = 1;
nodes = (
"544 -87 OFFCURVE",
"549 -77 OFFCURVE",
"549 -67 CURVE SMOOTH",
"549 -51 OFFCURVE",
"514 -5 OFFCURVE",
"498 -5 CURVE SMOOTH",
"496 -5 OFFCURVE",
"494 -6 OFFCURVE",
"492 -7 CURVE",
"472 -9 OFFCURVE",
"470 11 OFFCURVE",
"454 20 CURVE",
"445 21 LINE",
"440 32 OFFCURVE",
"423 33 OFFCURVE",
"411 34 CURVE",
"408 43 LINE",
"401 42 OFFCURVE",
"391 40 OFFCURVE",
"384 42 CURVE",
"390 47 LINE",
"379 54 OFFCURVE",
"366 58 OFFCURVE",
"354 58 CURVE SMOOTH",
"317 58 OFFCURVE",
"274 65 OFFCURVE",
"236 69 CURVE",
"268 109 OFFCURVE",
"336 220 OFFCURVE",
"370 243 CURVE",
"377 263 LINE",
"388 270 LINE",
"382 278 LINE",
"388 286 OFFCURVE",
"396 295 OFFCURVE",
"407 297 CURVE",
"429 341 OFFCURVE",
"463 357 OFFCURVE",
"478 382 CURVE",
"486 400 LINE",
"546 426 LINE",
"553 426 OFFCURVE",
"559 422 OFFCURVE",
"564 418 CURVE",
"567 425 LINE",
"534 462 OFFCURVE",
"510 440 OFFCURVE",
"478 458 CURVE",
"459 451 OFFCURVE",
"380 395 OFFCURVE",
"379 375 CURVE",
"380 374 LINE",
"374 364 OFFCURVE",
"369 353 OFFCURVE",
"364 342 CURVE",
"371 334 LINE",
"366 327 OFFCURVE",
"360 319 OFFCURVE",
"353 313 CURVE",
"345 300 LINE",
"343 293 LINE",
"337 292 LINE",
"339 287 LINE",
"328 279 LINE",
"332 277 LINE",
"320 273 LINE",
"325 263 LINE",
"313 248 LINE",
"318 242 LINE",
"309 237 LINE",
"280 179 OFFCURVE",
"252 121 OFFCURVE",
"211 71 CURVE",
"143 73 OFFCURVE",
"-10 72 OFFCURVE",
"-10 -31 CURVE SMOOTH",
"-10 -62 OFFCURVE",
"9 -70 OFFCURVE",
"37 -70 CURVE SMOOTH",
"53 -70 OFFCURVE",
"70 -68 OFFCURVE",
"85 -60 CURVE",
"118 -58 OFFCURVE",
"171 -8 OFFCURVE",
"193 17 CURVE",
"238 14 OFFCURVE",
"283 17 OFFCURVE",
"328 17 CURVE SMOOTH",
"377 17 OFFCURVE",
"424 -1 OFFCURVE",
"472 -9 CURVE",
"477 -14 LINE",
"518 -32 OFFCURVE",
"520 -64 OFFCURVE",
"543 -97 CURVE"
);
},
{
closed = 1;
nodes = (
"12 -54 OFFCURVE",
"20 -42 OFFCURVE",
"14 -26 CURVE",
"29 10 OFFCURVE",
"63 3 OFFCURVE",
"69 11 CURVE",
"87 15 OFFCURVE",
"105 22 OFFCURVE",
"124 23 CURVE",
"129 20 OFFCURVE",
"134 19 OFFCURVE",
"139 22 CURVE",
"148 21 OFFCURVE",
"157 20 OFFCURVE",
"166 18 CURVE",
"129 -16 OFFCURVE",
"89 -54 OFFCURVE",
"36 -54 CURVE SMOOTH"
);
},
{
closed = 1;
nodes = (
"393 328 LINE",
"391 330 LINE",
"395 339 LINE",
"398 341 LINE",
"400 337 LINE",
"400 334 LINE",
"394 328 LINE"
);
},
{
closed = 1;
nodes = (
"397 394 LINE",
"405 399 OFFCURVE",
"412 403 OFFCURVE",
"418 409 CURVE",
"426 412 LINE",
"417 403 OFFCURVE",
"407 395 OFFCURVE",
"397 389 CURVE"
);
},
{
closed = 1;
nodes = (
"224.791 120.847 LINE",
"228.439 119.866 LINE",
"236.87 124.602 LINE",
"261.861 127.384 OFFCURVE",
"286.436 132.529 OFFCURVE",
"308.347 139.642 CURVE",
"320.136 138.472 LINE",
"336.708 143.019 LINE",
"336.443 151.095 OFFCURVE",
"358.064 153.283 OFFCURVE",
"364.967 166.686 CURVE",
"371.278 163.737 LINE",
"374.243 173.196 OFFCURVE",
"384.365 181.479 OFFCURVE",
"394.904 187.399 CURVE",
"391.963 190.943 LINE",
"376.514 186.594 OFFCURVE",
"338.043 181.435 OFFCURVE",
"326.242 176.104 CURVE",
"319.085 177.28 LINE",
"272.889 169.946 LINE SMOOTH",
"243.682 164.796 OFFCURVE",
"212.645 156.886 OFFCURVE",
"182.454 150.75 CURVE",
"179.791 152.718 LINE",
"181.18 144.839 LINE SMOOTH",
"183.125 133.809 OFFCURVE",
"201.34 115.9 OFFCURVE",
"213.824 110.79 CURVE"
);
},
{
closed = 1;
nodes = (
"403.891 188.984 LINE",
"409.508 189.974 LINE",
"411.199 193.522 LINE",
"403.196 192.923 LINE"
);
}
);
width = 504;
}
);
unicode = 0141;
},
{
glyphname = M;
lastChange = "2021-11-19 01:29:12 +0000";
layers = (
{
layerId = "01BDBA83-373F-4081-A4FB-32E4C1670F2F";
paths = (
{
closed = 1;
nodes = (
"110 -36 OFFCURVE",
"114 -26 OFFCURVE",
"116 -21 CURVE",
"109 -12 LINE",
"112 -4 OFFCURVE",
"130 -9 OFFCURVE",
"130 3 CURVE SMOOTH",
"130 4 OFFCURVE",
"129 8 OFFCURVE",
"128 10 CURVE",
"139 25 OFFCURVE",
"151 41 OFFCURVE",
"162 58 CURVE",
"155 77 OFFCURVE",
"309 247 OFFCURVE",
"335 268 CURVE",
"338 274 LINE",
"381 307 OFFCURVE",
"414 361 OFFCURVE",
"464 380 CURVE",
"461 344 OFFCURVE",
"446 310 OFFCURVE",
"443 273 CURVE",
"455 277 LINE",
"458 269 LINE",
"453 262 LINE",
"450 262 LINE",
"444 264 LINE",
"439 231 LINE",
"434 224 LINE",
"442 197 OFFCURVE",
"416 74 OFFCURVE",
"416 31 CURVE SMOOTH",
"416 21 OFFCURVE",
"429 3 OFFCURVE",
"442 3 CURVE SMOOTH",
"460 3 OFFCURVE",
"458 39 OFFCURVE",
"460 51 CURVE SMOOTH",
"463 70 OFFCURVE",
"490 116 OFFCURVE",
"501 133 CURVE SMOOTH",
"528 173 OFFCURVE",
"672 364 OFFCURVE",
"701 381 CURVE",
"697 328 OFFCURVE",
"691 276 OFFCURVE",
"677 225 CURVE",
"679 213 LINE",
"672 155 OFFCURVE",
"661 92 OFFCURVE",
"661 32 CURVE SMOOTH",
"661 6 OFFCURVE",
"687 -22 OFFCURVE",
"713 -22 CURVE SMOOTH",
"716 -22 OFFCURVE",
"721 -19 OFFCURVE",
"724 -18 CURVE",
"750 25 OFFCURVE",
"793 66 OFFCURVE",
"815 106 CURVE",
"812 109 LINE",
"794 91 OFFCURVE",
"774 75 OFFCURVE",
"756 58 CURVE",
"748 58 LINE",
"742 57 LINE",
"738 48 OFFCURVE",
"727 44 OFFCURVE",
"718 41 CURVE",
"712 54 LINE",
"713 60 OFFCURVE",
"711 67 OFFCURVE",
"711 73 CURVE SMOOTH",
"711 102 OFFCURVE",
"721 129 OFFCURVE",
"721 157 CURVE",
"733 171 OFFCURVE",
"734 189 OFFCURVE",
"742 204 CURVE",
"733 219 LINE",
"758 252 OFFCURVE",
"779 346 OFFCURVE",
"779 388 CURVE SMOOTH",
"779 409 OFFCURVE",
"723 409 OFFCURVE",
"708 409 CURVE",
"640 383 OFFCURVE",
"525 202 OFFCURVE",
"483 135 CURVE",
"480 143 OFFCURVE",
"472 148 OFFCURVE",
"472 157 CURVE",
"485 171 OFFCURVE",
"476 178 OFFCURVE",
"483 189 CURVE",
"480 195 OFFCURVE",
"482 212 OFFCURVE",
"487 218 CURVE SMOOTH",
"517 261 OFFCURVE",
"526 309 OFFCURVE",
"540 359 CURVE",
"539 369 OFFCURVE",
"543 377 OFFCURVE",
"543 387 CURVE SMOOTH",
"543 409 OFFCURVE",
"495 409 OFFCURVE",
"481 409 CURVE SMOOTH",
"411 409 OFFCURVE",
"198 143 OFFCURVE",
"137 83 CURVE",
"136 90 LINE SMOOTH",
"136 102 OFFCURVE",
"152 121 OFFCURVE",
"159 130 CURVE",
"164 144 OFFCURVE",
"291 336 OFFCURVE",
"301 344 CURVE",
"310 363 OFFCURVE",
"330 396 OFFCURVE",
"330 417 CURVE SMOOTH",
"330 459 OFFCURVE",
"266 487 OFFCURVE",
"229 487 CURVE SMOOTH",
"164 487 OFFCURVE",
"1 380 OFFCURVE",
"1 308 CURVE SMOOTH",
"1 291 OFFCURVE",
"4 257 OFFCURVE",
"17 245 CURVE",
"18 247 OFFCURVE",
"19 252 OFFCURVE",
"21 254 CURVE",
"21 289 OFFCURVE",
"24 329 OFFCURVE",
"63 342 CURVE",
"60 360 OFFCURVE",
"85 365 OFFCURVE",
"95 374 CURVE SMOOTH",
"126 402 OFFCURVE",
"116 419 OFFCURVE",
"163 444 CURVE SMOOTH",
"192 459 OFFCURVE",
"220 469 OFFCURVE",
"252 470 CURVE",
"258 465 LINE",
"256 428 OFFCURVE",
"254 400 OFFCURVE",
"229 369 CURVE",
"229 358 OFFCURVE",
"229 346 OFFCURVE",
"222 337 CURVE",
"227 330 LINE",
"220 323 LINE",
"219 327 LINE",
"211 319 LINE",
"212 318 LINE",
"218 315 LINE",
"209 314 OFFCURVE",
"202 308 OFFCURVE",
"202 298 CURVE",
"207 287 LINE",
"206 283 LINE",
"193 279 LINE",
"190 270 OFFCURVE",
"185 263 OFFCURVE",
"180 255 CURVE",
"182 247 LINE",
"161 220 LINE",
"162 214 LINE",
"156 200 LINE",
"146 200 OFFCURVE",
"141 192 OFFCURVE",
"139 184 CURVE",
"148 190 LINE",
"148 188 LINE",
"141 171 LINE",
"147 174 LINE",
"149 174 LINE",
"140 165 LINE",
"135 169 LINE",
"131 168 LINE",
"130 164 LINE",
"135 158 LINE",
"127 147 LINE",
"116 130 LINE",
"101 122 LINE",
"96 103 LINE",
"90 95 OFFCURVE",
"88 85 OFFCURVE",
"83 77 CURVE",
"80 77 LINE",
"74 64 OFFCURVE",
"66 50 OFFCURVE",
"56 39 CURVE",
"53 30 OFFCURVE",
"48 22 OFFCURVE",
"40 14 CURVE",
"49 -5 OFFCURVE",
"81 -36 OFFCURVE",
"103 -36 CURVE SMOOTH"
);
},
{
closed = 1;
nodes = (
"173 225 LINE",
"176 225 LINE",
"170 212 LINE",
"166 211 LINE"
);
},
{
closed = 1;
nodes = (
"205 287 LINE",
"205 289 LINE",
"201 287 LINE",
"200 286 LINE"
);
},
{
closed = 1;
nodes = (
"220 310 LINE",
"220 314 LINE",
"227 318 LINE",
"227 315 LINE SMOOTH",
"227 309 OFFCURVE",
"222 304 OFFCURVE",
"217 302 CURVE"
);
},
{
closed = 1;
nodes = (
"826 120 LINE",
"824 123 LINE",
"822 122 LINE",
"817 114 LINE",
"823 112 LINE"
);
}
);
width = 739;
}
);
note = M;
unicode = 004D;
},
{
glyphname = N;
lastChange = "2021-11-19 01:29:12 +0000";
layers = (
{
anchors = (
{
name = bottom;
position = "{159, -75}";
},
{
name = top;
position = "{354, 480}";
}
);
layerId = "01BDBA83-373F-4081-A4FB-32E4C1670F2F";
paths = (
{
closed = 1;
nodes = (
"-55 -179 OFFCURVE",
"41 -75 OFFCURVE",
"70 -17 CURVE",
"75 -9 OFFCURVE",
"79 -3 OFFCURVE",
"85 4 CURVE",
"87 8 LINE",
"86 9 LINE",
"92 19 OFFCURVE",
"98 29 OFFCURVE",
"105 38 CURVE",
"104 39 LINE",
"121 60 OFFCURVE",
"168 166 OFFCURVE",
"180 196 CURVE",
"182 187 OFFCURVE",
"186 174 OFFCURVE",
"198 175 CURVE",
"208 161 LINE",
"203 149 LINE",
"211 130 LINE",
"213 131 LINE",
"217 126 LINE",
"216 123 OFFCURVE",
"212 112 OFFCURVE",
"212 111 CURVE SMOOTH",
"212 68 OFFCURVE",
"263 -46 OFFCURVE",
"311 -41 CURVE SMOOTH",
"320 -40 LINE",
"320 -42 LINE",
"330 -54 OFFCURVE",
"353 -60 OFFCURVE",
"367 -59 CURVE SMOOTH",
"383 -58 LINE",
"412 -41 OFFCURVE",
"450 19 OFFCURVE",
"450 52 CURVE SMOOTH",
"450 61 OFFCURVE",
"440 66 OFFCURVE",
"440 75 CURVE SMOOTH",
"440 144 OFFCURVE",
"493 205 OFFCURVE",
"493 274 CURVE SMOOTH",
"493 278 OFFCURVE",
"492 282 OFFCURVE",
"491 284 CURVE",
"499 295 LINE",
"492 312 OFFCURVE",
"514 339 OFFCURVE",
"517 358 CURVE",
"519 355 LINE",
"518 346 LINE",
"523 346 LINE",
"527 353 LINE",
"524 387 OFFCURVE",
"539 417 OFFCURVE",
"539 450 CURVE SMOOTH",
"539 474 OFFCURVE",
"526 496 OFFCURVE",
"499 496 CURVE SMOOTH",
"493 496 OFFCURVE",
"487 493 OFFCURVE",
"481 490 CURVE",
"456 455 OFFCURVE",
"380 377 OFFCURVE",
"364 352 CURVE",
"369 350 LINE",
"392 372 OFFCURVE",
"417 391 OFFCURVE",
"441 412 CURVE",
"449 411 LINE",
"455 414 LINE",
"462 425 OFFCURVE",
"475 428 OFFCURVE",
"486 433 CURVE",
"492 419 LINE",
"492 320 OFFCURVE",
"459 216 OFFCURVE",
"418 126 CURVE",
"415 117 OFFCURVE",
"408 109 OFFCURVE",
"405 98 CURVE SMOOTH",
"401 80 OFFCURVE",
"404 80 OFFCURVE",
"390 67 CURVE SMOOTH",
"377 55 OFFCURVE",
"363 46 OFFCURVE",
"349 34 CURVE",
"338 34 LINE SMOOTH",
"296 34 OFFCURVE",
"249 184 OFFCURVE",
"249 220 CURVE SMOOTH",
"249 265 OFFCURVE",
"230 307 OFFCURVE",
"230 351 CURVE SMOOTH",
"230 364 OFFCURVE",
"228 367 OFFCURVE",
"214 366 CURVE",
"211 398 OFFCURVE",
"205 428 OFFCURVE",
"197 459 CURVE",
"192 461 LINE",
"181 461 OFFCURVE",
"168 436 OFFCURVE",
"168 427 CURVE",
"174 412 OFFCURVE",
"189 399 OFFCURVE",
"184 381 CURVE",
"184 362 LINE",
"149 355 LINE",
"145 341 LINE",
"147 333 LINE",
"157 332 OFFCURVE",
"142 273 OFFCURVE",
"164 274 CURVE",
"168 252 LINE",
"174 259 LINE",
"176 256 LINE",
"159 179 OFFCURVE",
"13 -101 OFFCURVE",
"-57 -128 CURVE",
"-61 -123 LINE",
"-60 -117 LINE",
"-49 -107 OFFCURVE",
"-49 -92 OFFCURVE",
"-39 -80 CURVE",
"-41 -81 LINE",
"-68 -102 OFFCURVE",
"-82 -107 OFFCURVE",
"-113 -120 CURVE",
"-117 -125 LINE",
"-122 -126 LINE",
"-128 -135 LINE",
"-130 -136 LINE",
"-142 -127 LINE",
"-142 -143 LINE SMOOTH",
"-142 -150 OFFCURVE",
"-139 -157 OFFCURVE",
"-140 -164 CURVE",
"-132 -176 OFFCURVE",
"-130 -191 OFFCURVE",
"-117 -199 CURVE"
);
},
{
closed = 1;
nodes = (
"-25 -77 LINE",
"-27 -73 LINE",
"-30 -71 LINE",
"-32 -77 LINE"
);
},
{
closed = 1;
nodes = (
"325 -1 LINE",
"328 6 LINE",
"329 1 LINE",
"328 -2 LINE"
);
},
{
closed = 1;
nodes = (
"504 284 OFFCURVE",
"508 290 OFFCURVE",
"509 298 CURVE",
"508 303 LINE",
"503 295 OFFCURVE",
"499 287 OFFCURVE",
"499 278 CURVE"
);
},
{
closed = 1;
nodes = (
"517 319 OFFCURVE",
"519 328 OFFCURVE",
"520 337 CURVE",
"515 337 LINE",
"512 335 LINE",
"514 329 LINE",
"511 326 OFFCURVE",
"507 321 OFFCURVE",
"506 317 CURVE",
"509 313 LINE"
);
}
);
width = 481;
}
);
note = N;
unicode = 004E;
},
{
glyphname = Eng;
lastChange = "2021-11-19 01:29:12 +0000";
layers = (
{
background = {
components = (
{
name = jdotless;
transform = "{1, 0, 0, 1, 90, 0}";
}
);
};
layerId = "01BDBA83-373F-4081-A4FB-32E4C1670F2F";
paths = (
{
closed = 1;
nodes = (
"217 -266 OFFCURVE",
"236 -251 OFFCURVE",
"256 -229 CURVE",
"259 -229 LINE",
"274 -215 LINE",
"291 -207 LINE",
"315 -173 OFFCURVE",
"342 -142 OFFCURVE",
"363 -105 CURVE",
"371 -101 OFFCURVE",
"373 -83 OFFCURVE",
"375 -74 CURVE",
"388 -58 OFFCURVE",
"439 46 OFFCURVE",
"457 119 CURVE",
"479 176 OFFCURVE",
"493 218 OFFCURVE",
"493 274 CURVE SMOOTH",
"493 278 OFFCURVE",
"492 282 OFFCURVE",
"491 284 CURVE",
"499 295 LINE",
"492 312 OFFCURVE",
"514 339 OFFCURVE",
"517 358 CURVE",
"519 355 LINE",
"518 346 LINE",
"523 346 LINE",
"527 353 LINE",
"524 387 OFFCURVE",
"539 417 OFFCURVE",
"539 450 CURVE SMOOTH",
"539 474 OFFCURVE",
"526 496 OFFCURVE",
"499 496 CURVE SMOOTH",
"493 496 OFFCURVE",
"487 493 OFFCURVE",
"481 490 CURVE",
"456 455 OFFCURVE",
"380 377 OFFCURVE",
"364 352 CURVE",
"369 350 LINE",
"392 372 OFFCURVE",
"417 391 OFFCURVE",
"441 412 CURVE",
"449 411 LINE",
"455 414 LINE",
"462 425 OFFCURVE",
"475 428 OFFCURVE",
"486 433 CURVE",
"492 419 LINE",
"492 320 OFFCURVE",
"459 216 OFFCURVE",
"418 126 CURVE",
"415 117 OFFCURVE",
"408 109 OFFCURVE",
"405 98 CURVE SMOOTH",
"403 90 OFFCURVE",
"403 85 OFFCURVE",
"402 82 CURVE SMOOTH",
"401 80 OFFCURVE",
"400 78 OFFCURVE",
"399 77 CURVE SMOOTH",
"397 74 OFFCURVE",
"394 71 OFFCURVE",
"390 67 CURVE SMOOTH",
"377 55 OFFCURVE",
"363 46 OFFCURVE",
"349 34 CURVE",
"338 34 LINE SMOOTH",
"296 34 OFFCURVE",
"249 184 OFFCURVE",
"249 220 CURVE SMOOTH",
"249 265 OFFCURVE",
"230 307 OFFCURVE",
"230 351 CURVE SMOOTH",
"230 364 OFFCURVE",
"228 367 OFFCURVE",
"214 366 CURVE",
"211 398 OFFCURVE",
"205 428 OFFCURVE",
"197 459 CURVE",
"192 461 LINE",
"181 461 OFFCURVE",
"168 436 OFFCURVE",
"168 427 CURVE",
"174 412 OFFCURVE",
"189 399 OFFCURVE",
"184 381 CURVE",
"184 362 LINE",
"149 355 LINE",
"145 341 LINE",
"147 333 LINE",
"157 332 OFFCURVE",
"142 273 OFFCURVE",
"164 274 CURVE",
"168 252 LINE",
"174 259 LINE",
"176 256 LINE",
"159 179 OFFCURVE",
"61 15 OFFCURVE",
"9 -30 CURVE",
"-15 -74 OFFCURVE",
"29 -96 OFFCURVE",
"48 -75 CURVE",
"72 -61 OFFCURVE",
"70 -45 OFFCURVE",
"70 -17 CURVE",
"68 -19 OFFCURVE",
"94 17 OFFCURVE",
"86 9 CURVE",
"92 19 OFFCURVE",
"98 29 OFFCURVE",
"105 38 CURVE",
"104 39 LINE",
"121 60 OFFCURVE",
"168 166 OFFCURVE",
"180 196 CURVE",
"182 187 OFFCURVE",
"186 174 OFFCURVE",
"198 175 CURVE",
"208 161 LINE",
"203 149 LINE",
"211 130 LINE",
"213 131 LINE",
"217 126 LINE",
"216 123 OFFCURVE",
"212 112 OFFCURVE",
"212 111 CURVE SMOOTH",
"212 68 OFFCURVE",
"251 -37 OFFCURVE",
"311 -41 CURVE SMOOTH",
"344 -43 LINE",
"346 -41 LINE",
"331 -67 OFFCURVE",
"317 -94 OFFCURVE",
"300 -119 CURVE",
"297 -143 OFFCURVE",
"209 -245 OFFCURVE",
"185 -237 CURVE",
"180 -238 OFFCURVE",
"175 -240 OFFCURVE",
"169 -240 CURVE SMOOTH",
"140 -240 OFFCURVE",
"125 -218 OFFCURVE",
"116 -193 CURVE",
"110 -186 LINE",
"109 -188 OFFCURVE",
"108 -191 OFFCURVE",
"108 -192 CURVE SMOOTH",
"108 -229 OFFCURVE",
"151 -266 OFFCURVE",
"186 -266 CURVE SMOOTH"
);
},
{
closed = 1;
nodes = (
"504 284 OFFCURVE",
"508 290 OFFCURVE",
"509 298 CURVE",
"508 303 LINE",
"503 295 OFFCURVE",
"499 287 OFFCURVE",
"499 278 CURVE"
);
},
{
closed = 1;
nodes = (
"517 319 OFFCURVE",
"519 328 OFFCURVE",
"520 337 CURVE",
"515 337 LINE",
"512 335 LINE",
"514 329 LINE",
"511 326 OFFCURVE",
"507 321 OFFCURVE",
"506 317 CURVE",
"509 313 LINE"
);
}
);
width = 481;
}
);
unicode = 014A;
},
{
glyphname = O;
lastChange = "2021-11-19 02:02:29 +0000";
layers = (
{
anchors = (
{
name = bottom;
position = "{82, 0}";
},
{
name = center;
position = "{255, 240}";
},
{
name = ogonek;
position = "{210, 10}";
},
{
name = top;
position = "{484, 460}";
},
{
name = topleft;
position = "{20, 480}";
},
{
name = topright;
position = "{528, 388}";
}
);
layerId = "01BDBA83-373F-4081-A4FB-32E4C1670F2F";
paths = (
{
closed = 1;
nodes = (
"220 -7 OFFCURVE",
"230 -6 OFFCURVE",
"239 -5 CURVE",
"247 -1 LINE",
"276 -1 OFFCURVE",
"293 22 OFFCURVE",
"320 20 CURVE",
"325 25 OFFCURVE",
"330 30 OFFCURVE",
"337 33 CURVE",
"340 40 LINE",
"337 45 LINE",
"339 51 LINE",
"344 49 LINE",
"350 37 LINE",
"369 40 LINE",
"360 45 LINE",
"354 54 LINE",
"359 66 OFFCURVE",
"376 72 OFFCURVE",
"387 76 CURVE",
"380 67 OFFCURVE",
"372 59 OFFCURVE",
"363 52 CURVE",
"376 51 LINE",
"388 61 LINE",
"390 68 LINE",
"392 66 LINE",
"401 76 OFFCURVE",
"394 85 OFFCURVE",
"409 93 CURVE",
"413 91 LINE",
"420 98 LINE",
"436 104 LINE",
"428 109 LINE",
"439 119 LINE",
"473 147 LINE",
"484 149 OFFCURVE",
"492 157 OFFCURVE",
"503 158 CURVE",
"527 187 OFFCURVE",
"598 249 OFFCURVE",
"594 288 CURVE",
"595 288 LINE",
"589 292 LINE",
"605 302 LINE",
"587 320 LINE",
"593 327 LINE",
"589 329 LINE",
"596 336 LINE",
"594 337 LINE",
"571 430 OFFCURVE",
"423 467 OFFCURVE",
"341 467 CURVE SMOOTH",
"296 467 OFFCURVE",
"211 455 OFFCURVE",
"169 438 CURVE",
"172 422 OFFCURVE",
"113 402 OFFCURVE",
"101 394 CURVE",
"98 398 LINE",
"86 386 OFFCURVE",
"76 366 OFFCURVE",
"58 366 CURVE",
"55 362 OFFCURVE",
"54 346 OFFCURVE",
"48 346 CURVE",
"43 349 LINE",
"42 349 LINE",
"33 343 OFFCURVE",
"11 301 OFFCURVE",
"11 291 CURVE SMOOTH",
"11 247 OFFCURVE",
"29 197 OFFCURVE",
"59 165 CURVE",
"57 150 OFFCURVE",
"53 137 OFFCURVE",
"53 122 CURVE SMOOTH",
"53 35 OFFCURVE",
"133 -7 OFFCURVE",
"211 -7 CURVE SMOOTH"
);
},
{
closed = 1;
nodes = (
"328 39 LINE",
"330 45 LINE",
"335 38 LINE",
"328 36 LINE"
);
},
{
closed = 1;
nodes = (
"102 384 OFFCURVE",
"103 388 OFFCURVE",
"105 391 CURVE",
"106 386 LINE",
"101 382 LINE"
);
},
{
closed = 1;
nodes = (
"130 34 OFFCURVE",
"82 49 OFFCURVE",
"82 110 CURVE SMOOTH",
"82 124 OFFCURVE",
"82 134 OFFCURVE",
"90 146 CURVE",
"116 131 OFFCURVE",
"147 122 OFFCURVE",
"176 122 CURVE SMOOTH",
"185 122 OFFCURVE",
"194 123 OFFCURVE",
"203 125 CURVE",
"191 129 OFFCURVE",
"177 130 OFFCURVE",
"165 133 CURVE",
"145 148 OFFCURVE",
"116 153 OFFCURVE",
"94 166 CURVE",
"99 251 OFFCURVE",
"334 403 OFFCURVE",
"415 403 CURVE SMOOTH",
"435 403 OFFCURVE",
"454 400 OFFCURVE",
"473 404 CURVE",
"461 410 OFFCURVE",
"447 417 OFFCURVE",
"433 417 CURVE SMOOTH",
"400 417 OFFCURVE",
"333 409 OFFCURVE",
"310 384 CURVE",
"292 391 LINE",
"212 373 OFFCURVE",
"96 264 OFFCURVE",
"66 190 CURVE",
"46 205 OFFCURVE",
"36 223 OFFCURVE",
"36 247 CURVE SMOOTH",
"36 316 OFFCURVE",
"85 348 OFFCURVE",
"133 387 CURVE",
"211 415 OFFCURVE",
"284 448 OFFCURVE",
"369 448 CURVE SMOOTH",
"441 448 OFFCURVE",
"532 416 OFFCURVE",
"532 331 CURVE SMOOTH",
"532 311 OFFCURVE",
"528 291 OFFCURVE",
"522 271 CURVE",
"523 262 LINE",
"471 139 OFFCURVE",
"317 34 OFFCURVE",
"183 34 CURVE SMOOTH"
);
},
{
closed = 1;
nodes = (
"150 412 LINE",
"163 416 LINE",
"159 411 OFFCURVE",
"154 408 OFFCURVE",
"148 406 CURVE"
);
},
{
closed = 1;
nodes = (
"448 112 OFFCURVE",
"454 112 OFFCURVE",
"460 115 CURVE",
"465 125 LINE",
"464 125 LINE",
"456 121 OFFCURVE",
"447 118 OFFCURVE",
"441 111 CURVE",
"442 110 LINE"
);
},
{
closed = 1;
nodes = (
"513 190 LINE",
"517 182 LINE",
"509 180 LINE"
);
},
{
closed = 1;
nodes = (
"514 196 LINE",
"514 198 LINE",
"516 201 LINE",
"530 198 LINE",
"524 189 LINE"
);
}
);
width = 509;
}
);
note = O;
unicode = 004F;
},
{
glyphname = OE;
lastChange = "2021-11-19 01:29:12 +0000";
layers = (
{
layerId = "01BDBA83-373F-4081-A4FB-32E4C1670F2F";
paths = (
{
closed = 1;
nodes = (
"629 -32 LINE",
"628 -29 LINE",
"699 -32 OFFCURVE",
"794 16 OFFCURVE",
"845 64 CURVE",
"844 66 LINE",
"849 76 LINE",
"855 73 LINE",
"848 86 LINE",
"835 76 LINE",
"821 73 LINE",
"821 69 LINE",
"818 66 LINE",
"813 69 LINE",
"806 69 OFFCURVE",
"799 68 OFFCURVE",
"794 65 CURVE",
"794 63 LINE",
"784 58 OFFCURVE",
"772 54 OFFCURVE",
"759 54 CURVE",
"710 35 OFFCURVE",
"657 21 OFFCURVE",
"604 21 CURVE SMOOTH",
"555 21 OFFCURVE",
"511 37 OFFCURVE",
"511 93 CURVE SMOOTH",
"511 116 OFFCURVE",
"518 139 OFFCURVE",
"526 160 CURVE",
"532 159 LINE",
"540 170 LINE",
"551 158 LINE",
"551 166 OFFCURVE",
"555 178 OFFCURVE",
"564 178 CURVE",
"577 173 LINE",
"580 173 LINE SMOOTH",
"622 173 OFFCURVE",
"656 204 OFFCURVE",
"698 204 CURVE SMOOTH",
"704 204 LINE",
"709 197 LINE",
"722 205 LINE",
"739 201 LINE",
"742 203 LINE",
"741 209 LINE",
"749 213 LINE",
"762 212 OFFCURVE",
"774 207 OFFCURVE",
"786 207 CURVE SMOOTH",
"799 207 OFFCURVE",
"808 217 OFFCURVE",
"821 217 CURVE SMOOTH",
"830 217 OFFCURVE",
"839 211 OFFCURVE",
"849 211 CURVE SMOOTH",
"854 211 OFFCURVE",
"860 214 OFFCURVE",
"865 217 CURVE",
"878 221 LINE",
"872 226 LINE",
"841 228 OFFCURVE",
"812 229 OFFCURVE",
"781 229 CURVE SMOOTH",
"731 229 OFFCURVE",
"683 221 OFFCURVE",
"634 221 CURVE SMOOTH",
"608 221 OFFCURVE",
"582 223 OFFCURVE",
"556 222 CURVE",
"611 308 OFFCURVE",
"811 429 OFFCURVE",
"912 429 CURVE SMOOTH",
"925 429 OFFCURVE",
"940 427 OFFCURVE",
"948 418 CURVE",
"949 412 OFFCURVE",
"951 406 OFFCURVE",
"951 400 CURVE SMOOTH",
"951 397 OFFCURVE",
"947 388 OFFCURVE",
"947 384 CURVE",
"937 373 LINE",
"935 346 OFFCURVE",
"918 320 OFFCURVE",
"916 295 CURVE",
"920 288 LINE",
"916 263 LINE",
"916 262 LINE",
"945 264 OFFCURVE",
"964 297 OFFCURVE",
"983 315 CURVE",
"1001 315 OFFCURVE",
"998 343 OFFCURVE",
"1004 354 CURVE",
"1003 359 LINE",
"1007 361 LINE",
"1016 357 LINE",
"1018 360 LINE",
"1016 365 LINE",
"1018 369 LINE",
"1009 385 LINE",
"1010 387 LINE",
"1040 375 OFFCURVE",
"1017 416 OFFCURVE",
"1038 422 CURVE",
"1047 418 LINE",
"1070 427 LINE",
"1074 445 LINE",
"1069 458 OFFCURVE",
"978 484 OFFCURVE",
"962 484 CURVE",
"957 481 LINE",
"963 472 OFFCURVE",
"963 462 OFFCURVE",
"963 451 CURVE SMOOTH",
"963 443 OFFCURVE",
"962 429 OFFCURVE",
"950 429 CURVE SMOOTH",
"921 429 OFFCURVE",
"894 445 OFFCURVE",
"865 445 CURVE SMOOTH",
"849 445 OFFCURVE",
"835 438 OFFCURVE",
"821 433 CURVE",
"796 435 OFFCURVE",
"772 428 OFFCURVE",
"748 422 CURVE",
"740 415 LINE",
"707 409 OFFCURVE",
"681 380 OFFCURVE",
"649 372 CURVE",
"639 376 LINE",
"633 365 OFFCURVE",
"623 355 OFFCURVE",
"610 355 CURVE",
"606 358 LINE",
"598 353 LINE",
"597 349 OFFCURVE",
"595 345 OFFCURVE",
"593 342 CURVE",
"565 431 OFFCURVE",
"422 467 OFFCURVE",
"341 467 CURVE SMOOTH",
"296 467 OFFCURVE",
"211 455 OFFCURVE",
"169 438 CURVE",
"172 422 OFFCURVE",
"113 402 OFFCURVE",
"101 394 CURVE",
"98 398 LINE",
"86 386 OFFCURVE",
"76 366 OFFCURVE",
"58 366 CURVE",
"55 362 OFFCURVE",
"54 346 OFFCURVE",
"48 346 CURVE",
"43 349 LINE",
"42 349 LINE",
"33 343 OFFCURVE",
"11 301 OFFCURVE",
"11 291 CURVE SMOOTH",
"11 247 OFFCURVE",
"29 197 OFFCURVE",
"59 165 CURVE",
"57 150 OFFCURVE",
"53 137 OFFCURVE",
"53 122 CURVE SMOOTH",
"53 35 OFFCURVE",
"133 -7 OFFCURVE",
"211 -7 CURVE SMOOTH",
"220 -7 OFFCURVE",
"230 -6 OFFCURVE",
"239 -5 CURVE",
"247 -1 LINE",
"276 -1 OFFCURVE",
"293 22 OFFCURVE",
"320 20 CURVE",
"325 25 OFFCURVE",
"330 30 OFFCURVE",
"337 33 CURVE",
"340 40 LINE",
"337 45 LINE",
"339 51 LINE",
"344 49 LINE",
"350 37 LINE",
"369 40 LINE",
"360 45 LINE",
"354 54 LINE",
"359 66 OFFCURVE",
"376 72 OFFCURVE",
"387 76 CURVE",
"380 67 OFFCURVE",
"372 59 OFFCURVE",
"363 52 CURVE",
"376 51 LINE",
"388 61 LINE",
"390 68 LINE",
"392 66 LINE",
"401 76 OFFCURVE",
"394 85 OFFCURVE",
"409 93 CURVE",
"413 91 LINE",
"420 98 LINE",
"436 104 LINE",
"428 109 LINE",
"439 119 LINE",
"454 131 LINE",
"454 128 OFFCURVE",
"454 124 OFFCURVE",
"455 121 CURVE",
"450 118 OFFCURVE",
"445 115 OFFCURVE",
"441 111 CURVE",
"442 110 LINE",
"447 112 OFFCURVE",
"451 112 OFFCURVE",
"456 113 CURVE",
"466 56 OFFCURVE",
"504 13 OFFCURVE",
"557 -13 CURVE",
"568 -12 OFFCURVE",
"578 -17 OFFCURVE",
"583 -28 CURVE",
"596 -24 LINE",
"605 -28 LINE",
"614 -29 LINE",
"624 -36 LINE"
);
},
{
closed = 1;
nodes = (
"328 39 LINE",
"330 45 LINE",
"335 38 LINE",
"328 36 LINE"
);
},
{
closed = 1;
nodes = (
"102 384 OFFCURVE",
"103 388 OFFCURVE",
"105 391 CURVE",
"106 386 LINE",
"101 382 LINE"
);
},
{
closed = 1;
nodes = (
"130 34 OFFCURVE",
"82 49 OFFCURVE",
"82 110 CURVE SMOOTH",
"82 124 OFFCURVE",
"82 134 OFFCURVE",
"90 146 CURVE",
"116 131 OFFCURVE",
"147 122 OFFCURVE",
"176 122 CURVE SMOOTH",
"185 122 OFFCURVE",
"194 123 OFFCURVE",
"203 125 CURVE",
"191 129 OFFCURVE",
"177 130 OFFCURVE",
"165 133 CURVE",
"145 148 OFFCURVE",
"116 153 OFFCURVE",
"94 166 CURVE",
"99 251 OFFCURVE",
"334 403 OFFCURVE",
"415 403 CURVE SMOOTH",
"435 403 OFFCURVE",
"454 400 OFFCURVE",
"473 404 CURVE",
"461 410 OFFCURVE",
"447 417 OFFCURVE",
"433 417 CURVE SMOOTH",
"400 417 OFFCURVE",
"333 409 OFFCURVE",
"310 384 CURVE",
"292 391 LINE",
"212 373 OFFCURVE",
"96 264 OFFCURVE",
"66 190 CURVE",
"46 205 OFFCURVE",
"36 223 OFFCURVE",
"36 247 CURVE SMOOTH",
"36 316 OFFCURVE",
"85 348 OFFCURVE",
"133 387 CURVE",
"211 415 OFFCURVE",
"284 448 OFFCURVE",
"369 448 CURVE SMOOTH",
"441 448 OFFCURVE",
"532 416 OFFCURVE",
"532 331 CURVE SMOOTH",
"532 320 OFFCURVE",
"531 309 OFFCURVE",
"529 298 CURVE",
"509 282 OFFCURVE",
"488 243 OFFCURVE",
"476 229 CURVE",
"461 207 OFFCURVE",
"456 179 OFFCURVE",
"454 161 CURVE",
"383 87 OFFCURVE",
"277 34 OFFCURVE",
"183 34 CURVE SMOOTH"
);
},
{
closed = 1;
nodes = (
"150 412 LINE",
"163 416 LINE",
"159 411 OFFCURVE",
"154 408 OFFCURVE",
"148 406 CURVE"
);
},
{
closed = 1;
nodes = (
"869 76 LINE",
"874 82 LINE",
"878 81 LINE",
"878 82 LINE",
"896 102 LINE",
"886 102 LINE",
"881 97 OFFCURVE",
"874 94 OFFCURVE",
"866 93 CURVE",
"870 91 LINE",
"862 94 OFFCURVE",
"857 87 OFFCURVE",
"857 79 CURVE",
"862 75 LINE"
);
},
{
closed = 1;
nodes = (
"909 108 OFFCURVE",
"914 112 OFFCURVE",
"918 117 CURVE",
"911 116 OFFCURVE",
"905 114 OFFCURVE",
"900 111 CURVE",
"900 109 LINE",
"904 105 LINE"
);
},
{
closed = 1;
nodes = (
"893 220 LINE",
"885 224 LINE",
"884 220 LINE",
"886 219 LINE"
);
}
);
width = 897;
}
);
note = OE;
rightMetricsKey = E;
unicode = 0152;
},
{
glyphname = P;
lastChange = "2021-11-19 01:29:12 +0000";
layers = (
{
layerId = "01BDBA83-373F-4081-A4FB-32E4C1670F2F";
paths = (
{
closed = 1;
nodes = (
"263 -52 LINE",
"271 -41 OFFCURVE",
"307 -6 OFFCURVE",
"309 3 CURVE",
"305 8 LINE",
"289 -3 OFFCURVE",
"252 -30 OFFCURVE",
"233 -30 CURVE",
"228 -28 LINE",
"224 -23 OFFCURVE",
"222 -15 OFFCURVE",
"221 -8 CURVE",
"217 -4 LINE",
"224 9 LINE",
"220 17 LINE",
"212 22 LINE",
"224 29 LINE",
"230 69 OFFCURVE",
"276 109 OFFCURVE",
"277 115 CURVE",
"273 117 LINE",
"265 115 LINE",
"260 124 LINE",
"260 130 OFFCURVE",
"265 135 OFFCURVE",
"269 140 CURVE",
"266 146 OFFCURVE",
"270 153 OFFCURVE",
"277 152 CURVE",
"283 144 LINE",
"283 137 LINE",
"297 137 OFFCURVE",
"302 161 OFFCURVE",
"303 172 CURVE",
"320 187 OFFCURVE",
"393 186 OFFCURVE",
"396 189 CURVE",
"395 183 LINE",
"404 183 OFFCURVE",
"414 188 OFFCURVE",
"423 184 CURVE SMOOTH",
"425 183 LINE",
"425 184 LINE",
"427 188 LINE",
"431 184 LINE",
"436 183 LINE",
"436 188 LINE",
"457 186 OFFCURVE",
"473 202 OFFCURVE",
"494 202 CURVE SMOOTH",
"501 202 OFFCURVE",
"506 202 OFFCURVE",
"511 207 CURVE",
"512 205 LINE",
"539 208 OFFCURVE",
"545 202 OFFCURVE",
"570 220 CURVE",
"570 214 LINE",
"610 226 LINE",
"614 222 LINE",
"616 222 LINE",
"616 227 LINE",
"629 226 LINE",
"694 243 OFFCURVE",
"716 249 OFFCURVE",
"724 326 CURVE",
"719 335 OFFCURVE",
"716 346 OFFCURVE",
"714 356 CURVE",
"701 369 OFFCURVE",
"652 415 OFFCURVE",
"635 415 CURVE",
"632 414 LINE",
"589 427 LINE",
"571 426 OFFCURVE",
"491 437 OFFCURVE",
"485 454 CURVE",
"468 454 OFFCURVE",
"454 466 OFFCURVE",
"436 466 CURVE SMOOTH",
"419 466 OFFCURVE",
"414 446 OFFCURVE",
"405 436 CURVE",
"396 436 OFFCURVE",
"387 435 OFFCURVE",
"378 435 CURVE",
"369 431 LINE",
"368 430 LINE",
"341 431 LINE",
"339 428 LINE",
"332 425 LINE",
"317 425 LINE",
"316 426 LINE",
"314 427 LINE",
"316 425 LINE",
"310 427 LINE",
"308 422 LINE",
"302 421 LINE",
"302 422 OFFCURVE",
"299 424 OFFCURVE",
"299 422 CURVE",
"300 421 LINE",
"295 422 LINE",
"295 421 LINE",
"280 416 LINE",
"280 418 LINE",
"267 413 OFFCURVE",
"255 410 OFFCURVE",
"243 407 CURVE",
"243 409 LINE",
"232 406 OFFCURVE",
"222 400 OFFCURVE",
"211 400 CURVE SMOOTH",
"208 400 OFFCURVE",
"202 402 OFFCURVE",
"199 403 CURVE",
"200 404 LINE",
"130 371 OFFCURVE",
"54 345 OFFCURVE",
"4 283 CURVE",
"4 267 OFFCURVE",
"18 256 OFFCURVE",
"23 242 CURVE",
"57 225 LINE",
"56 243 LINE",
"57 245 LINE",
"68 247 LINE",
"72 254 LINE",
"78 256 LINE",
"102 281 OFFCURVE",
"125 305 OFFCURVE",
"154 324 CURVE",
"155 326 LINE",
"141 321 LINE",
"130 321 OFFCURVE",
"120 321 OFFCURVE",
"111 316 CURVE",
"103 319 LINE",
"109 356 OFFCURVE",
"332 399 OFFCURVE",
"368 400 CURVE",
"312 317 OFFCURVE",
"160 90 OFFCURVE",
"160 -3 CURVE SMOOTH",
"160 -41 OFFCURVE",
"220 -52 OFFCURVE",
"250 -52 CURVE SMOOTH"
);
},
{
closed = 1;
nodes = (
"329 27 LINE",
"326 29 LINE",
"320 28 OFFCURVE",
"309 21 OFFCURVE",
"309 14 CURVE",
"316 12 LINE"
);
},
{
closed = 1;
nodes = (
"170 326 LINE",
"172 328 LINE",
"170 331 LINE",
"167 333 LINE",
"165 326 LINE"
);
},
{
closed = 1;
nodes = (
"323 204 LINE",
"320 208 LINE",
"322 215 LINE",
"337 235 OFFCURVE",
"346 274 OFFCURVE",
"369 284 CURVE",
"369 294 LINE",
"384 330 OFFCURVE",
"434 384 OFFCURVE",
"463 411 CURVE",
"478 409 OFFCURVE",
"492 409 OFFCURVE",
"507 409 CURVE SMOOTH",
"519 409 LINE",
"527 403 LINE",
"538 403 OFFCURVE",
"544 407 OFFCURVE",
"555 402 CURVE",
"558 402 LINE",
"558 403 LINE",
"587 400 OFFCURVE",
"610 381 OFFCURVE",
"637 372 CURVE SMOOTH",
"635 373 LINE",
"651 371 OFFCURVE",
"659 354 OFFCURVE",
"665 342 CURVE",
"664 300 OFFCURVE",
"612 278 OFFCURVE",
"577 265 CURVE",
"576 264 LINE",
"493 233 OFFCURVE",
"407 220 OFFCURVE",
"321 202 CURVE"
);
}
);
width = 605;
}
);
note = P;
unicode = 0050;
},
{
glyphname = Thorn;
lastChange = "2021-11-19 01:29:12 +0000";
layers = (
{
layerId = "01BDBA83-373F-4081-A4FB-32E4C1670F2F";
paths = (
{
closed = 1;
nodes = (
"71 -49 OFFCURVE",
"89 -44 OFFCURVE",
"105 -36 CURVE",
"97 -22 OFFCURVE",
"90 -8 OFFCURVE",
"87 8 CURVE",
"81 10 OFFCURVE",
"76 14 OFFCURVE",
"73 20 CURVE",
"74 30 OFFCURVE",
"79 68 OFFCURVE",
"67 72 CURVE",
"69 75 LINE",
"67 87 LINE",
"76 103 OFFCURVE",
"82 120 OFFCURVE",
"85 137 CURVE",
"91 131 LINE",
"95 137 LINE",
"102 134 LINE",
"104 149 LINE",
"101 151 LINE",
"98 145 LINE",
"98 142 LINE",
"92 146 LINE",
"88 140 LINE",
"85 148 LINE",
"85 159 OFFCURVE",
"92 170 OFFCURVE",
"95 181 CURVE",
"103 157 OFFCURVE",
"134 155 OFFCURVE",
"155 154 CURVE",
"157 160 LINE",
"163 160 OFFCURVE",
"170 160 OFFCURVE",
"176 159 CURVE",
"201 175 LINE",
"211 170 LINE",
"223 183 OFFCURVE",
"245 187 OFFCURVE",
"262 187 CURVE SMOOTH",
"265 187 OFFCURVE",
"269 185 OFFCURVE",
"273 184 CURVE",
"277 189 OFFCURVE",
"283 193 OFFCURVE",
"287 196 CURVE",
"303 192 LINE",
"318 202 OFFCURVE",
"331 213 OFFCURVE",
"345 224 CURVE",
"358 223 OFFCURVE",
"371 222 OFFCURVE",
"384 220 CURVE",
"373 229 LINE",
"381 239 LINE",
"392 239 LINE",
"387 251 LINE",
"394 256 LINE",
"405 244 LINE",
"411 251 OFFCURVE",
"419 256 OFFCURVE",
"428 256 CURVE SMOOTH",
"432 256 OFFCURVE",
"436 255 OFFCURVE",
"439 254 CURVE",
"450 262 OFFCURVE",
"480 282 OFFCURVE",
"492 282 CURVE SMOOTH",
"499 282 OFFCURVE",
"505 278 OFFCURVE",
"509 274 CURVE",
"514 275 LINE",
"508 283 OFFCURVE",
"502 290 OFFCURVE",
"498 298 CURVE",
"504 314 OFFCURVE",
"517 326 OFFCURVE",
"534 330 CURVE",
"532 337 OFFCURVE",
"531 345 OFFCURVE",
"533 352 CURVE",
"529 346 OFFCURVE",
"526 339 OFFCURVE",
"521 333 CURVE",
"520 337 OFFCURVE",
"518 344 OFFCURVE",
"518 348 CURVE SMOOTH",
"518 358 OFFCURVE",
"519 369 OFFCURVE",
"522 379 CURVE",
"513 383 OFFCURVE",
"508 392 OFFCURVE",
"502 400 CURVE",
"440 439 LINE",
"416 439 OFFCURVE",
"395 453 OFFCURVE",
"373 458 CURVE",
"382 450 LINE",
"379 450 LINE SMOOTH",
"370 450 OFFCURVE",
"362 452 OFFCURVE",
"355 457 CURVE",
"350 447 LINE",
"355 442 LINE",
"356 434 LINE",
"346 432 LINE",
"334 437 LINE",
"343 451 LINE",
"329 450 OFFCURVE",
"305 446 OFFCURVE",
"297 460 CURVE",
"295 452 OFFCURVE",
"286 449 OFFCURVE",
"279 449 CURVE SMOOTH",
"271 450 LINE",
"278 458 LINE",
"276 461 LINE",
"268 460 OFFCURVE",
"259 459 OFFCURVE",
"251 459 CURVE",
"254 470 OFFCURVE",
"259 483 OFFCURVE",
"272 485 CURVE",
"285 510 OFFCURVE",
"301 537 OFFCURVE",
"301 567 CURVE SMOOTH",
"301 608 OFFCURVE",
"272 619 OFFCURVE",
"236 623 CURVE",
"238 595 OFFCURVE",
"229 576 OFFCURVE",
"223 550 CURVE",
"216 541 LINE",
"223 532 LINE",
"224 532 LINE",
"222 520 OFFCURVE",
"217 508 OFFCURVE",
"210 499 CURVE",
"212 487 LINE",
"186 454 OFFCURVE",
"191 408 OFFCURVE",
"161 377 CURVE",
"168 382 OFFCURVE",
"175 387 OFFCURVE",
"184 391 CURVE",
"184 380 OFFCURVE",
"179 371 OFFCURVE",
"170 365 CURVE",
"172 361 LINE",
"170 355 LINE",
"157 360 LINE",
"148 348 OFFCURVE",
"139 336 OFFCURVE",
"133 323 CURVE",
"139 318 OFFCURVE",
"143 310 OFFCURVE",
"144 301 CURVE",
"114 292 OFFCURVE",
"107 250 OFFCURVE",
"98 225 CURVE",
"100 216 LINE",
"90 209 OFFCURVE",
"85 197 OFFCURVE",
"85 185 CURVE",
"78 172 LINE",
"67 163 OFFCURVE",
"22 21 OFFCURVE",
"6 -8 CURVE",
"19 -32 OFFCURVE",
"22 -49 OFFCURVE",
"53 -49 CURVE SMOOTH"
);
},
{
closed = 1;
nodes = (
"55 23 LINE",
"58 40 LINE",
"62 40 LINE",
"60 18 LINE"
);
},
{
closed = 1;
nodes = (
"85 78 OFFCURVE",
"89 89 OFFCURVE",
"91 101 CURVE",
"83 95 OFFCURVE",
"76 88 OFFCURVE",
"72 79 CURVE",
"81 67 LINE"
);
},
{
closed = 1;
nodes = (
"106 194 LINE",
"108 202 LINE",
"115 202 LINE",
"120 199 LINE",
"114 192 LINE",
"109 189 LINE"
);
},
{
closed = 1;
nodes = (
"174 217 LINE",
"171 229 LINE",
"167 227 LINE",
"166 217 LINE",
"171 213 LINE"
);
},
{
closed = 1;
nodes = (
"189 223 LINE",
"195 233 LINE",
"191 236 LINE",
"184 234 LINE",
"180 226 LINE",
"186 223 LINE"
);
},
{
closed = 1;
nodes = (
"238 234 LINE",
"235 241 LINE",
"226 235 LINE",
"229 233 LINE"
);
},
{
closed = 1;
nodes = (
"251 238 LINE",
"250 242 LINE",
"244 238 LINE"
);
},
{
closed = 1;
nodes = (
"155 317 LINE",
"164 321 OFFCURVE",
"171 328 OFFCURVE",
"177 336 CURVE",
"165 310 LINE"
);
},
{
closed = 1;
nodes = (
"160 333 LINE",
"155 337 LINE",
"161 348 LINE",
"165 340 LINE",
"162 333 LINE"
);
},
{
closed = 1;
nodes = (
"303 247 LINE",
"305 247 LINE",
"312 252 LINE",
"293 252 LINE",
"296 246 LINE",
"295 241 LINE"
);
},
{
closed = 1;
nodes = (
"167 209 OFFCURVE",
"157 218 OFFCURVE",
"146 221 CURVE",
"137 220 OFFCURVE",
"128 217 OFFCURVE",
"119 214 CURVE",
"119 231 OFFCURVE",
"141 240 OFFCURVE",
"141 265 CURVE",
"146 266 LINE",
"151 264 LINE",
"164 276 LINE",
"161 283 OFFCURVE",
"156 287 OFFCURVE",
"149 290 CURVE",
"161 308 LINE",
"158 296 LINE",
"167 297 LINE",
"173 301 OFFCURVE",
"177 305 OFFCURVE",
"182 310 CURVE",
"184 328 OFFCURVE",
"191 344 OFFCURVE",
"197 361 CURVE",
"181 344 LINE",
"178 351 LINE",
"184 356 OFFCURVE",
"190 362 OFFCURVE",
"194 369 CURVE",
"202 369 LINE",
"207 374 OFFCURVE",
"211 380 OFFCURVE",
"213 386 CURVE",
"211 391 LINE",
"200 388 LINE",
"202 399 OFFCURVE",
"220 411 OFFCURVE",
"228 418 CURVE",
"239 416 OFFCURVE",
"250 414 OFFCURVE",
"262 411 CURVE",
"261 411 LINE",
"264 409 LINE",
"263 407 LINE",
"282 407 OFFCURVE",
"301 415 OFFCURVE",
"319 415 CURVE SMOOTH",
"331 415 LINE",
"336 409 LINE",
"343 409 LINE SMOOTH",
"345 409 OFFCURVE",
"348 407 OFFCURVE",
"351 407 CURVE SMOOTH",
"364 407 OFFCURVE",
"375 413 OFFCURVE",
"386 418 CURVE",
"395 407 LINE",
"429 400 OFFCURVE",
"485 393 OFFCURVE",
"495 353 CURVE",
"485 346 OFFCURVE",
"476 339 OFFCURVE",
"467 331 CURVE",
"469 330 OFFCURVE",
"472 328 OFFCURVE",
"475 329 CURVE",
"475 314 OFFCURVE",
"460 312 OFFCURVE",
"448 311 CURVE",
"443 325 LINE",
"436 323 LINE",
"440 315 OFFCURVE",
"443 306 OFFCURVE",
"445 297 CURVE",
"439 300 LINE",
"437 294 OFFCURVE",
"436 289 OFFCURVE",
"436 283 CURVE SMOOTH",
"436 281 LINE",
"427 274 LINE",
"422 278 OFFCURVE",
"417 283 OFFCURVE",
"413 289 CURVE",
"403 280 OFFCURVE",
"394 271 OFFCURVE",
"385 261 CURVE",
"383 266 OFFCURVE",
"380 271 OFFCURVE",
"375 274 CURVE",
"365 268 LINE",
"373 258 LINE",
"364 250 LINE",
"347 254 OFFCURVE",
"339 241 OFFCURVE",
"324 241 CURVE SMOOTH",
"317 241 OFFCURVE",
"310 241 OFFCURVE",
"304 239 CURVE",
"300 233 OFFCURVE",
"293 226 OFFCURVE",
"284 226 CURVE SMOOTH",
"274 226 OFFCURVE",
"265 232 OFFCURVE",
"254 233 CURVE",
"255 220 LINE",
"246 215 LINE",
"224 212 OFFCURVE",
"202 209 OFFCURVE",
"180 209 CURVE SMOOTH"
);
},
{
closed = 1;
nodes = (
"216 514 LINE",
"218 518 LINE",
"214 521 LINE",
"205 510 LINE",
"207 509 LINE"
);
},
{
closed = 1;
nodes = (
"491 267 LINE",
"491 270 LINE",
"488 274 LINE",
"484 273 LINE",
"480 265 LINE",
"481 262 LINE"
);
},
{
closed = 1;
nodes = (
"326 422 LINE",
"336 432 LINE",
"340 425 LINE",
"327 418 LINE"
);
},
{
closed = 1;
nodes = (
"525 299 LINE",
"511 306 LINE",
"508 299 LINE",
"514 292 LINE"
);
},
{
closed = 1;
nodes = (
"410 416 LINE",
"410 418 LINE",
"402 424 LINE",
"404 424 LINE",
"412 428 LINE",
"417 409 LINE"
);
}
);
width = 427;
}
);
note = Thorn;
unicode = 00DE;
},
{
glyphname = Q;
lastChange = "2021-11-19 01:29:12 +0000";
layers = (
{
layerId = "01BDBA83-373F-4081-A4FB-32E4C1670F2F";
paths = (
{
closed = 1;
nodes = (
"610 -237 OFFCURVE",
"623 -236 OFFCURVE",
"664 -183 CURVE",
"628 -193 OFFCURVE",
"599 -215 OFFCURVE",
"561 -215 CURVE SMOOTH",
"552 -215 OFFCURVE",
"544 -214 OFFCURVE",
"535 -212 CURVE",
"526 -212 LINE",
"458 -173 OFFCURVE",
"354 -69 OFFCURVE",
"305 -6 CURVE",
"331 -6 LINE",
"338 -2 LINE",
"367 -2 OFFCURVE",
"391 17 OFFCURVE",
"419 20 CURVE",
"437 38 LINE",
"433 44 LINE",
"445 47 LINE",
"447 38 LINE",
"460 49 LINE",
"452 53 LINE",
"456 55 LINE",
"464 50 LINE",
"472 53 LINE",
"482 49 OFFCURVE",
"489 60 OFFCURVE",
"490 68 CURVE",
"496 67 LINE",
"502 72 LINE",
"482 81 LINE",
"480 87 LINE",
"492 97 LINE",
"508 94 LINE",
"504 101 LINE",
"521 108 LINE",
"521 109 LINE",
"512 113 LINE",
"522 124 OFFCURVE",
"542 143 OFFCURVE",
"557 143 CURVE SMOOTH",
"560 143 OFFCURVE",
"562 141 OFFCURVE",
"565 141 CURVE",
"578 150 OFFCURVE",
"639 185 OFFCURVE",
"641 197 CURVE",
"672 223 OFFCURVE",
"673 265 OFFCURVE",
"673 303 CURVE SMOOTH",
"673 422 OFFCURVE",
"440 471 OFFCURVE",
"350 471 CURVE SMOOTH",
"307 471 OFFCURVE",
"265 463 OFFCURVE",
"222 455 CURVE",
"222 454 LINE",
"229 453 LINE",
"245 454 LINE",
"247 452 LINE",
"245 450 LINE",
"188 450 OFFCURVE",
"130 427 OFFCURVE",
"82 399 CURVE",
"74 398 LINE",
"39 373 OFFCURVE",
"4 344 OFFCURVE",
"4 298 CURVE SMOOTH",
"4 199 OFFCURVE",
"81 182 OFFCURVE",
"81 157 CURVE SMOOTH",
"81 148 OFFCURVE",
"76 139 OFFCURVE",
"76 130 CURVE SMOOTH",
"76 82 OFFCURVE",
"148 25 OFFCURVE",
"189 11 CURVE",
"196 4 OFFCURVE",
"205 -3 OFFCURVE",
"215 -5 CURVE",
"217 -12 LINE",
"223 -11 LINE",
"222 -15 LINE",
"224 -17 LINE",
"229 -10 LINE",
"279 -65 OFFCURVE",
"323 -124 OFFCURVE",
"375 -176 CURVE",
"382 -192 OFFCURVE",
"400 -200 OFFCURVE",
"416 -202 CURVE",
"417 -194 LINE",
"423 -198 LINE",
"425 -204 LINE",
"431 -212 LINE",
"442 -206 LINE",
"450 -213 OFFCURVE",
"459 -221 OFFCURVE",
"470 -221 CURVE SMOOTH",
"472 -221 OFFCURVE",
"476 -220 OFFCURVE",
"479 -219 CURVE",
"485 -225 LINE",
"493 -225 LINE SMOOTH",
"503 -226 OFFCURVE",
"513 -220 OFFCURVE",
"523 -220 CURVE SMOOTH",
"529 -220 OFFCURVE",
"535 -223 OFFCURVE",
"538 -229 CURVE",
"537 -233 LINE",
"545 -236 LINE"
);
},
{
closed = 1;
nodes = (
"423 39 LINE",
"426 45 LINE",
"432 37 LINE",
"424 36 LINE"
);
},
{
closed = 1;
nodes = (
"87 393 LINE",
"89 391 LINE",
"85 385 LINE"
);
},
{
closed = 1;
nodes = (
"95 391 LINE",
"95 392 LINE",
"103 400 LINE",
"106 399 LINE",
"98 391 LINE"
);
},
{
closed = 1;
nodes = (
"460 68 LINE",
"471 73 LINE",
"473 71 LINE",
"470 67 OFFCURVE",
"464 63 OFFCURVE",
"459 61 CURVE"
);
},
{
closed = 1;
nodes = (
"135 417 LINE",
"145 420 LINE",
"148 418 LINE",
"146 414 OFFCURVE",
"139 411 OFFCURVE",
"134 409 CURVE"
);
},
{
closed = 1;
nodes = (
"257 57 OFFCURVE",
"232 94 OFFCURVE",
"208 94 CURVE SMOOTH",
"192 94 OFFCURVE",
"177 77 OFFCURVE",
"167 67 CURVE",
"169 50 LINE",
"139 67 OFFCURVE",
"129 97 OFFCURVE",
"129 130 CURVE SMOOTH",
"129 138 OFFCURVE",
"128 146 OFFCURVE",
"133 152 CURVE",
"159 142 OFFCURVE",
"217 116 OFFCURVE",
"242 116 CURVE SMOOTH",
"250 116 OFFCURVE",
"258 120 OFFCURVE",
"265 123 CURVE",
"245 128 OFFCURVE",
"133 155 OFFCURVE",
"133 175 CURVE SMOOTH",
"133 203 OFFCURVE",
"202 276 OFFCURVE",
"225 297 CURVE SMOOTH",
"282 351 OFFCURVE",
"377 406 OFFCURVE",
"456 406 CURVE SMOOTH",
"470 406 OFFCURVE",
"482 402 OFFCURVE",
"495 400 CURVE",
"509 407 LINE",
"508 409 LINE",
"494 416 OFFCURVE",
"477 421 OFFCURVE",
"461 421 CURVE SMOOTH",
"383 421 OFFCURVE",
"365 400 OFFCURVE",
"309 391 CURVE",
"303 393 LINE",
"274 383 OFFCURVE",
"138 322 OFFCURVE",
"140 292 CURVE SMOOTH",
"140 280 LINE",
"132 287 LINE",
"137 269 LINE",
"137 267 LINE",
"135 267 LINE",
"121 276 LINE",
"108 263 LINE",
"110 263 LINE",
"116 258 LINE",
"82 238 OFFCURVE",
"96 193 OFFCURVE",
"76 193 CURVE SMOOTH",
"66 193 OFFCURVE",
"39 253 OFFCURVE",
"39 263 CURVE SMOOTH",
"39 403 OFFCURVE",
"282 453 OFFCURVE",
"387 453 CURVE SMOOTH",
"472 453 OFFCURVE",
"606 406 OFFCURVE",
"606 303 CURVE SMOOTH",
"606 294 OFFCURVE",
"605 284 OFFCURVE",
"602 275 CURVE",
"605 265 LINE",
"600 236 OFFCURVE",
"584 215 OFFCURVE",
"565 193 CURVE SMOOTH",
"545 170 OFFCURVE",
"529 146 OFFCURVE",
"506 126 CURVE SMOOTH",
"452 80 OFFCURVE",
"342 49 OFFCURVE",
"271 39 CURVE"
);
},
{
closed = 1;
nodes = (
"535 117 LINE",
"541 120 LINE",
"531 121 LINE",
"530 118 LINE",
"531 117 LINE"
);
},
{
closed = 1;
nodes = (
"559 152 LINE",
"565 157 LINE",
"568 156 LINE",
"561 151 LINE"
);
},
{
closed = 1;
nodes = (
"568 167 LINE",
"574 172 LINE",
"573 177 LINE",
"576 183 LINE",
"580 179 LINE",
"590 184 LINE",
"595 181 OFFCURVE",
"600 179 OFFCURVE",
"605 177 CURVE",
"598 174 OFFCURVE",
"590 173 OFFCURVE",
"583 173 CURVE",
"579 166 LINE",
"582 166 LINE",
"575 157 LINE"
);
},
{
closed = 1;
nodes = (
"598 198 LINE",
"602 203 LINE",
"606 202 LINE",
"601 197 LINE"
);
},
{
closed = 1;
nodes = (
"524 392 LINE",
"517 400 LINE",
"515 394 LINE",
"516 391 LINE"
);
}
);
width = 559;
}
);
note = Q;
unicode = 0051;
},
{
glyphname = R;
lastChange = "2021-11-19 01:29:12 +0000";
layers = (
{
anchors = (
{
name = bottom;
position = "{339, -48}";
},
{
name = top;
position = "{589, 427}";
}
);
layerId = "01BDBA83-373F-4081-A4FB-32E4C1670F2F";
paths = (
{
closed = 1;
nodes = (
"637 -56 OFFCURVE",
"689 -44 OFFCURVE",
"701 -33 CURVE",
"697 -33 LINE SMOOTH",
"677 -33 OFFCURVE",
"657 -39 OFFCURVE",
"637 -39 CURVE SMOOTH",
"601 -39 OFFCURVE",
"567 -25 OFFCURVE",
"532 -22 CURVE",
"438 44 OFFCURVE",
"407 80 OFFCURVE",
"357 184 CURVE",
"369 186 OFFCURVE",
"382 190 OFFCURVE",
"394 188 CURVE",
"396 189 LINE",
"395 183 LINE",
"404 183 OFFCURVE",
"414 188 OFFCURVE",
"423 184 CURVE SMOOTH",
"425 183 LINE",
"425 184 LINE",
"427 188 LINE",
"431 184 LINE",
"436 183 LINE",
"436 188 LINE",
"456 185 OFFCURVE",
"473 202 OFFCURVE",
"494 202 CURVE SMOOTH",
"501 202 OFFCURVE",
"506 202 OFFCURVE",
"511 207 CURVE",
"512 205 LINE",
"539 208 OFFCURVE",
"545 202 OFFCURVE",
"570 220 CURVE",
"570 214 LINE",
"610 226 LINE",
"614 222 LINE",
"616 222 LINE",
"616 227 LINE",
"629 226 LINE",
"694 243 OFFCURVE",
"716 249 OFFCURVE",
"724 326 CURVE",
"719 335 OFFCURVE",
"716 346 OFFCURVE",
"714 356 CURVE",
"700 369 OFFCURVE",
"652 415 OFFCURVE",
"635 415 CURVE",
"632 414 LINE",
"589 427 LINE",
"571 426 OFFCURVE",
"491 437 OFFCURVE",
"485 454 CURVE",
"468 454 OFFCURVE",
"454 466 OFFCURVE",
"436 466 CURVE SMOOTH",
"419 466 OFFCURVE",
"414 446 OFFCURVE",
"405 436 CURVE",
"396 436 OFFCURVE",
"387 435 OFFCURVE",
"378 435 CURVE",
"369 431 LINE",
"368 430 LINE",
"341 431 LINE",
"339 428 LINE",
"332 425 LINE",
"317 425 LINE",
"317 427 LINE",
"314 427 LINE",
"316 425 LINE",
"310 427 LINE",
"299 422 LINE",
"300 421 LINE",
"295 422 LINE",
"295 421 LINE",
"280 416 LINE",
"280 418 LINE",
"267 413 OFFCURVE",
"255 410 OFFCURVE",
"243 407 CURVE",
"243 409 LINE",
"232 406 OFFCURVE",
"222 400 OFFCURVE",
"211 400 CURVE SMOOTH",
"208 400 OFFCURVE",
"202 402 OFFCURVE",
"199 403 CURVE",
"200 404 LINE",
"130 371 OFFCURVE",
"54 345 OFFCURVE",
"4 283 CURVE",
"4 267 OFFCURVE",
"18 256 OFFCURVE",
"23 242 CURVE",
"57 225 LINE",
"56 243 LINE",
"57 245 LINE",
"68 247 LINE",
"72 254 LINE",
"78 256 LINE",
"102 281 OFFCURVE",
"125 305 OFFCURVE",
"154 324 CURVE",
"155 326 LINE",
"141 321 LINE",
"130 321 OFFCURVE",
"120 321 OFFCURVE",
"111 316 CURVE",
"103 319 LINE",
"108 356 OFFCURVE",
"332 399 OFFCURVE",
"368 400 CURVE",
"319 325 LINE",
"302 331 LINE",
"306 333 LINE",
"285 333 OFFCURVE",
"265 325 OFFCURVE",
"246 319 CURVE",
"242 308 LINE",
"244 301 LINE",
"245 301 LINE",
"255 297 OFFCURVE",
"246 248 OFFCURVE",
"265 249 CURVE",
"268 244 LINE",
"235 189 OFFCURVE",
"160 59 OFFCURVE",
"160 -3 CURVE SMOOTH",
"160 -41 OFFCURVE",
"220 -52 OFFCURVE",
"250 -52 CURVE SMOOTH",
"263 -52 LINE",
"271 -41 OFFCURVE",
"307 -6 OFFCURVE",
"309 3 CURVE",
"305 8 LINE",
"289 -3 OFFCURVE",
"252 -30 OFFCURVE",
"233 -30 CURVE",
"228 -28 LINE",
"224 -23 OFFCURVE",
"222 -15 OFFCURVE",
"221 -8 CURVE",
"217 -4 LINE",
"224 9 LINE",
"220 17 LINE",
"212 22 LINE",
"224 29 LINE",
"230 69 OFFCURVE",
"276 109 OFFCURVE",
"277 115 CURVE",
"273 117 LINE",
"265 115 LINE",
"260 124 LINE",
"260 130 OFFCURVE",
"265 135 OFFCURVE",
"269 140 CURVE",
"266 146 OFFCURVE",
"270 153 OFFCURVE",
"277 152 CURVE",
"283 144 LINE",
"283 137 LINE",
"295 137 OFFCURVE",
"301 154 OFFCURVE",
"302 164 CURVE",
"305 164 LINE",
"313 156 LINE",
"312 147 OFFCURVE",
"311 132 OFFCURVE",
"319 126 CURVE",
"323 127 LINE",
"326 121 LINE",
"321 112 LINE",
"331 98 OFFCURVE",
"363 49 OFFCURVE",
"373 40 CURVE",
"374 25 OFFCURVE",
"396 16 OFFCURVE",
"409 13 CURVE",
"413 18 LINE",
"418 13 LINE",
"418 8 LINE",
"422 1 LINE",
"437 3 LINE",
"446 -7 OFFCURVE",
"456 -15 OFFCURVE",
"471 -15 CURVE SMOOTH",
"474 -15 LINE",
"479 -21 LINE",
"493 -26 OFFCURVE",
"532 -21 OFFCURVE",
"538 -36 CURVE",
"536 -40 LINE",
"564 -45 OFFCURVE",
"591 -56 OFFCURVE",
"620 -56 CURVE SMOOTH"
);
},
{
closed = 1;
nodes = (
"329 27 LINE",
"326 29 LINE",
"320 28 OFFCURVE",
"309 21 OFFCURVE",
"309 14 CURVE",
"316 12 LINE"
);
},
{
closed = 1;
nodes = (
"347 220 OFFCURVE",
"344 232 OFFCURVE",
"339 245 CURVE",
"346 258 OFFCURVE",
"354 277 OFFCURVE",
"369 284 CURVE",
"369 294 LINE",
"383 328 OFFCURVE",
"436 386 OFFCURVE",
"463 411 CURVE",
"478 409 OFFCURVE",
"492 409 OFFCURVE",
"507 409 CURVE SMOOTH",
"519 409 LINE",
"527 403 LINE",
"538 403 OFFCURVE",
"544 407 OFFCURVE",
"555 402 CURVE",
"558 402 LINE",
"558 403 LINE",
"587 400 OFFCURVE",
"662 359 OFFCURVE",
"637 372 CURVE SMOOTH",
"635 373 LINE",
"651 371 OFFCURVE",
"659 354 OFFCURVE",
"665 342 CURVE",
"664 300 OFFCURVE",
"612 278 OFFCURVE",
"577 265 CURVE",
"576 264 LINE",
"502 237 OFFCURVE",
"425 222 OFFCURVE",
"347 207 CURVE"
);
}
);
width = 564;
}
);
note = R;
unicode = 0052;
},
{
glyphname = S;
lastChange = "2021-11-19 01:29:12 +0000";
layers = (
{
anchors = (
{
name = bottom;
position = "{126, -42}";
},
{
name = top;
position = "{401, 480}";
}
);
layerId = "01BDBA83-373F-4081-A4FB-32E4C1670F2F";
paths = (
{
closed = 1;
nodes = (
"117 -64 OFFCURVE",
"301 -10 OFFCURVE",
"338 40 CURVE",
"341 38 LINE",
"344 45 OFFCURVE",
"350 49 OFFCURVE",
"356 52 CURVE",
"364 50 OFFCURVE",
"384 73 OFFCURVE",
"395 76 CURVE",
"403 88 OFFCURVE",
"403 97 OFFCURVE",
"418 103 CURVE",
"424 118 OFFCURVE",
"435 131 OFFCURVE",
"435 148 CURVE SMOOTH",
"435 244 OFFCURVE",
"155 193 OFFCURVE",
"155 288 CURVE SMOOTH",
"155 296 OFFCURVE",
"157 304 OFFCURVE",
"162 311 CURVE",
"160 301 OFFCURVE",
"157 281 OFFCURVE",
"166 274 CURVE",
"157 344 OFFCURVE",
"367 441 OFFCURVE",
"426 441 CURVE SMOOTH",
"446 441 OFFCURVE",
"459 425 OFFCURVE",
"470 409 CURVE",
"462 390 OFFCURVE",
"455 362 OFFCURVE",
"451 340 CURVE",
"454 335 LINE",
"451 315 LINE",
"451 313 LINE",
"474 316 OFFCURVE",
"490 342 OFFCURVE",
"505 356 CURVE",
"520 357 OFFCURVE",
"519 383 OFFCURVE",
"524 394 CURVE",
"531 391 LINE",
"534 392 LINE",
"531 397 LINE",
"533 400 LINE",
"526 414 LINE",
"526 415 LINE",
"535 411 LINE",
"544 414 OFFCURVE",
"537 438 OFFCURVE",
"550 443 CURVE",
"557 440 LINE",
"575 447 LINE",
"579 462 LINE",
"573 472 OFFCURVE",
"501 493 OFFCURVE",
"488 493 CURVE",
"484 491 LINE",
"488 484 OFFCURVE",
"489 475 OFFCURVE",
"489 466 CURVE SMOOTH",
"489 459 OFFCURVE",
"486 452 OFFCURVE",
"478 449 CURVE",
"472 475 OFFCURVE",
"451 479 OFFCURVE",
"428 482 CURVE",
"366 463 OFFCURVE",
"131 361 OFFCURVE",
"130 290 CURVE",
"132 287 LINE",
"137 290 LINE",
"136 178 OFFCURVE",
"370 211 OFFCURVE",
"364 151 CURVE",
"364 141 LINE",
"356 137 LINE",
"349 126 LINE",
"338 121 OFFCURVE",
"241 49 OFFCURVE",
"231 38 CURVE",
"222 36 OFFCURVE",
"214 32 OFFCURVE",
"206 28 CURVE",
"198 29 LINE",
"199 26 LINE",
"196 18 OFFCURVE",
"188 17 OFFCURVE",
"181 17 CURVE",
"181 16 LINE",
"145 4 OFFCURVE",
"77 -19 OFFCURVE",
"41 -19 CURVE SMOOTH",
"34 -19 OFFCURVE",
"26 -16 OFFCURVE",
"22 -10 CURVE",
"34 52 LINE",
"40 63 OFFCURVE",
"47 74 OFFCURVE",
"55 84 CURVE",
"50 87 LINE",
"42 85 OFFCURVE",
"38 72 OFFCURVE",
"34 66 CURVE",
"26 61 OFFCURVE",
"19 54 OFFCURVE",
"14 46 CURVE",
"14 43 LINE",
"5 26 OFFCURVE",
"-5 6 OFFCURVE",
"-5 -14 CURVE SMOOTH",
"-5 -41 OFFCURVE",
"30 -64 OFFCURVE",
"54 -64 CURVE SMOOTH"
);
},
{
closed = 1;
nodes = (
"378 85 LINE",
"381 94 LINE",
"385 90 LINE",
"397 101 LINE",
"389 85 LINE",
"378 84 LINE"
);
},
{
closed = 1;
nodes = (
"402 103 LINE",
"400 109 LINE",
"416 114 LINE",
"416 113 LINE",
"406 102 LINE"
);
},
{
closed = 1;
nodes = (
"401 117 LINE",
"402 125 OFFCURVE",
"406 132 OFFCURVE",
"412 138 CURVE",
"413 129 LINE",
"412 120 LINE",
"405 116 LINE"
);
},
{
closed = 1;
nodes = (
"373 176 LINE",
"379 179 LINE",
"382 175 LINE",
"380 170 LINE"
);
},
{
closed = 1;
nodes = (
"424 133 LINE",
"417 135 LINE",
"417 139 LINE",
"418 144 LINE",
"424 135 LINE"
);
},
{
closed = 1;
nodes = (
"450 306 LINE",
"445 310 LINE",
"440 295 LINE"
);
}
);
width = 414;
}
);
note = S;
unicode = 0053;
},
{
glyphname = Germandbls;
lastChange = "2021-11-19 01:29:12 +0000";
layers = (
{
layerId = "01BDBA83-373F-4081-A4FB-32E4C1670F2F";
paths = (
{
closed = 1;
nodes = (
"37 -96 OFFCURVE",
"82 -57 OFFCURVE",
"81 -36 CURVE",
"106 -5 OFFCURVE",
"99 8 OFFCURVE",
"88 39 CURVE",
"113 45 OFFCURVE",
"114 61 OFFCURVE",
"104 80 CURVE",
"118 88 OFFCURVE",
"123 102 OFFCURVE",
"125 121 CURVE",
"132 123 OFFCURVE",
"139 129 OFFCURVE",
"139 137 CURVE SMOOTH",
"138 144 OFFCURVE",
"135 150 OFFCURVE",
"134 157 CURVE",
"147 163 LINE",
"143 168 LINE",
"143 176 OFFCURVE",
"161 185 OFFCURVE",
"163 197 CURVE",
"166 200 LINE",
"169 196 LINE",
"169 194 LINE",
"181 205 LINE",
"181 212 LINE",
"169 221 LINE",
"174 234 LINE",
"179 234 LINE",
"174 240 LINE",
"183 243 OFFCURVE",
"196 249 OFFCURVE",
"196 262 CURVE",
"226 328 OFFCURVE",
"254 380 OFFCURVE",
"303 413 CURVE SMOOTH",
"307 416 OFFCURVE",
"312 418 OFFCURVE",
"317 421 CURVE SMOOTH",
"322 424 OFFCURVE",
"328 421 OFFCURVE",
"334 424 CURVE SMOOTH",
"337 425 OFFCURVE",
"340 431 OFFCURVE",
"343 433 CURVE",
"353 437 OFFCURVE",
"363 436 OFFCURVE",
"373 438 CURVE SMOOTH",
"377 439 OFFCURVE",
"382 444 OFFCURVE",
"387 445 CURVE SMOOTH",
"392 446 OFFCURVE",
"397 446 OFFCURVE",
"402 447 CURVE",
"408 444 OFFCURVE",
"408 438 OFFCURVE",
"415 436 CURVE SMOOTH",
"424 433 OFFCURVE",
"440 437 OFFCURVE",
"451 436 CURVE SMOOTH",
"481 431 OFFCURVE",
"510 426 OFFCURVE",
"513 387 CURVE SMOOTH",
"517 324 OFFCURVE",
"368 241 OFFCURVE",
"319 226 CURVE",
"296 221 OFFCURVE",
"268 221 OFFCURVE",
"249 208 CURVE SMOOTH",
"235 200 OFFCURVE",
"230 181 OFFCURVE",
"231 165 CURVE SMOOTH",
"232 153 OFFCURVE",
"237 146 OFFCURVE",
"248 146 CURVE SMOOTH",
"260 146 OFFCURVE",
"270 155 OFFCURVE",
"281 155 CURVE SMOOTH",
"288 155 OFFCURVE",
"292 148 OFFCURVE",
"300 148 CURVE SMOOTH",
"331 148 OFFCURVE",
"421 140 OFFCURVE",
"424 93 CURVE SMOOTH",
"427 44 OFFCURVE",
"310 -4 OFFCURVE",
"274 -20 CURVE",
"276 -21 OFFCURVE",
"279 -21 OFFCURVE",
"282 -21 CURVE SMOOTH",
"288 -21 OFFCURVE",
"294 -21 OFFCURVE",
"302 -20 CURVE",
"306 -14 LINE",
"318 -21 LINE",
"325 -18 OFFCURVE",
"331 -13 OFFCURVE",
"337 -10 CURVE",
"345 -16 LINE",
"343 -21 LINE",
"316 -24 OFFCURVE",
"270 -33 OFFCURVE",
"249 -53 CURVE",
"245 -49 LINE",
"245 -46 LINE",
"249 -37 OFFCURVE",
"257 -30 OFFCURVE",
"267 -29 CURVE",
"258 -26 LINE",
"246 -29 OFFCURVE",
"232 -31 OFFCURVE",
"220 -31 CURVE SMOOTH",
"177 -31 OFFCURVE",
"167 1 OFFCURVE",
"162 41 CURVE",
"157 42 LINE",
"143 42 OFFCURVE",
"140 29 OFFCURVE",
"141 17 CURVE SMOOTH",
"143 -37 OFFCURVE",
"179 -64 OFFCURVE",
"227 -64 CURVE SMOOTH",
"245 -64 OFFCURVE",
"284 -53 OFFCURVE",
"300 -45 CURVE",
"306 -49 LINE",
"318 -46 OFFCURVE",
"329 -41 OFFCURVE",
"339 -35 CURVE",
"353 -39 LINE",
"364 -31 OFFCURVE",
"378 -26 OFFCURVE",
"391 -21 CURVE",
"396 -23 LINE",
"409 -18 OFFCURVE",
"432 -11 OFFCURVE",
"439 1 CURVE SMOOTH",
"453 21 OFFCURVE",
"446 25 OFFCURVE",
"471 25 CURVE",
"481 32 OFFCURVE",
"501 44 OFFCURVE",
"500 57 CURVE SMOOTH",
"500 61 OFFCURVE",
"495 75 OFFCURVE",
"495 80 CURVE",
"499 87 LINE",
"487 139 OFFCURVE",
"369 182 OFFCURVE",
"326 196 CURVE",
"335 202 OFFCURVE",
"347 207 OFFCURVE",
"357 214 CURVE",
"366 207 LINE",
"357 203 LINE",
"359 202 OFFCURVE",
"363 201 OFFCURVE",
"365 201 CURVE SMOOTH",
"374 201 OFFCURVE",
"379 205 OFFCURVE",
"383 214 CURVE",
"390 208 LINE",
"397 216 LINE",
"403 215 LINE",
"403 218 LINE",
"410 220 OFFCURVE",
"416 223 OFFCURVE",
"423 225 CURVE",
"417 230 LINE",
"424 234 LINE",
"431 233 OFFCURVE",
"440 230 OFFCURVE",
"447 227 CURVE",
"456 239 OFFCURVE",
"471 238 OFFCURVE",
"483 238 CURVE",
"488 249 LINE",
"494 243 LINE",
"500 248 LINE",
"497 260 LINE",
"495 278 OFFCURVE",
"511 289 OFFCURVE",
"525 289 CURVE",
"532 303 OFFCURVE",
"540 317 OFFCURVE",
"548 331 CURVE",
"541 428 OFFCURVE",
"521 475 OFFCURVE",
"426 475 CURVE SMOOTH",
"398 475 OFFCURVE",
"357 468 OFFCURVE",
"329 452 CURVE SMOOTH",
"313 443 LINE SMOOTH",
"311 442 OFFCURVE",
"309 444 OFFCURVE",
"307 442 CURVE",
"303 440 OFFCURVE",
"300 434 OFFCURVE",
"295 431 CURVE SMOOTH",
"245 397 OFFCURVE",
"206 355 OFFCURVE",
"196 354 CURVE",
"175 328 OFFCURVE",
"70 163 OFFCURVE",
"76 135 CURVE SMOOTH",
"78 126 LINE",
"48 101 OFFCURVE",
"44 63 OFFCURVE",
"41 23 CURVE",
"30 2 OFFCURVE",
"14 -19 OFFCURVE",
"14 -46 CURVE",
"6 -58 OFFCURVE",
"-12 -63 OFFCURVE",
"11 -91 CURVE"
);
},
{
closed = 1;
nodes = (
"152 30 LINE",
"153 24 LINE",
"148 22 LINE"
);
},
{
closed = 1;
nodes = (
"167 54 LINE",
"163 61 LINE",
"164 69 LINE",
"157 54 LINE",
"162 55 LINE",
"168 50 LINE"
);
},
{
closed = 1;
nodes = (
"509 336 LINE",
"514 348 LINE",
"511 353 LINE",
"519 356 LINE",
"520 355 LINE",
"519 352 LINE",
"522 346 LINE",
"514 342 LINE",
"511 336 LINE"
);
}
);
width = 548;
}
);
unicode = 1E9E;
},
{
glyphname = Schwa;
lastChange = "2021-11-19 01:29:12 +0000";
layers = (
{
layerId = "01BDBA83-373F-4081-A4FB-32E4C1670F2F";
paths = (
{
closed = 1;
nodes = (
"170 -26 OFFCURVE",
"191 -15 OFFCURVE",
"203 -9 CURVE",
"225 -12 OFFCURVE",
"245 -4 OFFCURVE",
"266 2 CURVE",
"273 9 LINE",
"303 15 OFFCURVE",
"324 44 OFFCURVE",
"353 54 CURVE",
"361 50 LINE",
"367 61 OFFCURVE",
"375 71 OFFCURVE",
"387 71 CURVE",
"390 68 LINE",
"397 73 LINE",
"399 83 OFFCURVE",
"406 93 OFFCURVE",
"415 93 CURVE SMOOTH",
"446 93 OFFCURVE",
"427 123 OFFCURVE",
"443 123 CURVE SMOOTH",
"464 123 OFFCURVE",
"501 183 OFFCURVE",
"514 202 CURVE",
"532 202 OFFCURVE",
"540 262 OFFCURVE",
"540 277 CURVE SMOOTH",
"540 353 OFFCURVE",
"487 420 OFFCURVE",
"433 452 CURVE",
"423 451 OFFCURVE",
"415 456 OFFCURVE",
"410 468 CURVE",
"399 464 LINE",
"391 468 LINE",
"383 469 LINE",
"374 476 LINE",
"370 472 LINE",
"371 469 LINE",
"309 472 OFFCURVE",
"226 422 OFFCURVE",
"197 391 CURVE SMOOTH",
"179 369 OFFCURVE",
"177 373 OFFCURVE",
"175 369 CURVE",
"170 369 OFFCURVE",
"169 360 OFFCURVE",
"164 360 CURVE",
"149 342 OFFCURVE",
"158 334 OFFCURVE",
"173 340 CURVE",
"177 344 OFFCURVE",
"187 351 OFFCURVE",
"191 354 CURVE",
"195 355 OFFCURVE",
"198 362 OFFCURVE",
"203 363 CURVE",
"203 367 LINE",
"205 370 LINE",
"210 367 LINE",
"226 371 LINE",
"226 374 LINE",
"235 379 OFFCURVE",
"245 383 OFFCURVE",
"257 383 CURVE",
"299 403 OFFCURVE",
"346 417 OFFCURVE",
"392 417 CURVE SMOOTH",
"435 417 OFFCURVE",
"473 400 OFFCURVE",
"473 342 CURVE SMOOTH",
"473 308 OFFCURVE",
"463 274 OFFCURVE",
"447 240 CURVE",
"445 240 OFFCURVE",
"443 241 OFFCURVE",
"442 241 CURVE SMOOTH",
"418 247 OFFCURVE",
"392 253 OFFCURVE",
"366 253 CURVE SMOOTH",
"338 253 OFFCURVE",
"286 258 OFFCURVE",
"225 242 CURVE SMOOTH",
"204 235 OFFCURVE",
"183 238 OFFCURVE",
"162 219 CURVE",
"127 200 LINE",
"99 188 OFFCURVE",
"46 135 OFFCURVE",
"39 93 CURVE",
"41 86 LINE",
"42 86 LINE",
"31 57 LINE",
"34 52 OFFCURVE",
"35 53 OFFCURVE",
"38 47 CURVE",
"38 38 LINE SMOOTH",
"38 20 OFFCURVE",
"80 -5 OFFCURVE",
"90 -5 CURVE SMOOTH",
"116 -5 OFFCURVE",
"130 -26 OFFCURVE",
"156 -26 CURVE SMOOTH"
);
},
{
closed = 1;
nodes = (
"123 2 OFFCURVE",
"106 4 OFFCURVE",
"99 13 CURVE",
"98 20 OFFCURVE",
"93 22 OFFCURVE",
"93 28 CURVE SMOOTH",
"93 31 OFFCURVE",
"96 39 OFFCURVE",
"93 41 CURVE SMOOTH",
"79 50 OFFCURVE",
"106 61 OFFCURVE",
"93 69 CURVE",
"116 103 OFFCURVE",
"165 167 OFFCURVE",
"173 171 CURVE",
"188 175 OFFCURVE",
"203 172 OFFCURVE",
"212 190 CURVE",
"226 199 OFFCURVE",
"325 224 OFFCURVE",
"342 224 CURVE SMOOTH",
"365 224 OFFCURVE",
"406 223 OFFCURVE",
"436 220 CURVE",
"367 99 OFFCURVE",
"229 2 OFFCURVE",
"134 2 CURVE SMOOTH"
);
}
);
width = 555;
}
);
unicode = 018F;
},
{
glyphname = T;
lastChange = "2021-11-19 01:29:12 +0000";
layers = (
{
anchors = (
{
name = bottom;
position = "{81, -53}";
},
{
name = center;
position = "{359, 279}";
},
{
name = top;
position = "{434, 457}";
}
);
layerId = "01BDBA83-373F-4081-A4FB-32E4C1670F2F";
paths = (
{
closed = 1;
nodes = (
"102 -63 OFFCURVE",
"126 -55 OFFCURVE",
"142 -35 CURVE",
"161 -27 OFFCURVE",
"192 7 OFFCURVE",
"204 24 CURVE",
"211 28 LINE",
"206 32 LINE",
"211 41 LINE",
"219 47 OFFCURVE",
"235 56 OFFCURVE",
"238 66 CURVE",
"242 66 LINE",
"241 77 LINE",
"254 88 OFFCURVE",
"265 100 OFFCURVE",
"279 108 CURVE",
"280 118 OFFCURVE",
"283 129 OFFCURVE",
"294 130 CURVE",
"299 128 LINE",
"299 141 LINE",
"311 158 LINE",
"317 155 LINE",
"324 164 OFFCURVE",
"330 173 OFFCURVE",
"334 184 CURVE",
"337 188 LINE",
"334 194 LINE",
"332 194 LINE",
"333 205 OFFCURVE",
"360 241 OFFCURVE",
"368 250 CURVE",
"367 252 LINE",
"382 260 OFFCURVE",
"380 271 OFFCURVE",
"391 276 CURVE",
"401 277 OFFCURVE",
"407 289 OFFCURVE",
"418 289 CURVE",
"424 293 OFFCURVE",
"429 299 OFFCURVE",
"433 305 CURVE",
"431 308 LINE",
"427 307 LINE",
"423 301 LINE",
"417 305 LINE",
"417 317 OFFCURVE",
"422 323 OFFCURVE",
"434 324 CURVE",
"445 337 OFFCURVE",
"454 354 OFFCURVE",
"455 372 CURVE",
"456 373 LINE",
"468 365 LINE",
"475 365 OFFCURVE",
"479 384 OFFCURVE",
"480 390 CURVE",
"476 398 LINE",
"495 399 OFFCURVE",
"512 405 OFFCURVE",
"531 405 CURVE SMOOTH",
"549 405 OFFCURVE",
"568 405 OFFCURVE",
"586 400 CURVE",
"587 397 LINE",
"614 384 LINE",
"616 368 LINE",
"603 346 OFFCURVE",
"586 328 OFFCURVE",
"561 320 CURVE",
"558 317 LINE",
"561 315 LINE",
"571 316 OFFCURVE",
"581 322 OFFCURVE",
"589 329 CURVE",
"589 328 LINE",
"585 319 LINE",
"586 318 LINE",
"620 333 LINE",
"628 328 LINE",
"656 330 OFFCURVE",
"661 335 OFFCURVE",
"670 361 CURVE",
"666 372 LINE",
"673 377 LINE",
"670 385 LINE",
"664 387 OFFCURVE",
"660 392 OFFCURVE",
"658 398 CURVE",
"661 402 LINE",
"625 424 OFFCURVE",
"583 427 OFFCURVE",
"543 427 CURVE SMOOTH",
"520 427 OFFCURVE",
"498 427 OFFCURVE",
"475 424 CURVE",
"479 458 OFFCURVE",
"422 460 OFFCURVE",
"400 460 CURVE SMOOTH",
"397 460 OFFCURVE",
"393 458 OFFCURVE",
"391 457 CURVE",
"391 448 OFFCURVE",
"388 438 OFFCURVE",
"383 430 CURVE",
"388 429 LINE",
"382 428 OFFCURVE",
"375 427 OFFCURVE",
"370 423 CURVE",
"292 436 OFFCURVE",
"137 379 OFFCURVE",
"76 328 CURVE",
"76 322 LINE",
"60 305 OFFCURVE",
"29 271 OFFCURVE",
"29 247 CURVE SMOOTH",
"29 245 OFFCURVE",
"31 238 OFFCURVE",
"32 236 CURVE",
"40 239 LINE",
"48 232 LINE",
"57 234 OFFCURVE",
"67 238 OFFCURVE",
"74 245 CURVE",
"71 248 LINE",
"53 246 LINE",
"43 252 LINE",
"87 308 OFFCURVE",
"155 355 OFFCURVE",
"226 367 CURVE",
"229 370 LINE",
"233 369 LINE",
"249 377 OFFCURVE",
"267 385 OFFCURVE",
"286 383 CURVE SMOOTH",
"298 382 LINE",
"311 388 OFFCURVE",
"327 389 OFFCURVE",
"342 389 CURVE SMOOTH",
"377 389 LINE",
"362 345 OFFCURVE",
"343 302 OFFCURVE",
"331 257 CURVE",
"324 251 LINE",
"315 227 OFFCURVE",
"283 160 OFFCURVE",
"265 145 CURVE",
"263 137 OFFCURVE",
"261 120 OFFCURVE",
"250 120 CURVE",
"239 103 OFFCURVE",
"224 76 OFFCURVE",
"205 67 CURVE",
"205 59 LINE",
"201 55 OFFCURVE",
"195 51 OFFCURVE",
"189 48 CURVE",
"183 40 LINE",
"182 40 LINE",
"182 33 LINE",
"157 3 OFFCURVE",
"118 -21 OFFCURVE",
"76 -21 CURVE SMOOTH",
"39 -21 OFFCURVE",
"2 -2 OFFCURVE",
"2 41 CURVE SMOOTH",
"2 47 OFFCURVE",
"3 52 OFFCURVE",
"2 58 CURVE",
"-10 48 OFFCURVE",
"-13 31 OFFCURVE",
"-13 17 CURVE SMOOTH",
"-13 -32 OFFCURVE",
"39 -55 OFFCURVE",
"77 -69 CURVE"
);
},
{
closed = 1;
nodes = (
"94 251 LINE",
"94 256 LINE",
"91 257 LINE",
"88 251 LINE"
);
},
{
closed = 1;
nodes = (
"385 278 LINE",
"387 284 LINE",
"390 283 LINE",
"389 278 LINE",
"386 277 LINE"
);
},
{
closed = 1;
nodes = (
"378 297 LINE",
"382 300 LINE",
"383 295 LINE"
);
},
{
closed = 1;
nodes = (
"381 311 LINE",
"384 315 OFFCURVE",
"388 319 OFFCURVE",
"392 320 CURVE",
"393 316 LINE",
"392 311 LINE"
);
},
{
closed = 1;
nodes = (
"403 316 LINE",
"405 319 LINE",
"407 319 LINE",
"409 317 LINE",
"406 313 LINE"
);
}
);
width = 343;
}
);
note = T;
unicode = 0054;
},
{
glyphname = U;
lastChange = "2021-11-19 01:29:12 +0000";
layers = (
{
anchors = (
{
name = bottom;
position = "{193, -7}";
},
{
name = ogonek;
position = "{456, -60}";
},
{
name = top;
position = "{461, 440}";
},
{
name = topright;
position = "{570, 386}";
}
);
layerId = "01BDBA83-373F-4081-A4FB-32E4C1670F2F";
paths = (
{
closed = 1;
nodes = (
"400 -90 OFFCURVE",
"406 -87 OFFCURVE",
"409 -86 CURVE",
"454 -36 OFFCURVE",
"505 13 OFFCURVE",
"554 58 CURVE",
"550 60 LINE",
"524 40 OFFCURVE",
"497 21 OFFCURVE",
"470 1 CURVE",
"461 2 LINE",
"454 0 LINE",
"446 -11 OFFCURVE",
"433 -14 OFFCURVE",
"422 -17 CURVE",
"418 -8 LINE",
"418 35 OFFCURVE",
"450 76 OFFCURVE",
"461 116 CURVE",
"478 131 OFFCURVE",
"486 153 OFFCURVE",
"500 170 CURVE",
"494 183 LINE",
"517 217 OFFCURVE",
"599 348 OFFCURVE",
"599 384 CURVE SMOOTH",
"599 405 OFFCURVE",
"570 413 OFFCURVE",
"553 413 CURVE SMOOTH",
"544 413 OFFCURVE",
"533 410 OFFCURVE",
"524 407 CURVE",
"504 382 OFFCURVE",
"456 260 OFFCURVE",
"446 226 CURVE",
"395 194 OFFCURVE",
"323 92 OFFCURVE",
"258 49 CURVE",
"256 42 OFFCURVE",
"250 37 OFFCURVE",
"243 36 CURVE",
"237 41 LINE",
"230 36 LINE",
"224 27 LINE",
"222 27 LINE",
"199 13 OFFCURVE",
"168 -3 OFFCURVE",
"141 -3 CURVE SMOOTH",
"134 -3 OFFCURVE",
"128 0 OFFCURVE",
"121 3 CURVE",
"114 23 LINE",
"117 29 LINE",
"113 33 LINE",
"123 44 LINE",
"127 42 LINE",
"130 55 OFFCURVE",
"139 67 OFFCURVE",
"146 78 CURVE",
"143 84 LINE",
"154 94 LINE",
"163 109 LINE",
"163 118 LINE",
"169 121 LINE",
"165 126 LINE",
"166 130 LINE",
"176 127 LINE",
"181 140 LINE",
"188 148 OFFCURVE",
"198 158 OFFCURVE",
"198 171 CURVE SMOOTH",
"198 175 LINE",
"208 183 LINE",
"205 182 LINE",
"196 188 LINE",
"216 189 LINE",
"238 226 OFFCURVE",
"332 384 OFFCURVE",
"332 417 CURVE SMOOTH",
"332 459 OFFCURVE",
"268 487 OFFCURVE",
"232 487 CURVE SMOOTH",
"166 487 OFFCURVE",
"3 380 OFFCURVE",
"3 308 CURVE SMOOTH",
"3 291 OFFCURVE",
"7 257 OFFCURVE",
"19 245 CURVE",
"20 247 OFFCURVE",
"21 252 OFFCURVE",
"22 254 CURVE",
"22 289 OFFCURVE",
"27 329 OFFCURVE",
"66 342 CURVE",
"62 360 OFFCURVE",
"87 364 OFFCURVE",
"98 374 CURVE SMOOTH",
"128 401 OFFCURVE",
"117 419 OFFCURVE",
"165 444 CURVE SMOOTH",
"193 459 OFFCURVE",
"221 469 OFFCURVE",
"254 470 CURVE",
"260 465 LINE",
"257 428 OFFCURVE",
"256 400 OFFCURVE",
"231 369 CURVE",
"231 358 OFFCURVE",
"230 346 OFFCURVE",
"224 337 CURVE",
"229 330 LINE",
"222 323 LINE",
"220 327 LINE",
"213 319 LINE",
"214 318 LINE",
"220 315 LINE",
"211 314 OFFCURVE",
"203 308 OFFCURVE",
"203 298 CURVE",
"209 287 LINE",
"208 283 LINE",
"195 279 LINE",
"173 231 OFFCURVE",
"136 192 OFFCURVE",
"117 142 CURVE",
"121 138 LINE",
"107 129 LINE",
"105 119 LINE",
"106 117 LINE",
"111 123 LINE",
"111 120 LINE",
"105 112 LINE",
"101 115 LINE",
"95 95 OFFCURVE",
"76 54 OFFCURVE",
"76 36 CURVE SMOOTH",
"76 27 OFFCURVE",
"79 17 OFFCURVE",
"85 9 CURVE",
"93 4 OFFCURVE",
"98 -5 OFFCURVE",
"106 -11 CURVE",
"116 -11 OFFCURVE",
"124 -18 OFFCURVE",
"130 -24 CURVE",
"150 -24 OFFCURVE",
"170 -23 OFFCURVE",
"190 -16 CURVE",
"184 -11 LINE",
"189 -10 LINE",
"193 -7 LINE",
"199 -11 LINE",
"271 24 OFFCURVE",
"354 76 OFFCURVE",
"396 144 CURVE",
"418 152 OFFCURVE",
"431 179 OFFCURVE",
"445 197 CURVE",
"426 148 OFFCURVE",
"352 -4 OFFCURVE",
"352 -42 CURVE SMOOTH",
"352 -67 OFFCURVE",
"372 -90 OFFCURVE",
"396 -90 CURVE SMOOTH"
);
},
{
closed = 1;
nodes = (
"274 67 LINE",
"280 70 LINE",
"281 74 LINE",
"279 76 LINE",
"274 68 LINE"
);
},
{
closed = 1;
nodes = (
"571 73 LINE",
"568 77 LINE",
"565 76 LINE",
"562 68 LINE",
"566 65 LINE"
);
}
);
width = 514;
}
);
note = U;
unicode = 0055;
},
{
glyphname = V;
lastChange = "2021-11-19 01:29:12 +0000";
layers = (
{
layerId = "01BDBA83-373F-4081-A4FB-32E4C1670F2F";
paths = (
{
closed = 1;
nodes = (
"113 -24 OFFCURVE",
"133 -23 OFFCURVE",
"152 -16 CURVE",
"147 -11 LINE",
"148 -9 LINE",
"155 -8 LINE",
"209 31 OFFCURVE",
"371 207 OFFCURVE",
"404 263 CURVE",
"400 265 LINE",
"408 276 LINE",
"464 295 OFFCURVE",
"579 556 OFFCURVE",
"788 556 CURVE SMOOTH",
"798 556 LINE",
"809 552 LINE",
"814 553 LINE",
"805 564 LINE",
"816 571 LINE",
"812 575 LINE",
"815 582 LINE",
"799 598 OFFCURVE",
"777 603 OFFCURVE",
"755 603 CURVE SMOOTH",
"700 603 OFFCURVE",
"634 567 OFFCURVE",
"604 521 CURVE",
"588 514 LINE",
"584 504 OFFCURVE",
"579 490 OFFCURVE",
"567 489 CURVE",
"561 478 OFFCURVE",
"552 468 OFFCURVE",
"540 463 CURVE",
"544 457 LINE",
"538 455 LINE",
"534 455 LINE",
"527 445 LINE",
"533 441 LINE",
"526 435 LINE",
"517 440 LINE",
"512 430 OFFCURVE",
"505 420 OFFCURVE",
"498 410 CURVE",
"495 413 LINE",
"491 409 LINE",
"496 400 LINE",
"481 388 OFFCURVE",
"463 379 OFFCURVE",
"454 361 CURVE",
"436 347 OFFCURVE",
"418 317 OFFCURVE",
"412 295 CURVE",
"400 290 LINE",
"400 285 LINE",
"383 267 LINE",
"385 260 LINE",
"372 254 LINE",
"371 255 LINE",
"371 256 OFFCURVE",
"373 256 OFFCURVE",
"373 257 CURVE",
"370 258 LINE",
"362 244 LINE",
"364 240 LINE",
"360 233 LINE",
"355 236 LINE",
"302 171 OFFCURVE",
"176 2 OFFCURVE",
"89 2 CURVE",
"85 3 LINE",
"76 23 LINE",
"79 29 LINE",
"76 33 LINE",
"85 44 LINE",
"90 42 LINE",
"94 55 OFFCURVE",
"102 67 OFFCURVE",
"109 78 CURVE",
"106 84 LINE",
"114 89 OFFCURVE",
"121 100 OFFCURVE",
"125 109 CURVE",
"125 118 LINE",
"132 121 LINE",
"127 126 LINE",
"129 130 LINE",
"139 127 LINE",
"143 140 LINE",
"151 148 OFFCURVE",
"161 158 OFFCURVE",
"161 171 CURVE",
"160 175 LINE",
"171 183 LINE",
"167 182 LINE",
"158 188 LINE",
"179 189 LINE",
"202 226 OFFCURVE",
"295 382 OFFCURVE",
"295 417 CURVE SMOOTH",
"295 459 OFFCURVE",
"230 487 OFFCURVE",
"194 487 CURVE SMOOTH",
"128 487 OFFCURVE",
"-35 380 OFFCURVE",
"-35 308 CURVE SMOOTH",
"-35 289 OFFCURVE",
"-32 259 OFFCURVE",
"-18 245 CURVE",
"-2 277 OFFCURVE",
"-27 324 OFFCURVE",
"28 342 CURVE",
"25 359 OFFCURVE",
"49 365 OFFCURVE",
"60 374 CURVE SMOOTH",
"91 400 OFFCURVE",
"79 418 OFFCURVE",
"127 444 CURVE SMOOTH",
"155 458 OFFCURVE",
"185 469 OFFCURVE",
"216 470 CURVE",
"223 465 LINE",
"220 430 OFFCURVE",
"218 398 OFFCURVE",
"193 369 CURVE",
"194 358 OFFCURVE",
"193 346 OFFCURVE",
"187 337 CURVE",
"192 330 LINE",
"184 323 LINE",
"184 327 LINE",
"175 319 LINE",
"176 318 LINE",
"183 315 LINE",
"174 315 OFFCURVE",
"166 308 OFFCURVE",
"166 298 CURVE",
"172 287 LINE",
"171 283 LINE",
"158 279 LINE",
"136 231 OFFCURVE",
"99 192 OFFCURVE",
"79 142 CURVE",
"84 138 LINE",
"69 129 LINE",
"68 119 LINE",
"68 117 LINE",
"74 123 LINE",
"74 120 LINE",
"68 112 LINE",
"64 115 LINE",
"58 94 OFFCURVE",
"39 57 OFFCURVE",
"39 36 CURVE SMOOTH",
"39 27 OFFCURVE",
"42 17 OFFCURVE",
"47 9 CURVE",
"55 3 OFFCURVE",
"61 -5 OFFCURVE",
"68 -11 CURVE",
"78 -11 OFFCURVE",
"87 -17 OFFCURVE",
"93 -24 CURVE"
);
},
{
closed = 1;
nodes = (
"93 85 LINE",
"97 92 LINE",
"103 86 LINE",
"101 83 LINE",
"98 81 LINE"
);
},
{
closed = 1;
nodes = (
"106 126 LINE",
"108 133 LINE",
"114 133 LINE",
"112 130 OFFCURVE",
"110 127 OFFCURVE",
"107 125 CURVE"
);
},
{
closed = 1;
nodes = (
"150 178 LINE",
"155 182 LINE",
"157 178 LINE",
"151 171 LINE"
);
},
{
closed = 1;
nodes = (
"848 530 LINE SMOOTH",
"848 536 OFFCURVE",
"846 543 OFFCURVE",
"844 549 CURVE",
"836 541 LINE",
"835 539 LINE",
"848 529 LINE"
);
},
{
closed = 1;
nodes = (
"837 556 LINE",
"833 562 OFFCURVE",
"830 568 OFFCURVE",
"824 572 CURVE",
"822 567 OFFCURVE",
"820 562 OFFCURVE",
"818 555 CURVE",
"823 549 LINE",
"832 545 LINE"
);
}
);
width = 303;
}
);
note = V;
unicode = 0056;
},
{
glyphname = W;
lastChange = "2021-11-19 01:29:12 +0000";
layers = (
{
anchors = (
{
name = bottom;
position = "{268, 0}";
},
{
name = top;
position = "{384, 390}";
}
);
layerId = "01BDBA83-373F-4081-A4FB-32E4C1670F2F";
paths = (
{
closed = 1;
nodes = (
"495 -16 OFFCURVE",
"508 42 OFFCURVE",
"526 76 CURVE",
"522 77 LINE",
"524 89 LINE",
"526 92 LINE",
"525 83 LINE",
"525 82 LINE",
"527 83 LINE",
"534 93 LINE",
"531 99 OFFCURVE",
"530 106 OFFCURVE",
"531 112 CURVE",
"538 112 LINE",
"564 172 OFFCURVE",
"570 238 OFFCURVE",
"592 298 CURVE",
"586 313 LINE",
"589 318 LINE",
"602 321 LINE",
"607 325 OFFCURVE",
"608 330 OFFCURVE",
"608 337 CURVE SMOOTH",
"608 341 OFFCURVE",
"607 346 OFFCURVE",
"604 350 CURVE",
"610 346 LINE",
"613 348 LINE",
"614 355 LINE",
"613 360 LINE",
"611 359 OFFCURVE",
"609 358 OFFCURVE",
"609 360 CURVE SMOOTH",
"609 404 OFFCURVE",
"659 499 OFFCURVE",
"680 539 CURVE",
"688 544 OFFCURVE",
"693 550 OFFCURVE",
"694 558 CURVE",
"717 585 OFFCURVE",
"739 597 OFFCURVE",
"773 603 CURVE",
"772 614 OFFCURVE",
"728 618 OFFCURVE",
"719 618 CURVE SMOOTH",
"589 618 OFFCURVE",
"531 340 OFFCURVE",
"505 242 CURVE",
"509 236 OFFCURVE",
"515 229 OFFCURVE",
"518 223 CURVE",
"508 227 LINE",
"506 230 LINE",
"507 214 LINE",
"493 206 OFFCURVE",
"492 184 OFFCURVE",
"490 169 CURVE",
"483 155 LINE",
"492 148 LINE",
"491 143 LINE",
"483 143 LINE",
"486 135 LINE",
"479 128 LINE",
"478 121 OFFCURVE",
"476 113 OFFCURVE",
"472 107 CURVE",
"472 88 LINE",
"466 86 LINE",
"462 71 OFFCURVE",
"457 53 OFFCURVE",
"450 40 CURVE",
"454 38 LINE",
"454 32 LINE",
"455 28 OFFCURVE",
"453 23 OFFCURVE",
"453 20 CURVE",
"446 19 LINE",
"444 13 LINE",
"422 2 LINE",
"386 22 OFFCURVE",
"383 218 OFFCURVE",
"382 263 CURVE",
"395 273 LINE",
"392 276 LINE",
"386 274 LINE",
"382 282 LINE",
"388 290 LINE",
"393 284 LINE",
"397 292 LINE",
"395 310 LINE",
"400 312 LINE",
"401 328 OFFCURVE",
"403 345 OFFCURVE",
"403 361 CURVE SMOOTH",
"403 378 OFFCURVE",
"398 387 OFFCURVE",
"381 387 CURVE SMOOTH",
"371 387 OFFCURVE",
"337 366 OFFCURVE",
"326 362 CURVE",
"327 360 LINE SMOOTH",
"330 354 OFFCURVE",
"333 347 OFFCURVE",
"333 340 CURVE SMOOTH",
"333 331 OFFCURVE",
"330 323 OFFCURVE",
"332 314 CURVE",
"328 296 OFFCURVE",
"326 275 OFFCURVE",
"317 259 CURVE SMOOTH",
"298 223 OFFCURVE",
"142 42 OFFCURVE",
"109 42 CURVE SMOOTH",
"100 42 OFFCURVE",
"92 46 OFFCURVE",
"84 49 CURVE",
"81 56 OFFCURVE",
"81 64 OFFCURVE",
"81 72 CURVE SMOOTH",
"81 98 OFFCURVE",
"95 114 OFFCURVE",
"108 136 CURVE",
"108 156 OFFCURVE",
"121 172 OFFCURVE",
"127 190 CURVE",
"132 194 LINE",
"132 202 OFFCURVE",
"129 209 OFFCURVE",
"129 216 CURVE",
"138 228 LINE",
"138 229 LINE",
"141 229 LINE",
"148 231 LINE",
"141 220 LINE",
"142 215 OFFCURVE",
"141 208 OFFCURVE",
"139 203 CURVE",
"139 199 LINE",
"147 201 OFFCURVE",
"149 210 OFFCURVE",
"149 216 CURVE",
"152 220 LINE",
"157 220 LINE",
"152 236 OFFCURVE",
"162 241 OFFCURVE",
"166 255 CURVE",
"186 271 OFFCURVE",
"275 364 OFFCURVE",
"275 385 CURVE SMOOTH",
"275 414 OFFCURVE",
"226 429 OFFCURVE",
"203 429 CURVE SMOOTH",
"202 429 LINE",
"132 397 OFFCURVE",
"68 355 OFFCURVE",
"-2 324 CURVE",
"4 319 LINE",
"15 324 OFFCURVE",
"116 361 OFFCURVE",
"118 361 CURVE SMOOTH",
"138 361 OFFCURVE",
"151 365 OFFCURVE",
"171 367 CURVE",
"170 362 LINE",
"171 358 OFFCURVE",
"173 355 OFFCURVE",
"173 351 CURVE SMOOTH",
"173 313 OFFCURVE",
"114 214 OFFCURVE",
"92 179 CURVE",
"94 169 OFFCURVE",
"91 162 OFFCURVE",
"81 159 CURVE",
"69 129 OFFCURVE",
"55 96 OFFCURVE",
"55 63 CURVE SMOOTH",
"55 41 OFFCURVE",
"62 15 OFFCURVE",
"88 15 CURVE SMOOTH",
"115 15 OFFCURVE",
"130 36 OFFCURVE",
"155 43 CURVE",
"205 108 OFFCURVE",
"264 179 OFFCURVE",
"324 235 CURVE SMOOTH",
"330 240 OFFCURVE",
"340 238 OFFCURVE",
"345 247 CURVE",
"345 254 OFFCURVE",
"346 264 OFFCURVE",
"355 267 CURVE",
"355 196 OFFCURVE",
"358 123 OFFCURVE",
"364 53 CURVE",
"367 50 LINE",
"367 48 LINE",
"358 49 LINE",
"367 26 OFFCURVE",
"380 6 OFFCURVE",
"394 -13 CURVE",
"401 -13 OFFCURVE",
"409 -14 OFFCURVE",
"417 -18 CURVE",
"422 -23 LINE",
"440 -24 LINE",
"454 -27 LINE"
);
},
{
closed = 1;
nodes = (
"181 93 LINE",
"183 96 OFFCURVE",
"184 98 OFFCURVE",
"187 100 CURVE",
"184 91 LINE"
);
},
{
closed = 1;
nodes = (
"-9 314 LINE",
"-14 319 LINE",
"-24 310 LINE",
"-22 309 LINE"
);
},
{
closed = 1;
nodes = (
"565 175 LINE",
"565 182 LINE",
"561 180 LINE",
"559 172 LINE"
);
}
);
width = 536;
}
);
note = W;
unicode = 0057;
},
{
glyphname = X;
lastChange = "2021-11-19 01:29:12 +0000";
layers = (
{
layerId = "01BDBA83-373F-4081-A4FB-32E4C1670F2F";
paths = (
{
closed = 1;
nodes = (
"-104 -146 OFFCURVE",
"-96 -144 OFFCURVE",
"-88 -141 CURVE SMOOTH",
"-84 -139 OFFCURVE",
"118 -2 OFFCURVE",
"120 0 CURVE",
"116 2 LINE",
"81 -18 OFFCURVE",
"31 -35 OFFCURVE",
"3 -61 CURVE",
"-5 -60 LINE",
"-13 -63 LINE",
"-25 -74 OFFCURVE",
"-41 -77 OFFCURVE",
"-56 -82 CURVE",
"-57 -80 LINE",
"-57 -40 OFFCURVE",
"109 127 OFFCURVE",
"146 164 CURVE",
"154 148 LINE",
"157 149 LINE",
"162 142 LINE",
"156 128 LINE",
"167 106 OFFCURVE",
"208 34 OFFCURVE",
"220 22 CURVE",
"222 0 OFFCURVE",
"248 -14 OFFCURVE",
"266 -20 CURVE",
"272 -12 LINE",
"278 -19 LINE",
"278 -26 LINE",
"283 -37 LINE",
"302 -35 LINE",
"313 -49 OFFCURVE",
"326 -61 OFFCURVE",
"345 -61 CURVE SMOOTH",
"349 -61 LINE",
"355 -69 LINE",
"375 -77 OFFCURVE",
"422 -68 OFFCURVE",
"430 -92 CURVE",
"427 -97 LINE",
"432 -105 OFFCURVE",
"521 -121 OFFCURVE",
"535 -121 CURVE SMOOTH",
"556 -121 OFFCURVE",
"623 -104 OFFCURVE",
"637 -88 CURVE",
"610 -87 OFFCURVE",
"583 -95 OFFCURVE",
"556 -95 CURVE SMOOTH",
"508 -95 OFFCURVE",
"468 -77 OFFCURVE",
"422 -70 CURVE",
"303 27 OFFCURVE",
"265 82 OFFCURVE",
"205 223 CURVE",
"252 269 OFFCURVE",
"428 463 OFFCURVE",
"480 467 CURVE",
"475 458 LINE",
"462 448 OFFCURVE",
"450 435 OFFCURVE",
"440 421 CURVE",
"443 421 LINE",
"471 438 OFFCURVE",
"499 450 OFFCURVE",
"531 461 CURVE",
"536 466 LINE",
"543 467 LINE",
"552 477 LINE",
"553 477 LINE",
"562 468 LINE",
"566 481 OFFCURVE",
"568 495 OFFCURVE",
"575 506 CURVE",
"571 517 OFFCURVE",
"574 533 OFFCURVE",
"565 541 CURVE",
"452 508 OFFCURVE",
"369 408 OFFCURVE",
"283 335 CURVE",
"283 336 LINE",
"279 331 LINE",
"280 330 LINE",
"249 301 LINE",
"250 300 LINE",
"230 283 OFFCURVE",
"215 263 OFFCURVE",
"196 247 CURVE",
"188 266 LINE",
"193 322 OFFCURVE",
"152 378 OFFCURVE",
"152 435 CURVE SMOOTH",
"152 449 OFFCURVE",
"148 456 OFFCURVE",
"131 454 CURVE",
"125 495 OFFCURVE",
"114 535 OFFCURVE",
"102 573 CURVE",
"96 575 LINE",
"83 574 OFFCURVE",
"72 544 OFFCURVE",
"72 533 CURVE",
"80 512 OFFCURVE",
"98 495 OFFCURVE",
"95 472 CURVE",
"94 473 LINE",
"98 447 LINE",
"59 436 LINE",
"55 419 LINE",
"58 409 LINE",
"70 403 OFFCURVE",
"59 331 OFFCURVE",
"84 331 CURVE",
"92 304 LINE",
"97 314 LINE",
"101 294 OFFCURVE",
"106 202 OFFCURVE",
"135 204 CURVE",
"145 193 LINE",
"125 162 OFFCURVE",
"39 95 OFFCURVE",
"34 67 CURVE",
"21 57 LINE",
"16 46 OFFCURVE",
"-28 1 OFFCURVE",
"-39 -7 CURVE",
"-40 -4 LINE",
"-33 4 LINE",
"-37 4 LINE",
"-46 -2 LINE",
"-63 -34 OFFCURVE",
"-132 -96 OFFCURVE",
"-132 -129 CURVE SMOOTH",
"-132 -140 OFFCURVE",
"-122 -146 OFFCURVE",
"-113 -146 CURVE SMOOTH"
);
},
{
closed = 1;
nodes = (
"-19 17 LINE",
"-17 22 LINE",
"-12 26 OFFCURVE",
"-5 30 OFFCURVE",
"-1 35 CURVE",
"-3 39 LINE",
"-12 33 OFFCURVE",
"-21 22 OFFCURVE",
"-28 15 CURVE",
"-23 14 LINE"
);
},
{
closed = 1;
nodes = (
"15 57 OFFCURVE",
"24 65 OFFCURVE",
"31 74 CURVE",
"22 69 OFFCURVE",
"14 62 OFFCURVE",
"7 54 CURVE",
"6 49 LINE"
);
}
);
width = 379;
}
);
note = X;
unicode = 0058;
},
{
glyphname = Y;
lastChange = "2021-11-19 01:29:12 +0000";
layers = (
{
anchors = (
{
name = bottom;
position = "{435, 0}";
},
{
name = top;
position = "{406, 524}";
},
{
name = topleft;
position = "{20, 480}";
}
);
layerId = "01BDBA83-373F-4081-A4FB-32E4C1670F2F";
paths = (
{
closed = 1;
nodes = (
"147 -276 OFFCURVE",
"202 -220 OFFCURVE",
"244 -164 CURVE",
"245 -165 LINE",
"256 -155 OFFCURVE",
"265 -140 OFFCURVE",
"274 -128 CURVE",
"327 -92 OFFCURVE",
"395 39 OFFCURVE",
"427 98 CURVE",
"439 109 OFFCURVE",
"446 137 OFFCURVE",
"450 153 CURVE",
"494 209 OFFCURVE",
"525 389 OFFCURVE",
"544 464 CURVE",
"557 475 OFFCURVE",
"587 508 OFFCURVE",
"596 518 CURVE SMOOTH",
"628 551 OFFCURVE",
"671 568 OFFCURVE",
"696 575 CURVE",
"699 579 OFFCURVE",
"701 585 OFFCURVE",
"697 585 CURVE SMOOTH",
"637 585 OFFCURVE",
"589 531 OFFCURVE",
"551 490 CURVE",
"554 507 OFFCURVE",
"561 533 OFFCURVE",
"535 533 CURVE SMOOTH",
"476 533 OFFCURVE",
"446 446 OFFCURVE",
"449 398 CURVE SMOOTH",
"450 383 LINE",
"418 344 OFFCURVE",
"385 302 OFFCURVE",
"354 261 CURVE",
"357 242 LINE",
"348 246 LINE",
"349 249 LINE",
"341 233 LINE",
"319 222 OFFCURVE",
"305 192 OFFCURVE",
"288 174 CURVE",
"289 172 LINE",
"293 166 LINE",
"290 162 LINE",
"282 162 LINE",
"281 154 LINE",
"262 137 OFFCURVE",
"246 117 OFFCURVE",
"227 99 CURVE",
"216 81 LINE",
"201 78 OFFCURVE",
"196 59 OFFCURVE",
"192 48 CURVE",
"174 41 LINE",
"162 23 LINE",
"157 23 LINE",
"150 16 LINE",
"122 5 LINE",
"121 10 OFFCURVE",
"119 17 OFFCURVE",
"119 21 CURVE SMOOTH",
"119 76 OFFCURVE",
"182 174 OFFCURVE",
"207 226 CURVE",
"217 232 OFFCURVE",
"229 265 OFFCURVE",
"233 277 CURVE",
"231 280 LINE",
"225 279 LINE",
"225 286 LINE",
"235 294 LINE",
"238 288 LINE",
"251 298 OFFCURVE",
"310 404 OFFCURVE",
"310 421 CURVE SMOOTH",
"310 448 OFFCURVE",
"285 468 OFFCURVE",
"265 482 CURVE",
"253 485 OFFCURVE",
"240 488 OFFCURVE",
"229 488 CURVE SMOOTH",
"152 488 OFFCURVE",
"4 371 OFFCURVE",
"4 291 CURVE SMOOTH",
"4 276 OFFCURVE",
"4 258 OFFCURVE",
"13 246 CURVE",
"14 249 OFFCURVE",
"15 253 OFFCURVE",
"17 256 CURVE",
"17 289 OFFCURVE",
"31 330 OFFCURVE",
"65 343 CURVE",
"65 361 OFFCURVE",
"86 365 OFFCURVE",
"97 375 CURVE SMOOTH",
"147 420 OFFCURVE",
"154 469 OFFCURVE",
"246 471 CURVE",
"251 467 LINE",
"242 418 OFFCURVE",
"238 409 OFFCURVE",
"206 371 CURVE",
"205 359 OFFCURVE",
"202 348 OFFCURVE",
"197 338 CURVE",
"200 332 LINE",
"193 325 LINE",
"192 328 LINE",
"184 321 LINE",
"185 319 LINE",
"190 317 LINE",
"181 315 OFFCURVE",
"175 309 OFFCURVE",
"174 300 CURVE",
"177 289 LINE",
"176 284 LINE",
"165 280 LINE",
"164 277 LINE",
"168 274 OFFCURVE",
"175 273 OFFCURVE",
"181 273 CURVE",
"139 221 OFFCURVE",
"73 113 OFFCURVE",
"73 45 CURVE SMOOTH",
"73 26 OFFCURVE",
"83 9 OFFCURVE",
"87 -8 CURVE",
"108 -14 LINE",
"110 -19 LINE",
"120 -22 OFFCURVE",
"130 -20 OFFCURVE",
"139 -23 CURVE",
"164 -17 OFFCURVE",
"224 66 OFFCURVE",
"247 88 CURVE",
"243 90 LINE",
"255 104 LINE",
"247 94 LINE",
"263 105 LINE",
"270 125 LINE",
"277 125 LINE",
"331 183 OFFCURVE",
"373 251 OFFCURVE",
"424 310 CURVE",
"426 325 LINE",
"432 330 LINE",
"445 334 LINE",
"440 315 OFFCURVE",
"436 296 OFFCURVE",
"428 278 CURVE",
"434 272 OFFCURVE",
"431 264 OFFCURVE",
"431 256 CURVE",
"433 256 LINE",
"427 251 OFFCURVE",
"420 245 OFFCURVE",
"420 238 CURVE SMOOTH",
"420 159 OFFCURVE",
"196 -262 OFFCURVE",
"85 -262 CURVE SMOOTH",
"62 -262 OFFCURVE",
"44 -247 OFFCURVE",
"31 -229 CURVE",
"30 -219 OFFCURVE",
"19 -192 OFFCURVE",
"19 -186 CURVE SMOOTH",
"19 -179 OFFCURVE",
"22 -172 OFFCURVE",
"22 -165 CURVE",
"17 -175 OFFCURVE",
"4 -208 OFFCURVE",
"4 -217 CURVE SMOOTH",
"4 -241 OFFCURVE",
"20 -263 OFFCURVE",
"44 -268 CURVE",
"48 -272 LINE",
"55 -275 OFFCURVE",
"63 -276 OFFCURVE",
"71 -276 CURVE SMOOTH"
);
},
{
closed = 1;
nodes = (
"336 188 LINE",
"338 194 LINE",
"334 193 LINE",
"328 184 LINE"
);
}
);
width = 447;
}
);
note = Y;
unicode = 0059;
},
{
glyphname = Z;
lastChange = "2021-11-19 01:29:12 +0000";
layers = (
{
anchors = (
{
name = bottom;
position = "{260, 0}";
},
{
name = center;
position = "{260, 240}";
},
{
name = top;
position = "{417, 480}";
}
);
layerId = "01BDBA83-373F-4081-A4FB-32E4C1670F2F";
paths = (
{
closed = 1;
nodes = (
"562 -68 OFFCURVE",
"565 -59 OFFCURVE",
"565 -49 CURVE SMOOTH",
"565 -23 OFFCURVE",
"514 17 OFFCURVE",
"489 17 CURVE",
"482 14 LINE",
"450 9 OFFCURVE",
"447 38 OFFCURVE",
"429 38 CURVE SMOOTH",
"418 38 LINE",
"411 48 OFFCURVE",
"397 48 OFFCURVE",
"386 48 CURVE SMOOTH",
"371 48 LINE",
"365 57 LINE",
"356 57 OFFCURVE",
"348 51 OFFCURVE",
"339 51 CURVE",
"335 52 LINE",
"340 58 LINE",
"328 63 OFFCURVE",
"315 65 OFFCURVE",
"301 65 CURVE SMOOTH",
"293 65 OFFCURVE",
"286 64 OFFCURVE",
"279 62 CURVE",
"243 64 OFFCURVE",
"207 58 OFFCURVE",
"171 58 CURVE SMOOTH",
"139 58 LINE",
"187 104 OFFCURVE",
"247 132 OFFCURVE",
"302 169 CURVE",
"316 168 OFFCURVE",
"350 196 OFFCURVE",
"361 205 CURVE",
"361 210 LINE",
"353 212 LINE",
"357 220 LINE",
"373 221 LINE",
"399 241 LINE",
"417 241 OFFCURVE",
"429 257 OFFCURVE",
"446 263 CURVE",
"491 297 OFFCURVE",
"600 351 OFFCURVE",
"600 415 CURVE SMOOTH",
"600 462 OFFCURVE",
"456 465 OFFCURVE",
"422 465 CURVE SMOOTH",
"327 465 OFFCURVE",
"207 461 OFFCURVE",
"157 364 CURVE SMOOTH",
"152 355 OFFCURVE",
"148 344 OFFCURVE",
"148 332 CURVE",
"149 328 LINE",
"151 329 OFFCURVE",
"155 334 OFFCURVE",
"157 335 CURVE",
"185 400 OFFCURVE",
"251 390 OFFCURVE",
"260 395 CURVE",
"263 401 OFFCURVE",
"266 408 OFFCURVE",
"274 408 CURVE SMOOTH",
"322 408 OFFCURVE",
"361 439 OFFCURVE",
"409 439 CURVE SMOOTH",
"450 439 OFFCURVE",
"491 433 OFFCURVE",
"527 412 CURVE",
"530 405 LINE",
"490 357 OFFCURVE",
"484 353 OFFCURVE",
"425 334 CURVE",
"418 322 OFFCURVE",
"409 311 OFFCURVE",
"396 306 CURVE",
"395 297 LINE",
"384 294 LINE",
"384 298 LINE",
"373 296 LINE",
"373 293 LINE",
"376 287 LINE",
"366 292 OFFCURVE",
"355 290 OFFCURVE",
"348 280 CURVE",
"346 266 LINE",
"342 263 LINE",
"328 266 LINE",
"324 262 LINE",
"326 254 OFFCURVE",
"337 256 OFFCURVE",
"340 248 CURVE",
"339 247 LINE SMOOTH",
"268 176 OFFCURVE",
"179 130 OFFCURVE",
"109 58 CURVE",
"89 58 OFFCURVE",
"-6 56 OFFCURVE",
"-6 29 CURVE SMOOTH",
"-6 7 OFFCURVE",
"29 -12 OFFCURVE",
"48 -12 CURVE SMOOTH",
"132 -12 OFFCURVE",
"215 18 OFFCURVE",
"300 18 CURVE SMOOTH",
"352 18 OFFCURVE",
"404 11 OFFCURVE",
"456 9 CURVE",
"482 -9 OFFCURVE",
"513 -16 OFFCURVE",
"536 -40 CURVE",
"543 -53 OFFCURVE",
"550 -67 OFFCURVE",
"561 -77 CURVE"
);
}
);
width = 520;
}
);
note = Z;
unicode = 005A;
},
{
glyphname = E.ss01;
lastChange = "2021-11-19 01:29:12 +0000";
layers = (
{
layerId = "01BDBA83-373F-4081-A4FB-32E4C1670F2F";
paths = (
{
closed = 1;
nodes = (
"192 -31 LINE SMOOTH",
"205 -31 OFFCURVE",
"219 -31 OFFCURVE",
"231 -29 CURVE",
"242 -19 LINE",
"252 -23 LINE",
"272 -20 LINE",
"264 -13 LINE",
"270 -7 LINE",
"277 -9 OFFCURVE",
"283 -13 OFFCURVE",
"288 -19 CURVE",
"294 -12 OFFCURVE",
"301 -4 OFFCURVE",
"311 0 CURVE",
"307 10 LINE",
"322 14 LINE",
"323 8 LINE",
"328 13 OFFCURVE",
"336 18 OFFCURVE",
"344 21 CURVE",
"355 16 LINE",
"353 10 LINE",
"393 21 OFFCURVE",
"431 40 OFFCURVE",
"470 56 CURVE",
"479 52 LINE",
"501 61 OFFCURVE",
"517 74 OFFCURVE",
"536 87 CURVE SMOOTH",
"543 92 OFFCURVE",
"577 95 OFFCURVE",
"577 101 CURVE SMOOTH",
"577 106 LINE",
"616 128 OFFCURVE",
"652 157 OFFCURVE",
"686 186 CURVE",
"680 189 LINE",
"589 148 OFFCURVE",
"498 108 OFFCURVE",
"402 76 CURVE",
"400 82 LINE",
"378 67 OFFCURVE",
"190 14 OFFCURVE",
"166 14 CURVE SMOOTH",
"110 14 OFFCURVE",
"79 39 OFFCURVE",
"68 94 CURVE",
"81 100 OFFCURVE",
"93 107 OFFCURVE",
"103 116 CURVE",
"98 123 OFFCURVE",
"95 131 OFFCURVE",
"95 139 CURVE",
"98 147 OFFCURVE",
"104 152 OFFCURVE",
"112 155 CURVE",
"111 162 OFFCURVE",
"103 168 OFFCURVE",
"98 173 CURVE",
"101 174 OFFCURVE",
"103 175 OFFCURVE",
"106 175 CURVE SMOOTH",
"110 175 LINE",
"110 172 LINE",
"112 166 LINE",
"120 170 LINE",
"121 172 OFFCURVE",
"121 175 OFFCURVE",
"121 176 CURVE SMOOTH",
"121 183 OFFCURVE",
"116 187 OFFCURVE",
"111 190 CURVE",
"119 204 LINE",
"119 222 OFFCURVE",
"127 229 OFFCURVE",
"145 229 CURVE",
"158 222 LINE",
"166 222 OFFCURVE",
"161 245 OFFCURVE",
"176 245 CURVE SMOOTH",
"183 245 OFFCURVE",
"189 243 OFFCURVE",
"194 241 CURVE",
"207 251 LINE",
"219 251 OFFCURVE",
"228 259 OFFCURVE",
"235 259 CURVE SMOOTH",
"242 259 OFFCURVE",
"240 247 OFFCURVE",
"248 247 CURVE SMOOTH",
"254 247 OFFCURVE",
"261 250 OFFCURVE",
"265 253 CURVE",
"264 260 LINE",
"267 265 LINE",
"276 260 LINE",
"277 266 OFFCURVE",
"283 272 OFFCURVE",
"289 272 CURVE",
"293 271 LINE",
"303 277 LINE",
"303 281 LINE",
"308 283 LINE",
"308 276 OFFCURVE",
"309 263 OFFCURVE",
"300 260 CURVE",
"292 263 LINE",
"291 258 LINE",
"304 252 LINE",
"310 252 OFFCURVE",
"316 255 OFFCURVE",
"319 261 CURVE",
"310 265 LINE",
"314 269 OFFCURVE",
"319 273 OFFCURVE",
"326 275 CURVE",
"337 267 LINE",
"346 273 OFFCURVE",
"355 276 OFFCURVE",
"366 276 CURVE",
"376 284 LINE",
"387 276 LINE",
"388 276 LINE",
"403 286 LINE",
"432 283 LINE",
"436 285 LINE",
"435 292 LINE",
"446 297 LINE",
"465 297 OFFCURVE",
"482 292 OFFCURVE",
"501 292 CURVE SMOOTH",
"519 292 OFFCURVE",
"534 305 OFFCURVE",
"552 305 CURVE SMOOTH",
"573 305 OFFCURVE",
"622 295 OFFCURVE",
"636 314 CURVE",
"630 319 LINE",
"518 319 OFFCURVE",
"406 319 OFFCURVE",
"295 308 CURVE SMOOTH",
"274 306 OFFCURVE",
"254 294 OFFCURVE",
"232 294 CURVE SMOOTH",
"228 294 OFFCURVE",
"221 296 OFFCURVE",
"217 297 CURVE",
"284 373 OFFCURVE",
"351 388 OFFCURVE",
"435 435 CURVE",
"445 428 LINE",
"483 439 OFFCURVE",
"519 459 OFFCURVE",
"560 459 CURVE SMOOTH",
"589 459 OFFCURVE",
"662 458 OFFCURVE",
"662 412 CURVE SMOOTH",
"662 404 OFFCURVE",
"660 397 OFFCURVE",
"654 391 CURVE",
"661 384 LINE",
"669 387 OFFCURVE",
"676 391 OFFCURVE",
"683 396 CURVE",
"687 404 OFFCURVE",
"691 413 OFFCURVE",
"691 423 CURVE SMOOTH",
"691 430 OFFCURVE",
"688 437 OFFCURVE",
"681 442 CURVE",
"685 448 OFFCURVE",
"697 445 OFFCURVE",
"697 453 CURVE",
"665 490 OFFCURVE",
"700 521 OFFCURVE",
"608 521 CURVE SMOOTH",
"583 521 OFFCURVE",
"510 510 OFFCURVE",
"490 497 CURVE",
"429 508 OFFCURVE",
"318 412 OFFCURVE",
"259 401 CURVE",
"253 405 LINE",
"238 390 OFFCURVE",
"172 322 OFFCURVE",
"156 320 CURVE",
"114 273 OFFCURVE",
"32 210 OFFCURVE",
"32 141 CURVE",
"34 137 LINE",
"40 132 LINE",
"39 120 OFFCURVE",
"20 112 OFFCURVE",
"20 94 CURVE SMOOTH",
"20 74 OFFCURVE",
"31 40 OFFCURVE",
"52 32 CURVE",
"50 27 LINE",
"56 12 OFFCURVE",
"73 4 OFFCURVE",
"87 0 CURVE",
"93 4 LINE",
"103 -5 LINE",
"111 -5 OFFCURVE",
"112 5 OFFCURVE",
"119 5 CURVE SMOOTH",
"129 5 OFFCURVE",
"119 -20 OFFCURVE",
"139 -20 CURVE SMOOTH",
"160 -20 OFFCURVE",
"159 -14 OFFCURVE",
"177 -31 CURVE"
);
},
{
closed = 1;
nodes = (
"310 -16 LINE",
"310 -14 LINE",
"306 -17 LINE",
"312 -19 LINE"
);
},
{
closed = 1;
nodes = (
"354 -2 LINE",
"344 3 LINE",
"340 3 LINE",
"333 -5 LINE",
"343 -12 LINE"
);
},
{
closed = 1;
nodes = (
"183 235 LINE",
"179 238 LINE",
"173 232 LINE"
);
},
{
closed = 1;
nodes = (
"273 283 LINE",
"280 284 LINE",
"283 283 LINE",
"288 286 LINE",
"293 284 LINE",
"283 278 LINE"
);
},
{
closed = 1;
nodes = (
"339 285 LINE",
"337 286 LINE",
"343 291 LINE",
"349 285 LINE"
);
},
{
closed = 1;
nodes = (
"284 384 LINE",
"291 386 LINE",
"292 383 LINE",
"283 381 LINE"
);
},
{
closed = 1;
nodes = (
"310 399 LINE",
"319 406 LINE",
"328 402 LINE",
"314 396 LINE"
);
},
{
closed = 1;
nodes = (
"337 409 LINE",
"336 411 LINE",
"340 417 LINE",
"341 419 LINE",
"344 419 LINE",
"358 417 LINE",
"355 412 OFFCURVE",
"348 408 OFFCURVE",
"342 408 CURVE SMOOTH"
);
},
{
closed = 1;
nodes = (
"349 414 LINE",
"346 416 LINE",
"344 415 LINE",
"347 412 LINE"
);
},
{
closed = 1;
nodes = (
"491 301 LINE",
"505 303 LINE",
"499 298 LINE"
);
},
{
closed = 1;
nodes = (
"657 314 LINE",
"646 317 LINE",
"643 313 LINE",
"648 310 LINE"
);
},
{
closed = 1;
nodes = (
"561 469 OFFCURVE",
"552 472 OFFCURVE",
"551 480 CURVE",
"562 481 OFFCURVE",
"572 485 OFFCURVE",
"583 485 CURVE SMOOTH",
"587 485 OFFCURVE",
"591 485 OFFCURVE",
"595 484 CURVE",
"572 476 LINE",
"573 472 LINE",
"568 469 LINE"
);
},
{
closed = 1;
nodes = (
"599 481 LINE",
"599 483 LINE",
"613 481 LINE",
"611 480 LINE"
);
},
{
closed = 1;
nodes = (
"643 479 LINE",
"637 482 LINE",
"653 486 LINE",
"661 480 LINE",
"658 476 LINE"
);
}
);
width = 600;
}
);
},
{
glyphname = L.ss01;
lastChange = "2021-11-19 01:29:12 +0000";
layers = (
{
layerId = "01BDBA83-373F-4081-A4FB-32E4C1670F2F";
paths = (
{
closed = 1;
nodes = (
"523 -81 LINE",
"526 -83 LINE",
"527 -77 LINE",
"533 -85 LINE",
"538 -78 LINE",
"545 -79 LINE",
"548 -81 LINE",
"554 -77 LINE",
"563 -78 OFFCURVE",
"572 -78 OFFCURVE",
"581 -78 CURVE",
"585 -84 OFFCURVE",
"591 -87 OFFCURVE",
"598 -87 CURVE SMOOTH",
"608 -87 OFFCURVE",
"619 -81 OFFCURVE",
"630 -81 CURVE",
"672 -56 OFFCURVE",
"681 -11 OFFCURVE",
"681 35 CURVE SMOOTH",
"681 40 LINE",
"676 55 OFFCURVE",
"675 76 OFFCURVE",
"658 84 CURVE",
"650 78 LINE",
"651 70 LINE",
"658 58 OFFCURVE",
"670 47 OFFCURVE",
"670 31 CURVE SMOOTH",
"670 -15 OFFCURVE",
"612 -25 OFFCURVE",
"576 -25 CURVE SMOOTH",
"532 -25 OFFCURVE",
"475 1 OFFCURVE",
"434 17 CURVE",
"433 11 LINE",
"437 8 LINE",
"436 5 LINE",
"427 4 LINE",
"414 12 LINE",
"425 20 LINE",
"419 25 OFFCURVE",
"408 22 OFFCURVE",
"408 31 CURVE",
"396 33 LINE",
"388 31 LINE",
"346 53 OFFCURVE",
"301 68 OFFCURVE",
"256 83 CURVE",
"299 131 OFFCURVE",
"382 267 OFFCURVE",
"425 296 CURVE",
"433 319 LINE",
"462 346 OFFCURVE",
"469 381 OFFCURVE",
"501 405 CURVE",
"506 415 LINE",
"500 425 LINE",
"509 437 LINE",
"529 439 LINE",
"534 450 OFFCURVE",
"538 462 OFFCURVE",
"544 472 CURVE",
"542 488 OFFCURVE",
"463 519 OFFCURVE",
"446 520 CURVE",
"439 517 LINE",
"442 498 OFFCURVE",
"370 374 OFFCURVE",
"353 357 CURVE",
"354 355 LINE",
"357 355 LINE",
"367 362 OFFCURVE",
"378 371 OFFCURVE",
"391 373 CURVE",
"393 370 LINE",
"345 274 OFFCURVE",
"306 172 OFFCURVE",
"235 90 CURVE",
"206 95 OFFCURVE",
"177 103 OFFCURVE",
"148 103 CURVE SMOOTH",
"89 103 OFFCURVE",
"3 49 OFFCURVE",
"3 -15 CURVE SMOOTH",
"3 -25 OFFCURVE",
"11 -53 OFFCURVE",
"23 -53 CURVE SMOOTH",
"27 -53 LINE",
"31 -48 LINE",
"26 -40 OFFCURVE",
"13 -24 OFFCURVE",
"13 -16 CURVE SMOOTH",
"13 9 OFFCURVE",
"24 14 OFFCURVE",
"47 20 CURVE",
"64 35 OFFCURVE",
"85 32 OFFCURVE",
"91 38 CURVE",
"104 41 OFFCURVE",
"118 45 OFFCURVE",
"132 45 CURVE SMOOTH",
"147 45 OFFCURVE",
"161 43 OFFCURVE",
"175 41 CURVE",
"176 36 LINE",
"180 33 LINE",
"183 33 LINE",
"156 8 OFFCURVE",
"127 -15 OFFCURVE",
"94 -32 CURVE",
"95 -38 OFFCURVE",
"101 -41 OFFCURVE",
"107 -41 CURVE SMOOTH",
"134 -41 OFFCURVE",
"187 13 OFFCURVE",
"207 31 CURVE",
"315 6 OFFCURVE",
"406 -64 OFFCURVE",
"514 -90 CURVE"
);
},
{
closed = 1;
nodes = (
"184 41 LINE",
"184 43 LINE",
"189 56 LINE",
"199 63 LINE",
"208 60 LINE",
"200 54 OFFCURVE",
"193 47 OFFCURVE",
"186 39 CURVE"
);
},
{
closed = 1;
nodes = (
"220 39 LINE",
"219 40 LINE",
"220 43 LINE",
"226 49 LINE",
"227 47 LINE",
"222 39 LINE"
);
},
{
closed = 1;
nodes = (
"256 31 LINE",
"259 29 LINE",
"256 25 LINE"
);
},
{
closed = 1;
nodes = (
"450 -55 LINE",
"451 -53 LINE",
"454 -53 LINE",
"459 -57 LINE"
);
},
{
closed = 1;
nodes = (
"492 -75 OFFCURVE",
"477 -69 OFFCURVE",
"464 -59 CURVE",
"471 -56 LINE",
"474 -59 LINE",
"483 -61 LINE",
"488 -60 LINE",
"497 -71 LINE",
"505 -63 LINE",
"508 -77 LINE"
);
},
{
closed = 1;
nodes = (
"485 -51 LINE",
"496 -42 LINE",
"497 -42 LINE",
"490 -55 LINE"
);
},
{
closed = 1;
nodes = (
"553 -91 LINE",
"549 -86 LINE",
"545 -87 LINE",
"543 -90 LINE",
"548 -94 LINE"
);
},
{
closed = 1;
nodes = (
"520 -60 LINE",
"526 -54 LINE",
"531 -64 LINE",
"526 -70 LINE"
);
},
{
closed = 1;
nodes = (
"572 -88 LINE",
"572 -86 LINE",
"567 -84 LINE",
"564 -84 LINE",
"569 -94 LINE"
);
},
{
closed = 1;
nodes = (
"345 343 LINE",
"348 347 LINE",
"348 352 LINE",
"347 356 LINE",
"340 346 LINE",
"343 343 LINE"
);
},
{
closed = 1;
nodes = (
"444 346 LINE",
"441 348 LINE",
"448 359 LINE",
"449 355 LINE",
"449 350 LINE",
"445 346 LINE"
);
}
);
width = 681;
}
);
},
{
glyphname = M.ss01;
lastChange = "2021-11-19 01:29:12 +0000";
layers = (
{
layerId = "01BDBA83-373F-4081-A4FB-32E4C1670F2F";
paths = (
{
closed = 1;
nodes = (
"-8 -171 OFFCURVE",
"110 -63 OFFCURVE",
"161 13 CURVE",
"160 13 LINE",
"168 23 OFFCURVE",
"175 34 OFFCURVE",
"184 43 CURVE",
"183 44 LINE",
"211 70 OFFCURVE",
"282 200 OFFCURVE",
"297 239 CURVE",
"305 238 LINE",
"315 224 LINE",
"310 212 LINE",
"318 193 LINE",
"320 194 LINE",
"324 189 LINE",
"323 186 OFFCURVE",
"319 175 OFFCURVE",
"319 174 CURVE SMOOTH",
"319 131 OFFCURVE",
"371 22 OFFCURVE",
"418 22 CURVE SMOOTH",
"487 22 OFFCURVE",
"474 58 OFFCURVE",
"516 88 CURVE",
"514 95 LINE",
"517 101 LINE",
"522 93 LINE",
"535 111 LINE",
"534 121 LINE",
"542 133 LINE",
"546 120 LINE",
"549 125 LINE",
"548 134 LINE",
"552 141 LINE",
"559 132 LINE",
"561 135 LINE",
"559 144 LINE",
"604 184 OFFCURVE",
"639 233 OFFCURVE",
"678 279 CURVE",
"674 231 OFFCURVE",
"634 193 OFFCURVE",
"634 146 CURVE SMOOTH",
"634 142 OFFCURVE",
"635 139 OFFCURVE",
"635 135 CURVE",
"629 125 LINE",
"636 107 OFFCURVE",
"615 84 OFFCURVE",
"613 64 CURVE",
"610 68 LINE",
"611 76 LINE",
"607 76 LINE",
"603 71 LINE",
"607 38 OFFCURVE",
"594 7 OFFCURVE",
"594 -26 CURVE SMOOTH",
"594 -50 OFFCURVE",
"611 -77 OFFCURVE",
"638 -77 CURVE SMOOTH",
"643 -77 OFFCURVE",
"648 -77 OFFCURVE",
"652 -76 CURVE",
"668 -54 OFFCURVE",
"685 -33 OFFCURVE",
"705 -15 CURVE",
"720 15 OFFCURVE",
"749 25 OFFCURVE",
"764 49 CURVE",
"759 52 LINE",
"736 33 OFFCURVE",
"713 16 OFFCURVE",
"689 -1 CURVE",
"682 1 LINE",
"676 -1 LINE",
"670 -11 OFFCURVE",
"656 -14 OFFCURVE",
"645 -15 CURVE",
"642 -12 OFFCURVE",
"639 -6 OFFCURVE",
"639 -1 CURVE SMOOTH",
"639 141 OFFCURVE",
"684 167 OFFCURVE",
"726 286 CURVE",
"748 310 OFFCURVE",
"728 325 OFFCURVE",
"778 368 CURVE",
"769 376 LINE",
"776 380 LINE",
"780 380 LINE",
"787 398 OFFCURVE",
"804 421 OFFCURVE",
"804 440 CURVE SMOOTH",
"804 442 LINE",
"791 458 OFFCURVE",
"760 466 OFFCURVE",
"741 466 CURVE",
"710 452 OFFCURVE",
"679 398 OFFCURVE",
"679 364 CURVE SMOOTH",
"679 355 OFFCURVE",
"688 349 OFFCURVE",
"688 340 CURVE SMOOTH",
"688 336 LINE",
"650 277 OFFCURVE",
"517 97 OFFCURVE",
"445 97 CURVE SMOOTH",
"404 97 OFFCURVE",
"356 248 OFFCURVE",
"356 283 CURVE SMOOTH",
"356 328 OFFCURVE",
"337 370 OFFCURVE",
"337 414 CURVE SMOOTH",
"337 428 OFFCURVE",
"336 431 OFFCURVE",
"321 429 CURVE SMOOTH",
"313 428 LINE",
"301 464 LINE",
"300 464 OFFCURVE",
"297 465 OFFCURVE",
"295 465 CURVE SMOOTH",
"283 465 OFFCURVE",
"265 445 OFFCURVE",
"265 433 CURVE",
"266 428 OFFCURVE",
"269 424 OFFCURVE",
"273 421 CURVE",
"256 417 LINE",
"252 404 LINE",
"254 396 LINE",
"265 394 OFFCURVE",
"249 336 OFFCURVE",
"271 336 CURVE",
"275 315 LINE",
"281 322 LINE",
"284 318 LINE",
"284 314 LINE SMOOTH",
"284 310 OFFCURVE",
"283 306 OFFCURVE",
"283 301 CURVE",
"281 302 LINE",
"280 301 LINE",
"282 212 OFFCURVE",
"52 -121 OFFCURVE",
"-23 -123 CURVE",
"-28 -119 LINE",
"-26 -112 LINE",
"-17 -105 OFFCURVE",
"-13 -95 OFFCURVE",
"-9 -86 CURVE",
"1 -76 LINE",
"-2 -76 LINE",
"-31 -94 OFFCURVE",
"-62 -104 OFFCURVE",
"-95 -115 CURVE",
"-99 -120 LINE",
"-106 -121 LINE",
"-113 -130 LINE",
"-114 -131 LINE",
"-131 -122 LINE",
"-131 -140 LINE SMOOTH",
"-131 -147 OFFCURVE",
"-127 -152 OFFCURVE",
"-129 -159 CURVE",
"-118 -170 OFFCURVE",
"-113 -186 OFFCURVE",
"-99 -194 CURVE"
);
},
{
closed = 1;
nodes = (
"12 -67 LINE",
"12 -64 LINE",
"9 -61 LINE",
"7 -61 LINE",
"5 -67 LINE"
);
},
{
closed = 1;
nodes = (
"616 87 LINE",
"615 93 LINE",
"623 104 LINE",
"619 109 LINE",
"613 103 OFFCURVE",
"609 97 OFFCURVE",
"609 89 CURVE SMOOTH",
"609 86 LINE",
"614 85 LINE"
);
},
{
closed = 1;
nodes = (
"625 126 OFFCURVE",
"627 134 OFFCURVE",
"628 142 CURVE",
"624 138 OFFCURVE",
"619 131 OFFCURVE",
"618 125 CURVE",
"620 119 LINE"
);
},
{
closed = 1;
nodes = (
"778 65 LINE",
"775 66 LINE",
"773 63 LINE",
"776 58 LINE"
);
}
);
width = 772;
}
);
},
{
glyphname = a;
lastChange = "2021-11-19 00:56:47 +0000";
layers = (
{
anchors = (
{
name = bottom;
position = "{110, 0}";
},
{
name = ogonek;
position = "{286, -37}";
},
{
name = top;
position = "{248, 205}";
}
);
layerId = "01BDBA83-373F-4081-A4FB-32E4C1670F2F";
paths = (
{
closed = 1;
nodes = (
"241 -63 LINE",
"239 -48 OFFCURVE",
"231 -34 OFFCURVE",
"231 -19 CURVE SMOOTH",
"231 49 OFFCURVE",
"310 148 OFFCURVE",
"310 166 CURVE SMOOTH",
"310 183 OFFCURVE",
"286 198 OFFCURVE",
"271 198 CURVE SMOOTH",
"233 198 OFFCURVE",
"240 131 OFFCURVE",
"222 128 CURVE",
"220 121 OFFCURVE",
"215 120 OFFCURVE",
"213 114 CURVE",
"196 100 LINE",
"182 70 OFFCURVE",
"135 31 OFFCURVE",
"100 31 CURVE SMOOTH",
"88 31 OFFCURVE",
"80 39 OFFCURVE",
"80 50 CURVE SMOOTH",
"80 115 OFFCURVE",
"179 181 OFFCURVE",
"233 201 CURVE",
"229 203 LINE",
"222 203 OFFCURVE",
"215 201 OFFCURVE",
"207 201 CURVE",
"193 192 LINE",
"187 195 LINE",
"170 184 LINE",
"166 184 LINE",
"163 173 OFFCURVE",
"142 174 OFFCURVE",
"139 160 CURVE",
"130 154 OFFCURVE",
"119 155 OFFCURVE",
"110 148 CURVE",
"104 139 LINE",
"101 141 LINE",
"91 129 LINE",
"90 124 LINE",
"84 123 OFFCURVE",
"77 120 OFFCURVE",
"76 113 CURVE",
"50 93 OFFCURVE",
"52 94 OFFCURVE",
"42 63 CURVE",
"45 55 LINE",
"41 42 LINE",
"45 24 OFFCURVE",
"51 21 OFFCURVE",
"68 17 CURVE",
"75 11 OFFCURVE",
"92 10 OFFCURVE",
"101 10 CURVE SMOOTH",
"130 10 OFFCURVE",
"154 47 OFFCURVE",
"183 53 CURVE",
"184 62 LINE",
"191 67 OFFCURVE",
"193 76 OFFCURVE",
"199 82 CURVE",
"203 91 OFFCURVE",
"211 97 OFFCURVE",
"218 104 CURVE",
"218 89 OFFCURVE",
"210 74 OFFCURVE",
"205 59 CURVE",
"207 58 LINE",
"202 39 LINE",
"205 11 OFFCURVE",
"213 -16 OFFCURVE",
"220 -43 CURVE",
"240 -66 LINE"
);
}
);
width = 278;
}
);
note = a;
unicode = 0061;
},
{
color = 0;
glyphname = ae;
lastChange = "2021-11-19 02:36:09 +0000";
layers = (
{
layerId = "01BDBA83-373F-4081-A4FB-32E4C1670F2F";
paths = (
{
closed = 1;
nodes = (
"277 -13 OFFCURVE",
"286 13 OFFCURVE",
"290 19 CURVE",
"291 17 OFFCURVE",
"292 13 OFFCURVE",
"292 12 CURVE SMOOTH",
"292 8 LINE",
"289 4 LINE",
"289 -5 LINE",
"295 -4 LINE",
"301 3 OFFCURVE",
"306 10 OFFCURVE",
"306 19 CURVE SMOOTH",
"306 22 LINE",
"304 22 LINE",
"301 24 LINE",
"301 27 LINE",
"306 26 LINE",
"311 33 LINE",
"313 31 OFFCURVE",
"315 27 OFFCURVE",
"316 23 CURVE",
"326 25 LINE",
"326 26 LINE",
"323 32 LINE",
"330 40 LINE",
"330 43 LINE",
"337 44 LINE",
"335 61 LINE",
"341 65 LINE",
"346 56 LINE",
"346 45 OFFCURVE",
"339 36 OFFCURVE",
"330 31 CURVE",
"333 27 LINE",
"337 30 OFFCURVE",
"342 33 OFFCURVE",
"346 37 CURVE",
"350 46 LINE",
"352 39 LINE",
"358 45 LINE",
"357 50 LINE",
"353 53 LINE",
"362 64 LINE",
"367 62 LINE",
"377 62 OFFCURVE",
"368 77 OFFCURVE",
"386 85 CURVE",
"390 79 OFFCURVE",
"391 73 OFFCURVE",
"392 67 CURVE",
"399 71 OFFCURVE",
"402 83 OFFCURVE",
"404 89 CURVE",
"409 92 OFFCURVE",
"414 95 OFFCURVE",
"418 99 CURVE",
"422 106 LINE",
"418 110 LINE",
"428 122 OFFCURVE",
"442 133 OFFCURVE",
"455 143 CURVE",
"455 147 LINE",
"449 149 LINE",
"412 120 OFFCURVE",
"292 36 OFFCURVE",
"248 35 CURVE",
"247 37 OFFCURVE",
"247 40 OFFCURVE",
"247 41 CURVE SMOOTH",
"247 48 OFFCURVE",
"251 53 OFFCURVE",
"256 57 CURVE",
"256 62 LINE",
"259 68 LINE",
"258 85 LINE",
"256 85 LINE",
"257 94 LINE",
"266 101 LINE",
"273 96 LINE",
"274 98 LINE",
"271 103 OFFCURVE",
"269 110 OFFCURVE",
"268 115 CURVE",
"264 112 LINE",
"258 115 LINE",
"259 127 LINE",
"266 127 LINE",
"268 122 LINE",
"281 125 LINE",
"280 130 LINE",
"268 134 LINE",
"274 140 LINE",
"278 139 LINE",
"282 144 LINE",
"284 140 LINE",
"293 145 LINE",
"294 145 LINE",
"297 141 LINE",
"341 150 OFFCURVE",
"448 192 OFFCURVE",
"448 247 CURVE SMOOTH",
"448 256 OFFCURVE",
"418 292 OFFCURVE",
"410 304 CURVE",
"408 305 OFFCURVE",
"403 306 OFFCURVE",
"400 306 CURVE SMOOTH",
"364 306 OFFCURVE",
"301 240 OFFCURVE",
"274 215 CURVE",
"270 217 OFFCURVE",
"249 223 OFFCURVE",
"246 223 CURVE SMOOTH",
"243 223 LINE",
"244 219 LINE",
"224 173 OFFCURVE",
"102 64 OFFCURVE",
"56 43 CURVE",
"51 52 LINE",
"66 83 OFFCURVE",
"79 114 OFFCURVE",
"100 141 CURVE",
"95 140 LINE",
"91 143 LINE",
"99 147 LINE",
"113 167 LINE",
"116 163 LINE",
"106 153 LINE",
"120 166 OFFCURVE",
"135 177 OFFCURVE",
"148 192 CURVE",
"184 227 LINE",
"184 222 LINE",
"198 229 OFFCURVE",
"213 235 OFFCURVE",
"229 238 CURVE",
"238 243 LINE",
"247 229 LINE",
"250 239 LINE",
"246 258 OFFCURVE",
"235 298 OFFCURVE",
"211 298 CURVE SMOOTH",
"193 298 OFFCURVE",
"160 271 OFFCURVE",
"146 261 CURVE",
"142 252 OFFCURVE",
"93 211 OFFCURVE",
"82 196 CURVE",
"77 198 LINE",
"75 195 LINE",
"76 195 LINE",
"85 190 LINE",
"87 190 LINE",
"96 200 LINE",
"101 197 LINE",
"96 188 LINE",
"76 173 LINE",
"76 177 LINE",
"74 183 LINE",
"71 182 LINE",
"66 171 OFFCURVE",
"56 164 OFFCURVE",
"50 153 CURVE",
"47 155 LINE",
"40 144 OFFCURVE",
"33 132 OFFCURVE",
"29 121 CURVE",
"31 117 LINE",
"36 129 OFFCURVE",
"42 141 OFFCURVE",
"53 148 CURVE",
"57 157 LINE",
"64 152 LINE",
"62 148 LINE",
"63 146 LINE",
"65 147 LINE",
"68 152 LINE",
"70 147 LINE",
"65 139 OFFCURVE",
"58 131 OFFCURVE",
"50 125 CURVE",
"49 125 LINE",
"46 119 OFFCURVE",
"45 112 OFFCURVE",
"45 105 CURVE SMOOTH",
"45 103 OFFCURVE",
"47 98 OFFCURVE",
"48 95 CURVE",
"38 87 LINE",
"34 91 LINE",
"35 87 LINE",
"33 81 LINE",
"28 79 LINE",
"22 82 LINE",
"19 75 LINE",
"24 65 LINE",
"18 68 LINE",
"17 66 LINE",
"17 43 OFFCURVE",
"47 0 OFFCURVE",
"71 0 CURVE SMOOTH",
"81 0 OFFCURVE",
"91 4 OFFCURVE",
"100 9 CURVE",
"100 21 OFFCURVE",
"102 31 OFFCURVE",
"105 42 CURVE",
"116 35 LINE",
"119 53 LINE",
"130 61 LINE",
"131 57 LINE",
"141 66 OFFCURVE",
"172 85 OFFCURVE",
"172 98 CURVE",
"171 103 LINE",
"191 127 OFFCURVE",
"211 152 OFFCURVE",
"234 173 CURVE",
"235 168 LINE",
"235 159 OFFCURVE",
"185 82 OFFCURVE",
"185 37 CURVE SMOOTH",
"185 19 OFFCURVE",
"209 12 OFFCURVE",
"222 7 CURVE",
"226 8 LINE",
"237 3 OFFCURVE",
"258 -13 OFFCURVE",
"269 -13 CURVE SMOOTH"
);
},
{
closed = 1;
nodes = (
"34 94 OFFCURVE",
"40 108 OFFCURVE",
"41 117 CURVE",
"31 108 LINE",
"30 109 LINE",
"25 106 OFFCURVE",
"23 99 OFFCURVE",
"22 94 CURVE"
);
},
{
closed = 1;
nodes = (
"61 139 LINE",
"62 143 LINE",
"58 139 LINE",
"54 130 LINE"
);
},
{
closed = 1;
nodes = (
"75 192 LINE",
"69 189 LINE",
"73 187 LINE"
);
},
{
closed = 1;
nodes = (
"290 31 LINE",
"285 32 LINE",
"289 33 LINE",
"294 32 LINE",
"297 33 LINE",
"292 29 LINE"
);
},
{
closed = 1;
nodes = (
"104 213 LINE",
"110 220 LINE",
"113 217 LINE",
"115 222 LINE",
"120 225 OFFCURVE",
"124 229 OFFCURVE",
"130 230 CURVE",
"131 229 LINE",
"125 221 OFFCURVE",
"119 213 OFFCURVE",
"112 206 CURVE"
);
},
{
closed = 1;
nodes = (
"311 40 LINE",
"310 41 LINE",
"310 42 LINE",
"313 44 LINE",
"315 44 LINE",
"316 43 LINE",
"315 40 LINE"
);
},
{
closed = 1;
nodes = (
"250 106 LINE",
"252 112 LINE",
"255 112 LINE",
"260 109 LINE",
"253 106 LINE"
);
},
{
closed = 1;
nodes = (
"139 201 OFFCURVE",
"157 209 OFFCURVE",
"165 216 CURVE",
"166 222 LINE",
"177 227 OFFCURVE",
"185 235 OFFCURVE",
"195 240 CURVE",
"197 240 LINE",
"148 193 LINE",
"147 193 LINE",
"139 190 LINE"
);
},
{
closed = 1;
nodes = (
"389 62 LINE",
"385 66 LINE",
"382 63 LINE",
"381 58 LINE"
);
},
{
closed = 1;
nodes = (
"397 94 LINE",
"401 100 LINE",
"400 92 LINE"
);
},
{
closed = 1;
nodes = (
"412 106 LINE",
"413 103 LINE",
"409 101 LINE"
);
},
{
closed = 1;
nodes = (
"306 164 LINE",
"308 191 OFFCURVE",
"386 242 OFFCURVE",
"409 256 CURVE",
"409 209 OFFCURVE",
"351 172 OFFCURVE",
"311 160 CURVE"
);
}
);
width = 435;
}
);
note = ae;
unicode = 00E6;
},
{
glyphname = b;
lastChange = "2021-11-19 00:56:47 +0000";
layers = (
{
layerId = "01BDBA83-373F-4081-A4FB-32E4C1670F2F";
paths = (
{
closed = 1;
nodes = (
"121 -30 OFFCURVE",
"292 88 OFFCURVE",
"292 121 CURVE SMOOTH",
"292 122 LINE",
"284 125 LINE",
"284 132 OFFCURVE",
"304 127 OFFCURVE",
"304 149 CURVE SMOOTH",
"304 154 OFFCURVE",
"302 160 OFFCURVE",
"301 165 CURVE",
"301 175 LINE",
"295 181 LINE",
"284 208 OFFCURVE",
"248 213 OFFCURVE",
"223 213 CURVE SMOOTH",
"203 213 OFFCURVE",
"184 209 OFFCURVE",
"163 206 CURVE",
"169 211 LINE",
"189 214 OFFCURVE",
"315 347 OFFCURVE",
"337 371 CURVE",
"337 384 LINE",
"330 398 OFFCURVE",
"309 403 OFFCURVE",
"295 406 CURVE",
"277 395 OFFCURVE",
"262 380 OFFCURVE",
"245 368 CURVE",
"245 367 LINE",
"194 324 LINE",
"194 319 LINE",
"199 320 OFFCURVE",
"216 325 OFFCURVE",
"216 317 CURVE SMOOTH",
"216 308 OFFCURVE",
"201 287 OFFCURVE",
"194 279 CURVE",
"190 276 LINE",
"190 265 LINE",
"186 260 LINE",
"182 260 OFFCURVE",
"177 257 OFFCURVE",
"175 255 CURVE",
"172 255 LINE",
"164 246 OFFCURVE",
"154 238 OFFCURVE",
"148 227 CURVE",
"148 216 OFFCURVE",
"139 207 OFFCURVE",
"133 199 CURVE",
"121 195 LINE",
"115 196 LINE",
"111 192 LINE",
"102 191 OFFCURVE",
"92 187 OFFCURVE",
"84 182 CURVE",
"76 181 OFFCURVE",
"44 166 OFFCURVE",
"43 157 CURVE",
"49 153 LINE",
"110 177 LINE",
"109 175 OFFCURVE",
"107 172 OFFCURVE",
"105 171 CURVE",
"103 156 LINE",
"101 156 LINE",
"92 144 LINE",
"92 143 LINE",
"77 139 OFFCURVE",
"67 109 OFFCURVE",
"66 95 CURVE",
"51 94 OFFCURVE",
"36 26 OFFCURVE",
"36 13 CURVE SMOOTH",
"36 -8 OFFCURVE",
"43 -16 OFFCURVE",
"63 -21 CURVE",
"68 -27 LINE",
"73 -29 OFFCURVE",
"79 -30 OFFCURVE",
"85 -30 CURVE SMOOTH"
);
},
{
closed = 1;
nodes = (
"55 -4 LINE",
"54 4 LINE",
"59 3 LINE",
"60 3 LINE",
"55 -3 LINE"
);
},
{
closed = 1;
nodes = (
"55 14 LINE",
"57 13 LINE",
"57 11 LINE",
"54 5 LINE"
);
},
{
closed = 1;
nodes = (
"83 -16 OFFCURVE",
"83 5 OFFCURVE",
"83 14 CURVE SMOOTH",
"83 56 OFFCURVE",
"130 127 OFFCURVE",
"166 147 CURVE",
"166 151 LINE",
"156 148 LINE",
"146 139 LINE",
"142 139 LINE",
"135 130 LINE",
"129 128 LINE",
"127 118 OFFCURVE",
"112 116 OFFCURVE",
"112 105 CURVE",
"108 102 OFFCURVE",
"103 99 OFFCURVE",
"98 96 CURVE",
"98 95 LINE",
"93 91 LINE",
"90 84 LINE",
"87 85 LINE",
"81 74 LINE",
"81 70 LINE",
"72 52 LINE",
"67 49 LINE",
"67 39 OFFCURVE",
"59 31 OFFCURVE",
"56 22 CURVE",
"59 43 OFFCURVE",
"67 63 OFFCURVE",
"74 83 CURVE",
"80 89 OFFCURVE",
"92 99 OFFCURVE",
"93 108 CURVE",
"97 120 LINE",
"112 125 OFFCURVE",
"125 147 OFFCURVE",
"131 148 CURVE",
"131 164 OFFCURVE",
"142 177 OFFCURVE",
"157 181 CURVE",
"159 184 LINE",
"163 185 OFFCURVE",
"173 189 OFFCURVE",
"176 189 CURVE SMOOTH",
"199 189 OFFCURVE",
"232 178 OFFCURVE",
"232 150 CURVE SMOOTH",
"232 106 OFFCURVE",
"142 -16 OFFCURVE",
"95 -16 CURVE SMOOTH"
);
},
{
closed = 1;
nodes = (
"190 312 LINE",
"188 319 LINE",
"182 320 LINE",
"179 313 LINE",
"180 310 LINE"
);
}
);
width = 263;
}
);
note = b;
unicode = 0062;
},
{
glyphname = c;
lastChange = "2021-11-19 00:56:47 +0000";
layers = (
{
anchors = (
{
name = bottom;
position = "{77, 0}";
},
{
name = top;
position = "{148, 205}";
}
);
layerId = "01BDBA83-373F-4081-A4FB-32E4C1670F2F";
paths = (
{
closed = 1;
nodes = (
"115 -7 OFFCURVE",
"143 19 OFFCURVE",
"167 36 CURVE",
"168 41 LINE",
"172 41 LINE",
"193 59 OFFCURVE",
"215 75 OFFCURVE",
"228 100 CURVE",
"236 103 OFFCURVE",
"244 111 OFFCURVE",
"244 121 CURVE",
"243 123 LINE",
"230 115 LINE",
"221 93 OFFCURVE",
"198 83 OFFCURVE",
"181 67 CURVE",
"181 66 LINE",
"177 68 LINE",
"176 68 LINE",
"158 51 LINE",
"158 50 LINE",
"153 53 LINE",
"148 50 OFFCURVE",
"145 46 OFFCURVE",
"139 44 CURVE",
"134 45 LINE",
"135 42 LINE",
"129 42 LINE",
"129 36 LINE",
"121 33 OFFCURVE",
"112 31 OFFCURVE",
"103 30 CURVE",
"101 25 LINE",
"100 26 LINE",
"89 27 OFFCURVE",
"73 24 OFFCURVE",
"64 31 CURVE",
"63 33 OFFCURVE",
"60 40 OFFCURVE",
"60 42 CURVE SMOOTH",
"60 80 OFFCURVE",
"108 162 OFFCURVE",
"149 162 CURVE SMOOTH",
"170 162 OFFCURVE",
"179 146 OFFCURVE",
"196 139 CURVE",
"203 139 OFFCURVE",
"205 149 OFFCURVE",
"205 155 CURVE SMOOTH",
"205 177 OFFCURVE",
"185 213 OFFCURVE",
"162 218 CURVE",
"162 216 LINE",
"114 216 OFFCURVE",
"29 117 OFFCURVE",
"29 70 CURVE SMOOTH",
"29 53 OFFCURVE",
"39 40 OFFCURVE",
"40 23 CURVE",
"50 15 OFFCURVE",
"70 -7 OFFCURVE",
"83 -7 CURVE SMOOTH"
);
},
{
closed = 1;
nodes = (
"257 132 LINE",
"256 135 LINE",
"247 132 LINE",
"247 126 LINE",
"255 124 LINE"
);
}
);
width = 153;
}
);
note = c;
unicode = 0063;
},
{
glyphname = d;
lastChange = "2021-11-19 00:56:47 +0000";
layers = (
{
anchors = (
{
name = bottom;
position = "{139, 0}";
},
{
name = center;
position = "{341, 274}";
},
{
name = top;
position = "{139, 800}";
},
{
name = topright;
position = "{449, 412}";
}
);
layerId = "01BDBA83-373F-4081-A4FB-32E4C1670F2F";
paths = (
{
closed = 1;
nodes = (
"239 -50 LINE",
"229 -39 OFFCURVE",
"225 -21 OFFCURVE",
"225 -6 CURVE SMOOTH",
"225 57 OFFCURVE",
"279 146 OFFCURVE",
"279 154 CURVE",
"278 156 LINE",
"285 165 OFFCURVE",
"291 178 OFFCURVE",
"302 181 CURVE",
"305 192 OFFCURVE",
"309 201 OFFCURVE",
"310 211 CURVE",
"315 212 OFFCURVE",
"454 356 OFFCURVE",
"454 369 CURVE SMOOTH",
"454 371 LINE",
"452 384 LINE",
"444 398 OFFCURVE",
"422 402 OFFCURVE",
"409 406 CURVE",
"391 395 OFFCURVE",
"379 380 OFFCURVE",
"363 368 CURVE",
"363 367 LINE",
"319 324 LINE",
"320 319 LINE",
"328 321 OFFCURVE",
"341 327 OFFCURVE",
"341 312 CURVE SMOOTH",
"341 308 OFFCURVE",
"325 283 OFFCURVE",
"325 282 CURVE SMOOTH",
"326 279 LINE",
"321 276 LINE",
"322 265 LINE",
"319 260 LINE",
"314 260 LINE",
"314 259 LINE",
"309 255 LINE",
"306 255 LINE",
"300 246 OFFCURVE",
"292 236 OFFCURVE",
"286 227 CURVE",
"288 214 OFFCURVE",
"275 205 OFFCURVE",
"267 197 CURVE",
"255 194 OFFCURVE",
"258 184 OFFCURVE",
"253 175 CURVE SMOOTH",
"247 163 OFFCURVE",
"224 144 OFFCURVE",
"220 132 CURVE",
"203 119 LINE",
"191 93 OFFCURVE",
"130 31 OFFCURVE",
"100 31 CURVE SMOOTH",
"88 31 OFFCURVE",
"80 39 OFFCURVE",
"80 50 CURVE SMOOTH",
"80 104 OFFCURVE",
"173 184 OFFCURVE",
"221 196 CURVE",
"230 195 OFFCURVE",
"247 208 OFFCURVE",
"247 217 CURVE",
"244 220 LINE",
"226 219 LINE",
"211 210 LINE",
"206 212 LINE",
"189 201 LINE",
"185 202 LINE",
"182 189 OFFCURVE",
"143 175 OFFCURVE",
"139 160 CURVE",
"130 154 OFFCURVE",
"119 155 OFFCURVE",
"110 148 CURVE",
"104 139 LINE",
"101 141 LINE",
"91 129 LINE",
"90 124 LINE",
"84 123 OFFCURVE",
"77 120 OFFCURVE",
"76 113 CURVE",
"50 93 OFFCURVE",
"52 94 OFFCURVE",
"42 63 CURVE",
"45 55 LINE",
"41 42 LINE",
"45 24 OFFCURVE",
"51 21 OFFCURVE",
"68 17 CURVE",
"75 11 OFFCURVE",
"92 10 OFFCURVE",
"101 10 CURVE SMOOTH",
"145 10 OFFCURVE",
"155 62 OFFCURVE",
"180 68 CURVE",
"190 78 OFFCURVE",
"196 92 OFFCURVE",
"206 101 CURVE",
"211 109 OFFCURVE",
"218 116 OFFCURVE",
"225 123 CURVE",
"225 109 OFFCURVE",
"211 76 OFFCURVE",
"205 59 CURVE",
"207 58 LINE",
"204 35 OFFCURVE",
"204 12 OFFCURVE",
"204 -12 CURVE SMOOTH",
"204 -28 OFFCURVE",
"215 -52 OFFCURVE",
"234 -52 CURVE"
);
}
);
width = 278;
}
);
note = d;
unicode = 0064;
},
{
glyphname = eth;
lastChange = "2021-11-19 00:56:47 +0000";
layers = (
{
layerId = "01BDBA83-373F-4081-A4FB-32E4C1670F2F";
paths = (
{
closed = 1;
nodes = (
"103 -7 OFFCURVE",
"157 40 OFFCURVE",
"181 66 CURVE",
"204 72 OFFCURVE",
"220 94 OFFCURVE",
"232 114 CURVE",
"238 117 OFFCURVE",
"243 121 OFFCURVE",
"247 125 CURVE",
"243 140 OFFCURVE",
"263 166 OFFCURVE",
"270 180 CURVE",
"262 182 LINE",
"263 185 OFFCURVE",
"264 190 OFFCURVE",
"264 193 CURVE SMOOTH",
"264 197 OFFCURVE",
"263 201 OFFCURVE",
"262 204 CURVE",
"265 207 LINE",
"276 205 OFFCURVE",
"288 207 OFFCURVE",
"294 218 CURVE",
"287 229 LINE",
"291 256 LINE",
"284 267 OFFCURVE",
"283 281 OFFCURVE",
"283 293 CURVE SMOOTH",
"283 330 LINE",
"292 336 LINE",
"287 353 OFFCURVE",
"292 364 OFFCURVE",
"292 382 CURVE SMOOTH",
"292 387 OFFCURVE",
"291 392 OFFCURVE",
"289 397 CURVE",
"321 417 OFFCURVE",
"355 434 OFFCURVE",
"389 451 CURVE",
"351 451 OFFCURVE",
"314 433 OFFCURVE",
"280 418 CURVE",
"250 465 OFFCURVE",
"213 492 OFFCURVE",
"156 492 CURVE SMOOTH",
"141 492 OFFCURVE",
"128 491 OFFCURVE",
"113 490 CURVE",
"120 476 LINE",
"154 455 OFFCURVE",
"199 430 OFFCURVE",
"221 397 CURVE",
"217 391 LINE",
"187 389 OFFCURVE",
"141 364 OFFCURVE",
"113 350 CURVE",
"114 336 LINE",
"134 324 OFFCURVE",
"157 319 OFFCURVE",
"181 315 CURVE",
"184 321 LINE",
"175 323 LINE",
"195 339 OFFCURVE",
"217 354 OFFCURVE",
"238 368 CURVE",
"250 342 OFFCURVE",
"260 314 OFFCURVE",
"260 285 CURVE SMOOTH",
"260 272 OFFCURVE",
"257 259 OFFCURVE",
"254 247 CURVE",
"262 232 LINE",
"261 228 LINE",
"255 220 OFFCURVE",
"249 212 OFFCURVE",
"245 204 CURVE",
"250 198 LINE",
"245 183 LINE",
"242 198 LINE",
"234 180 OFFCURVE",
"225 162 OFFCURVE",
"214 145 CURVE",
"210 155 LINE",
"203 139 LINE",
"198 142 LINE",
"195 132 OFFCURVE",
"191 122 OFFCURVE",
"184 114 CURVE",
"180 124 LINE",
"173 112 OFFCURVE",
"164 95 OFFCURVE",
"149 91 CURVE",
"146 76 OFFCURVE",
"134 67 OFFCURVE",
"120 67 CURVE",
"112 58 OFFCURVE",
"101 49 OFFCURVE",
"88 47 CURVE",
"79 40 OFFCURVE",
"68 34 OFFCURVE",
"57 34 CURVE SMOOTH",
"49 35 LINE",
"47 42 OFFCURVE",
"46 49 OFFCURVE",
"46 56 CURVE SMOOTH",
"46 94 OFFCURVE",
"89 167 OFFCURVE",
"122 186 CURVE",
"130 201 LINE",
"141 210 LINE",
"142 216 LINE",
"144 214 LINE",
"174 230 OFFCURVE",
"201 248 OFFCURVE",
"233 259 CURVE",
"237 257 LINE",
"241 267 LINE",
"241 280 OFFCURVE",
"230 289 OFFCURVE",
"222 297 CURVE",
"206 292 OFFCURVE",
"190 285 OFFCURVE",
"174 278 CURVE",
"175 274 LINE",
"171 268 OFFCURVE",
"165 265 OFFCURVE",
"158 264 CURVE",
"156 269 LINE",
"109 250 OFFCURVE",
"18 145 OFFCURVE",
"20 93 CURVE SMOOTH",
"21 58 LINE SMOOTH",
"21 43 OFFCURVE",
"23 9 OFFCURVE",
"43 5 CURVE",
"45 8 LINE",
"47 0 LINE",
"49 -1 OFFCURVE",
"65 -7 OFFCURVE",
"67 -7 CURVE SMOOTH"
);
},
{
closed = 1;
nodes = (
"26 89 LINE",
"26 98 LINE",
"31 98 LINE",
"35 89 LINE",
"34 83 LINE"
);
},
{
closed = 1;
nodes = (
"254 236 LINE",
"250 236 LINE",
"247 230 LINE",
"250 226 LINE"
);
},
{
closed = 1;
nodes = (
"275 211 LINE",
"268 218 LINE",
"275 218 LINE"
);
},
{
closed = 1;
nodes = (
"264 259 LINE",
"266 271 LINE",
"271 271 LINE",
"267 259 LINE"
);
},
{
closed = 1;
nodes = (
"272 292 LINE",
"276 292 LINE",
"279 275 LINE",
"269 272 LINE"
);
},
{
closed = 1;
nodes = (
"211 374 OFFCURVE",
"219 379 OFFCURVE",
"227 382 CURVE",
"217 371 LINE",
"205 368 LINE"
);
}
);
width = 324;
}
);
note = eth;
unicode = 00F0;
},
{
glyphname = e;
lastChange = "2021-11-19 00:56:47 +0000";
layers = (
{
anchors = (
{
name = bottom;
position = "{70, 0}";
},
{
name = ogonek;
position = "{220, 34}";
},
{
name = top;
position = "{155, 205}";
}
);
layerId = "01BDBA83-373F-4081-A4FB-32E4C1670F2F";
paths = (
{
closed = 1;
nodes = (
"120 -7 OFFCURVE",
"147 19 OFFCURVE",
"172 36 CURVE",
"173 41 LINE",
"176 41 LINE",
"197 59 OFFCURVE",
"220 75 OFFCURVE",
"231 100 CURVE",
"240 103 OFFCURVE",
"248 112 OFFCURVE",
"248 121 CURVE",
"246 123 LINE",
"235 115 LINE",
"226 93 OFFCURVE",
"202 83 OFFCURVE",
"185 67 CURVE",
"185 66 LINE",
"182 68 LINE",
"181 68 LINE",
"163 51 LINE",
"163 50 LINE",
"157 53 LINE",
"152 50 OFFCURVE",
"149 46 OFFCURVE",
"143 44 CURVE",
"139 45 LINE",
"139 42 LINE",
"133 42 LINE",
"133 36 LINE",
"125 33 OFFCURVE",
"117 31 OFFCURVE",
"108 30 CURVE",
"105 25 LINE",
"104 26 LINE",
"94 27 OFFCURVE",
"77 24 OFFCURVE",
"68 31 CURVE",
"67 33 OFFCURVE",
"65 40 OFFCURVE",
"65 42 CURVE SMOOTH",
"65 61 OFFCURVE",
"75 85 OFFCURVE",
"85 100 CURVE",
"85 102 LINE",
"113 102 OFFCURVE",
"205 139 OFFCURVE",
"205 172 CURVE SMOOTH",
"205 189 OFFCURVE",
"184 214 OFFCURVE",
"166 218 CURVE",
"166 216 LINE",
"118 216 OFFCURVE",
"33 116 OFFCURVE",
"33 69 CURVE SMOOTH",
"33 53 OFFCURVE",
"42 40 OFFCURVE",
"45 23 CURVE",
"55 15 OFFCURVE",
"75 -7 OFFCURVE",
"87 -7 CURVE SMOOTH"
);
},
{
closed = 1;
nodes = (
"106 121 LINE",
"109 130 OFFCURVE",
"112 138 OFFCURVE",
"120 143 CURVE",
"121 151 LINE",
"123 151 LINE",
"140 162 OFFCURVE",
"158 172 OFFCURVE",
"175 184 CURVE",
"178 184 OFFCURVE",
"182 183 OFFCURVE",
"184 183 CURVE",
"183 178 LINE",
"184 173 LINE",
"183 173 LINE",
"181 162 OFFCURVE",
"121 127 OFFCURVE",
"108 123 CURVE",
"108 121 LINE"
);
},
{
closed = 1;
nodes = (
"262 132 LINE",
"261 135 LINE",
"251 132 LINE",
"252 126 LINE",
"258 124 LINE"
);
}
);
width = 180;
}
);
note = e;
unicode = 0065;
},
{
glyphname = schwa;
lastChange = "2021-11-19 00:56:47 +0000";
layers = (
{
layerId = "01BDBA83-373F-4081-A4FB-32E4C1670F2F";
paths = (
{
closed = 1;
nodes = (
"96 -16 LINE",
"144 -16 OFFCURVE",
"229 84 OFFCURVE",
"229 131 CURVE SMOOTH",
"229 147 OFFCURVE",
"220 160 OFFCURVE",
"217 177 CURVE",
"207 185 OFFCURVE",
"187 207 OFFCURVE",
"175 207 CURVE SMOOTH",
"142 207 OFFCURVE",
"115 181 OFFCURVE",
"90 164 CURVE",
"89 159 LINE",
"86 159 LINE",
"65 141 OFFCURVE",
"42 125 OFFCURVE",
"31 100 CURVE",
"22 97 OFFCURVE",
"14 88 OFFCURVE",
"14 79 CURVE",
"16 77 LINE",
"27 85 LINE",
"36 107 OFFCURVE",
"60 117 OFFCURVE",
"77 133 CURVE",
"77 134 LINE",
"80 132 LINE",
"81 132 LINE",
"99 149 LINE",
"99 150 LINE",
"105 147 LINE",
"110 150 OFFCURVE",
"113 154 OFFCURVE",
"119 156 CURVE",
"123 155 LINE",
"123 158 LINE",
"129 158 LINE",
"129 164 LINE",
"137 167 OFFCURVE",
"145 169 OFFCURVE",
"154 170 CURVE",
"157 175 LINE",
"158 174 LINE",
"168 173 OFFCURVE",
"185 176 OFFCURVE",
"194 169 CURVE",
"195 167 OFFCURVE",
"197 160 OFFCURVE",
"197 158 CURVE SMOOTH",
"197 139 OFFCURVE",
"187 115 OFFCURVE",
"177 100 CURVE",
"177 98 LINE",
"149 98 OFFCURVE",
"57 61 OFFCURVE",
"57 28 CURVE SMOOTH",
"57 11 OFFCURVE",
"78 -14 OFFCURVE",
"96 -18 CURVE"
);
},
{
closed = 1;
nodes = (
"11 68 LINE",
"10 74 LINE",
"4 76 LINE",
"0 68 LINE",
"1 65 LINE"
);
},
{
closed = 1;
nodes = (
"84 16 OFFCURVE",
"80 17 OFFCURVE",
"78 17 CURVE",
"79 22 LINE",
"78 27 LINE",
"79 27 LINE",
"81 38 OFFCURVE",
"141 73 OFFCURVE",
"154 77 CURVE",
"154 79 LINE",
"156 79 LINE",
"153 70 OFFCURVE",
"150 62 OFFCURVE",
"142 57 CURVE",
"141 49 LINE",
"139 49 LINE",
"122 38 OFFCURVE",
"104 28 OFFCURVE",
"87 16 CURVE"
);
}
);
width = 199;
}
);
unicode = 0259;
},
{
glyphname = f;
lastChange = "2021-11-19 00:56:47 +0000";
layers = (
{
layerId = "01BDBA83-373F-4081-A4FB-32E4C1670F2F";
paths = (
{
closed = 1;
nodes = (
"98 -113 OFFCURVE",
"103 -112 OFFCURVE",
"108 -112 CURVE",
"74 -86 OFFCURVE",
"78 -59 OFFCURVE",
"78 -19 CURVE SMOOTH",
"78 -8 OFFCURVE",
"79 4 OFFCURVE",
"79 14 CURVE",
"85 25 OFFCURVE",
"93 36 OFFCURVE",
"93 49 CURVE SMOOTH",
"93 63 OFFCURVE",
"119 106 OFFCURVE",
"127 126 CURVE",
"141 133 OFFCURVE",
"130 154 OFFCURVE",
"144 162 CURVE",
"153 181 OFFCURVE",
"181 212 OFFCURVE",
"184 229 CURVE",
"191 231 OFFCURVE",
"197 231 OFFCURVE",
"202 231 CURVE SMOOTH",
"220 231 OFFCURVE",
"238 229 OFFCURVE",
"253 238 CURVE",
"262 237 LINE SMOOTH",
"273 237 OFFCURVE",
"284 240 OFFCURVE",
"293 236 CURVE",
"302 244 LINE",
"272 247 OFFCURVE",
"239 259 OFFCURVE",
"209 261 CURVE",
"220 274 OFFCURVE",
"229 290 OFFCURVE",
"240 303 CURVE",
"255 309 OFFCURVE",
"268 333 OFFCURVE",
"275 346 CURVE",
"299 364 OFFCURVE",
"308 390 OFFCURVE",
"342 390 CURVE",
"348 389 LINE",
"356 393 OFFCURVE",
"365 396 OFFCURVE",
"373 396 CURVE SMOOTH",
"409 396 OFFCURVE",
"432 355 OFFCURVE",
"442 355 CURVE",
"445 360 LINE",
"445 410 OFFCURVE",
"386 458 OFFCURVE",
"337 458 CURVE SMOOTH",
"314 458 OFFCURVE",
"298 443 OFFCURVE",
"281 428 CURVE",
"276 427 LINE",
"268 421 OFFCURVE",
"200 329 OFFCURVE",
"190 314 CURVE",
"178 311 OFFCURVE",
"175 294 OFFCURVE",
"169 285 CURVE",
"162 281 LINE",
"159 266 LINE",
"156 262 LINE",
"150 261 OFFCURVE",
"144 260 OFFCURVE",
"139 260 CURVE SMOOTH",
"132 260 OFFCURVE",
"126 262 OFFCURVE",
"121 262 CURVE",
"127 275 LINE",
"113 276 LINE SMOOTH",
"89 278 OFFCURVE",
"83 272 OFFCURVE",
"73 251 CURVE",
"73 248 LINE",
"65 227 LINE",
"66 227 LINE",
"63 226 LINE",
"61 213 LINE",
"66 210 LINE",
"82 214 OFFCURVE",
"103 219 OFFCURVE",
"118 227 CURVE",
"131 228 LINE",
"126 215 LINE",
"126 194 OFFCURVE",
"108 179 OFFCURVE",
"101 160 CURVE",
"102 146 OFFCURVE",
"85 138 OFFCURVE",
"85 123 CURVE SMOOTH",
"85 120 OFFCURVE",
"87 115 OFFCURVE",
"87 112 CURVE",
"85 111 LINE",
"78 94 LINE",
"78 92 LINE",
"67 83 OFFCURVE",
"64 59 OFFCURVE",
"65 45 CURVE SMOOTH",
"66 26 LINE",
"56 22 OFFCURVE",
"54 -23 OFFCURVE",
"54 -34 CURVE SMOOTH",
"54 -60 OFFCURVE",
"57 -113 OFFCURVE",
"93 -113 CURVE SMOOTH"
);
}
);
width = 212;
}
);
note = f;
unicode = 0066;
},
